M48
; DRILL file {KiCad 7.0.7} date Thu Feb  8 23:22:02 2024
; FORMAT={-:-/ absolute / inch / decimal}
; #@! TF.CreationDate,2024-02-08T23:22:02+01:00
; #@! TF.GenerationSoftware,Kicad,Pcbnew,7.0.7
; #@! TF.FileFunction,Plated,1,3,Blind
FMAT,2
INCH
; #@! TA.AperFunction,Plated,Buried,ViaDrill
T1C0.0157
%
G90
G05
T1
X3.9764Y-3.1102
X3.9764Y-3.1496
X4.0157Y-3.1102
X4.0157Y-3.1496
X4.2126Y-3.1496
X4.252Y-3.1496
X4.4094Y-3.622
X4.4094Y-3.6614
X4.5276Y-3.622
X4.5276Y-3.6614
X4.5669Y-3.7402
X4.6063Y-3.7402
X5.1181Y-3.1496
X5.1575Y-3.189
X5.5118Y-4.3701
X5.7874Y-3.7795
X5.7874Y-4.0157
X5.8268Y-3.6614
X5.9449Y-3.8976
X6.2205Y-2.7559
X6.3386Y-3.7795
X6.4567Y-3.7402
T0
M30
