%TF.GenerationSoftware,KiCad,Pcbnew,7.0.7*%
%TF.CreationDate,2024-02-08T23:22:07+01:00*%
%TF.ProjectId,balancing_robot,62616c61-6e63-4696-9e67-5f726f626f74,rev?*%
%TF.SameCoordinates,Original*%
%TF.FileFunction,Paste,Top*%
%TF.FilePolarity,Positive*%
%FSLAX46Y46*%
G04 Gerber Fmt 4.6, Leading zero omitted, Abs format (unit mm)*
G04 Created by KiCad (PCBNEW 7.0.7) date 2024-02-08 23:22:07*
%MOMM*%
%LPD*%
G01*
G04 APERTURE LIST*
G04 Aperture macros list*
%AMRoundRect*
0 Rectangle with rounded corners*
0 $1 Rounding radius*
0 $2 $3 $4 $5 $6 $7 $8 $9 X,Y pos of 4 corners*
0 Add a 4 corners polygon primitive as box body*
4,1,4,$2,$3,$4,$5,$6,$7,$8,$9,$2,$3,0*
0 Add four circle primitives for the rounded corners*
1,1,$1+$1,$2,$3*
1,1,$1+$1,$4,$5*
1,1,$1+$1,$6,$7*
1,1,$1+$1,$8,$9*
0 Add four rect primitives between the rounded corners*
20,1,$1+$1,$2,$3,$4,$5,0*
20,1,$1+$1,$4,$5,$6,$7,0*
20,1,$1+$1,$6,$7,$8,$9,0*
20,1,$1+$1,$8,$9,$2,$3,0*%
G04 Aperture macros list end*
%ADD10R,0.400000X0.650000*%
%ADD11RoundRect,0.250000X-0.650000X0.325000X-0.650000X-0.325000X0.650000X-0.325000X0.650000X0.325000X0*%
%ADD12RoundRect,0.250000X-0.312500X-0.625000X0.312500X-0.625000X0.312500X0.625000X-0.312500X0.625000X0*%
%ADD13R,0.600000X1.450000*%
%ADD14R,0.300000X1.450000*%
%ADD15RoundRect,0.218750X-0.218750X-0.256250X0.218750X-0.256250X0.218750X0.256250X-0.218750X0.256250X0*%
%ADD16RoundRect,0.250000X0.650000X-0.325000X0.650000X0.325000X-0.650000X0.325000X-0.650000X-0.325000X0*%
%ADD17RoundRect,0.250000X-0.325000X-0.650000X0.325000X-0.650000X0.325000X0.650000X-0.325000X0.650000X0*%
%ADD18RoundRect,0.250000X0.312500X0.625000X-0.312500X0.625000X-0.312500X-0.625000X0.312500X-0.625000X0*%
%ADD19RoundRect,0.250000X0.625000X-0.312500X0.625000X0.312500X-0.625000X0.312500X-0.625000X-0.312500X0*%
%ADD20RoundRect,0.250000X-0.625000X0.312500X-0.625000X-0.312500X0.625000X-0.312500X0.625000X0.312500X0*%
%ADD21R,5.000000X3.100000*%
%ADD22RoundRect,0.250000X0.325000X0.650000X-0.325000X0.650000X-0.325000X-0.650000X0.325000X-0.650000X0*%
%ADD23R,1.500000X0.900000*%
%ADD24R,0.900000X1.500000*%
%ADD25R,1.000000X1.000000*%
%ADD26R,2.000000X1.500000*%
%ADD27R,2.000000X3.800000*%
%ADD28R,0.375000X0.500000*%
%ADD29R,0.300000X0.650000*%
%ADD30RoundRect,0.225000X-0.225000X0.225000X-0.225000X-0.225000X0.225000X-0.225000X0.225000X0.225000X0*%
%ADD31RoundRect,0.062500X-0.062500X0.337500X-0.062500X-0.337500X0.062500X-0.337500X0.062500X0.337500X0*%
%ADD32RoundRect,0.062500X-0.337500X0.062500X-0.337500X-0.062500X0.337500X-0.062500X0.337500X0.062500X0*%
%ADD33RoundRect,0.150000X-0.512500X-0.150000X0.512500X-0.150000X0.512500X0.150000X-0.512500X0.150000X0*%
G04 APERTURE END LIST*
D10*
%TO.C,Q1*%
X169350000Y-92900000D03*
X170000000Y-92900000D03*
X170650000Y-92900000D03*
X170650000Y-91000000D03*
X170000000Y-91000000D03*
X169350000Y-91000000D03*
%TD*%
D11*
%TO.C,C2*%
X158500000Y-97000000D03*
X158500000Y-99950000D03*
%TD*%
D12*
%TO.C,R2*%
X148075000Y-109000000D03*
X151000000Y-109000000D03*
%TD*%
D11*
%TO.C,C9*%
X161500000Y-97000000D03*
X161500000Y-99950000D03*
%TD*%
D13*
%TO.C,J2*%
X142750000Y-111955000D03*
X143550000Y-111955000D03*
D14*
X144750000Y-111955000D03*
X145750000Y-111955000D03*
X146250000Y-111955000D03*
X147250000Y-111955000D03*
D13*
X148450000Y-111955000D03*
X149250000Y-111955000D03*
X149250000Y-111955000D03*
X148450000Y-111955000D03*
D14*
X147750000Y-111955000D03*
X146750000Y-111955000D03*
X145250000Y-111955000D03*
X144250000Y-111955000D03*
D13*
X143550000Y-111955000D03*
X142750000Y-111955000D03*
%TD*%
D15*
%TO.C,FB1*%
X132425000Y-82000000D03*
X134000000Y-82000000D03*
%TD*%
D16*
%TO.C,C4*%
X112000000Y-91000000D03*
X112000000Y-88050000D03*
%TD*%
D11*
%TO.C,C5*%
X155000000Y-88525000D03*
X155000000Y-91475000D03*
%TD*%
D12*
%TO.C,R15*%
X154075000Y-78000000D03*
X157000000Y-78000000D03*
%TD*%
D17*
%TO.C,C10*%
X109050000Y-84000000D03*
X112000000Y-84000000D03*
%TD*%
D18*
%TO.C,R13*%
X120000000Y-81000000D03*
X117075000Y-81000000D03*
%TD*%
D19*
%TO.C,R5*%
X123000000Y-95000000D03*
X123000000Y-92075000D03*
%TD*%
D20*
%TO.C,R11*%
X128063184Y-81519092D03*
X128063184Y-84444092D03*
%TD*%
D21*
%TO.C,L1*%
X101000000Y-93550000D03*
X101000000Y-82450000D03*
%TD*%
D17*
%TO.C,C11*%
X109050000Y-81000000D03*
X112000000Y-81000000D03*
%TD*%
D18*
%TO.C,R3*%
X143462500Y-109000000D03*
X140537500Y-109000000D03*
%TD*%
D22*
%TO.C,C12*%
X124000000Y-89000000D03*
X121050000Y-89000000D03*
%TD*%
D19*
%TO.C,R12*%
X123000000Y-84462500D03*
X123000000Y-81537500D03*
%TD*%
D23*
%TO.C,U5*%
X160500000Y-68650000D03*
X160500000Y-69920000D03*
X160500000Y-71190000D03*
X160500000Y-72460000D03*
X160500000Y-73730000D03*
X160500000Y-75000000D03*
X160500000Y-76270000D03*
X160500000Y-77540000D03*
X160500000Y-78810000D03*
X160500000Y-80080000D03*
X160500000Y-81350000D03*
X160500000Y-82620000D03*
X160500000Y-83890000D03*
X160500000Y-85160000D03*
D24*
X162265000Y-86410000D03*
X163535000Y-86410000D03*
X164805000Y-86410000D03*
X166075000Y-86410000D03*
X167345000Y-86410000D03*
X168615000Y-86410000D03*
X169885000Y-86410000D03*
X171155000Y-86410000D03*
X172425000Y-86410000D03*
X173695000Y-86410000D03*
X174965000Y-86410000D03*
X176235000Y-86410000D03*
D23*
X178000000Y-85160000D03*
X178000000Y-83890000D03*
X178000000Y-82620000D03*
X178000000Y-81350000D03*
X178000000Y-80080000D03*
X178000000Y-78810000D03*
X178000000Y-77540000D03*
X178000000Y-76270000D03*
X178000000Y-75000000D03*
X178000000Y-73730000D03*
X178000000Y-72460000D03*
X178000000Y-71190000D03*
X178000000Y-69920000D03*
X178000000Y-68650000D03*
D25*
X166390000Y-72500000D03*
X166390000Y-74000000D03*
X166390000Y-74000000D03*
X166390000Y-75500000D03*
X167890000Y-72500000D03*
X167890000Y-72500000D03*
X167890000Y-74000000D03*
X167890000Y-75500000D03*
X169390000Y-72500000D03*
X169390000Y-74000000D03*
X169390000Y-75500000D03*
%TD*%
D26*
%TO.C,U1*%
X145700000Y-84700000D03*
X145700000Y-87000000D03*
D27*
X152000000Y-87000000D03*
D26*
X145700000Y-89300000D03*
%TD*%
D28*
%TO.C,U2*%
X146537500Y-107075000D03*
D29*
X146000000Y-107000000D03*
D28*
X145462500Y-107075000D03*
X145462500Y-108775000D03*
D29*
X146000000Y-108850000D03*
D28*
X146537500Y-108775000D03*
%TD*%
D30*
%TO.C,U4*%
X168000000Y-96880000D03*
X166880000Y-96880000D03*
X165760000Y-96880000D03*
X168000000Y-98000000D03*
X166880000Y-98000000D03*
X165760000Y-98000000D03*
X168000000Y-99120000D03*
X166880000Y-99120000D03*
X165760000Y-99120000D03*
D31*
X168380000Y-95550000D03*
X167880000Y-95550000D03*
X167380000Y-95550000D03*
X166880000Y-95550000D03*
X166380000Y-95550000D03*
X165880000Y-95550000D03*
X165380000Y-95550000D03*
D32*
X164430000Y-96500000D03*
X164430000Y-97000000D03*
X164430000Y-97500000D03*
X164430000Y-98000000D03*
X164430000Y-98500000D03*
X164430000Y-99000000D03*
X164430000Y-99500000D03*
D31*
X165380000Y-100450000D03*
X165880000Y-100450000D03*
X166380000Y-100450000D03*
X166880000Y-100450000D03*
X167380000Y-100450000D03*
X167880000Y-100450000D03*
X168380000Y-100450000D03*
D32*
X169330000Y-99500000D03*
X169330000Y-99000000D03*
X169330000Y-98500000D03*
X169330000Y-98000000D03*
X169330000Y-97500000D03*
X169330000Y-97000000D03*
X169330000Y-96500000D03*
%TD*%
D22*
%TO.C,C8*%
X119950000Y-86000000D03*
X117000000Y-86000000D03*
%TD*%
D18*
%TO.C,R8*%
X165000000Y-93000000D03*
X162075000Y-93000000D03*
%TD*%
D33*
%TO.C,U3*%
X115725000Y-89050000D03*
X115725000Y-90000000D03*
X115725000Y-90950000D03*
X118000000Y-90950000D03*
X118000000Y-90000000D03*
X118000000Y-89050000D03*
%TD*%
D12*
%TO.C,R4*%
X118075000Y-95000000D03*
X121000000Y-95000000D03*
%TD*%
M02*
