M48
; DRILL file {KiCad 7.0.7} date Thu Feb  8 23:22:02 2024
; FORMAT={-:-/ absolute / inch / decimal}
; #@! TF.CreationDate,2024-02-08T23:22:02+01:00
; #@! TF.GenerationSoftware,Kicad,Pcbnew,7.0.7
; #@! TF.FileFunction,Plated,1,4,PTH
FMAT,2
INCH
; #@! TA.AperFunction,Plated,PTH,ViaDrill
T1C0.0157
; #@! TA.AperFunction,Plated,PTH,ComponentDrill
T2C0.0197
; #@! TA.AperFunction,Plated,PTH,ComponentDrill
T3C0.0236
; #@! TA.AperFunction,Plated,PTH,ComponentDrill
T4C0.0315
; #@! TA.AperFunction,Plated,PTH,ComponentDrill
T5C0.0354
; #@! TA.AperFunction,Plated,PTH,ComponentDrill
T6C0.0374
; #@! TA.AperFunction,Plated,PTH,ComponentDrill
T7C0.0433
; #@! TA.AperFunction,Plated,PTH,ComponentDrill
T8C0.0512
; #@! TA.AperFunction,Plated,PTH,ComponentDrill
T9C0.1260
%
G90
G05
T1
X4.0945Y-3.5433
X4.0945Y-3.5827
X4.1339Y-3.5433
X4.1339Y-3.5827
X4.4882Y-3.5039
X4.5276Y-3.3858
X4.685Y-3.5433
X4.7244Y-2.9134
X4.7638Y-3.6614
X4.8425Y-2.9134
X5.3543Y-3.2677
X5.3543Y-3.3071
X5.5512Y-3.2283
X5.7087Y-3.622
X5.748Y-4.1339
X5.7874Y-2.874
X5.8268Y-4.1732
X5.8661Y-3.2677
X5.9843Y-3.0709
X6.0236Y-2.9921
X6.0236Y-3.9764
X6.1417Y-3.7402
X6.2205Y-2.8346
X6.2205Y-3.1496
X6.2243Y-2.9971
X6.2294Y-3.2236
X6.2598Y-3.0709
X6.2992Y-3.7008
X6.3386Y-3.5039
X6.378Y-2.874
X6.4173Y-3.189
X6.4225Y-3.9359
X6.4961Y-2.8346
X6.4961Y-3.3071
X6.4961Y-3.5039
X6.5748Y-3.622
X6.5748Y-3.6614
X6.6142Y-3.5039
X6.6142Y-3.7008
X6.6929Y-3.7402
X6.6929Y-4.252
X6.7717Y-3.4646
X6.7717Y-3.5827
X6.7717Y-3.8583
X6.7717Y-3.937
X6.811Y-3.6614
X6.811Y-3.7402
X6.8504Y-3.5039
X6.8504Y-3.622
X6.8504Y-3.7795
X6.8898Y-3.3071
X6.9291Y-4.2913
X7.0079Y-3.8189
X7.1654Y-2.9134
X7.1654Y-3.1496
X7.1654Y-3.8583
X7.2441Y-2.8346
X7.3622Y-4.2126
X7.4409Y-3.622
X7.5197Y-2.9921
X7.6378Y-3.1496
X7.6378Y-3.4646
X7.7165Y-3.5433
X7.7953Y-2.9921
X7.9921Y-3.3071
X8.0709Y-3.1496
T2
X3.748Y-4.4488
X3.7645Y-2.8726
X3.7757Y-4.382
X3.7757Y-4.5156
X3.7921Y-2.8058
X3.7921Y-2.9395
X3.8425Y-4.3543
X3.8425Y-4.5433
X3.8589Y-2.7782
X3.8589Y-2.9671
X3.9093Y-4.382
X3.9093Y-4.5156
X3.9258Y-2.8058
X3.9258Y-2.9395
X3.937Y-4.4488
X3.9534Y-2.8726
X8.0938Y-4.4511
X8.0945Y-2.874
X8.1215Y-4.3842
X8.1215Y-4.5179
X8.1222Y-2.8072
X8.1222Y-2.9408
X8.1883Y-4.3566
X8.1883Y-4.5456
X8.189Y-2.7795
X8.189Y-2.9685
X8.2551Y-4.3842
X8.2551Y-4.5179
X8.2558Y-2.8072
X8.2558Y-2.9408
X8.2828Y-4.4511
X8.2835Y-2.874
T4
X4.252Y-3.8386
X4.252Y-3.937
X4.4882Y-3.8386
X4.4882Y-3.937
X4.9213Y-3.937
X4.9213Y-4.337
X5.1969Y-3.9307
X5.1969Y-4.3307
X5.4331Y-3.3465
X5.4331Y-3.5433
X5.5906Y-3.3465
X5.5906Y-3.5433
X5.9055Y-2.7362
X5.9055Y-2.9331
X6.1024Y-2.7362
X6.1024Y-2.9331
X6.1417Y-3.1693
X6.1417Y-3.3661
X7.1678Y-2.9942
X7.1678Y-3.3942
X7.3228Y-2.8709
X7.3228Y-3.2709
X7.3228Y-3.5795
X7.3228Y-3.9795
X7.5591Y-3.5827
X7.5591Y-3.9827
T5
X4.9213Y-4.452
X4.9213Y-4.552
X5.1969Y-4.4488
X5.1969Y-4.5488
T6
X4.4753Y-2.8361
X4.5738Y-2.8361
X4.6722Y-2.8361
X4.7706Y-2.8361
X4.869Y-2.8361
X5.1378Y-2.8346
X5.2362Y-2.8346
X5.3346Y-2.8346
X5.4331Y-2.8346
X5.5315Y-2.8346
X6.1811Y-4.4882
X6.2795Y-4.4882
X6.378Y-4.4882
X6.4764Y-4.4882
X6.5748Y-4.4882
X6.8504Y-4.4882
X6.9488Y-4.4882
X7.0472Y-4.4882
X7.1457Y-4.4882
X7.2441Y-4.4882
X7.5Y-2.7953
X7.5197Y-4.4882
X7.5984Y-2.7953
X7.6181Y-4.4882
X7.6969Y-2.7953
X7.7165Y-4.4882
X7.7953Y-2.7953
X7.815Y-4.4882
X7.8937Y-2.7953
X7.9134Y-4.4882
X8.249Y-3.189
X8.249Y-3.2874
X8.249Y-3.3858
X8.249Y-3.4843
X8.249Y-3.5827
T7
X5.1969Y-3.3827
X5.1969Y-3.7827
T8
X3.8583Y-3.9339
X3.8583Y-4.1339
T9
X3.8425Y-4.4488
X3.8589Y-2.8726
X8.1883Y-4.4511
X8.189Y-2.874
T3
G00X5.578Y-4.422
M15
G01X5.578Y-4.4654
M16
G05
G00X5.578Y-4.5965
M15
G01X5.578Y-4.6201
M16
G05
G00X5.9181Y-4.422
M15
G01X5.9181Y-4.4654
M16
G05
G00X5.9181Y-4.5965
M15
G01X5.9181Y-4.6201
M16
G05
T0
M30
