%TF.GenerationSoftware,KiCad,Pcbnew,7.0.7*%
%TF.CreationDate,2024-02-08T23:22:07+01:00*%
%TF.ProjectId,balancing_robot,62616c61-6e63-4696-9e67-5f726f626f74,rev?*%
%TF.SameCoordinates,Original*%
%TF.FileFunction,Legend,Top*%
%TF.FilePolarity,Positive*%
%FSLAX46Y46*%
G04 Gerber Fmt 4.6, Leading zero omitted, Abs format (unit mm)*
G04 Created by KiCad (PCBNEW 7.0.7) date 2024-02-08 23:22:07*
%MOMM*%
%LPD*%
G01*
G04 APERTURE LIST*
%ADD10C,0.150000*%
%ADD11C,0.120000*%
G04 APERTURE END LIST*
D10*
X104420112Y-112986009D02*
X104562969Y-113033628D01*
X104562969Y-113033628D02*
X104610588Y-113081247D01*
X104610588Y-113081247D02*
X104658207Y-113176485D01*
X104658207Y-113176485D02*
X104658207Y-113319342D01*
X104658207Y-113319342D02*
X104610588Y-113414580D01*
X104610588Y-113414580D02*
X104562969Y-113462200D01*
X104562969Y-113462200D02*
X104467731Y-113509819D01*
X104467731Y-113509819D02*
X104086779Y-113509819D01*
X104086779Y-113509819D02*
X104086779Y-112509819D01*
X104086779Y-112509819D02*
X104420112Y-112509819D01*
X104420112Y-112509819D02*
X104515350Y-112557438D01*
X104515350Y-112557438D02*
X104562969Y-112605057D01*
X104562969Y-112605057D02*
X104610588Y-112700295D01*
X104610588Y-112700295D02*
X104610588Y-112795533D01*
X104610588Y-112795533D02*
X104562969Y-112890771D01*
X104562969Y-112890771D02*
X104515350Y-112938390D01*
X104515350Y-112938390D02*
X104420112Y-112986009D01*
X104420112Y-112986009D02*
X104086779Y-112986009D01*
X105515350Y-113509819D02*
X105515350Y-112986009D01*
X105515350Y-112986009D02*
X105467731Y-112890771D01*
X105467731Y-112890771D02*
X105372493Y-112843152D01*
X105372493Y-112843152D02*
X105182017Y-112843152D01*
X105182017Y-112843152D02*
X105086779Y-112890771D01*
X105515350Y-113462200D02*
X105420112Y-113509819D01*
X105420112Y-113509819D02*
X105182017Y-113509819D01*
X105182017Y-113509819D02*
X105086779Y-113462200D01*
X105086779Y-113462200D02*
X105039160Y-113366961D01*
X105039160Y-113366961D02*
X105039160Y-113271723D01*
X105039160Y-113271723D02*
X105086779Y-113176485D01*
X105086779Y-113176485D02*
X105182017Y-113128866D01*
X105182017Y-113128866D02*
X105420112Y-113128866D01*
X105420112Y-113128866D02*
X105515350Y-113081247D01*
X106134398Y-113509819D02*
X106039160Y-113462200D01*
X106039160Y-113462200D02*
X105991541Y-113366961D01*
X105991541Y-113366961D02*
X105991541Y-112509819D01*
X106943922Y-113509819D02*
X106943922Y-112986009D01*
X106943922Y-112986009D02*
X106896303Y-112890771D01*
X106896303Y-112890771D02*
X106801065Y-112843152D01*
X106801065Y-112843152D02*
X106610589Y-112843152D01*
X106610589Y-112843152D02*
X106515351Y-112890771D01*
X106943922Y-113462200D02*
X106848684Y-113509819D01*
X106848684Y-113509819D02*
X106610589Y-113509819D01*
X106610589Y-113509819D02*
X106515351Y-113462200D01*
X106515351Y-113462200D02*
X106467732Y-113366961D01*
X106467732Y-113366961D02*
X106467732Y-113271723D01*
X106467732Y-113271723D02*
X106515351Y-113176485D01*
X106515351Y-113176485D02*
X106610589Y-113128866D01*
X106610589Y-113128866D02*
X106848684Y-113128866D01*
X106848684Y-113128866D02*
X106943922Y-113081247D01*
X107420113Y-112843152D02*
X107420113Y-113509819D01*
X107420113Y-112938390D02*
X107467732Y-112890771D01*
X107467732Y-112890771D02*
X107562970Y-112843152D01*
X107562970Y-112843152D02*
X107705827Y-112843152D01*
X107705827Y-112843152D02*
X107801065Y-112890771D01*
X107801065Y-112890771D02*
X107848684Y-112986009D01*
X107848684Y-112986009D02*
X107848684Y-113509819D01*
X108753446Y-113462200D02*
X108658208Y-113509819D01*
X108658208Y-113509819D02*
X108467732Y-113509819D01*
X108467732Y-113509819D02*
X108372494Y-113462200D01*
X108372494Y-113462200D02*
X108324875Y-113414580D01*
X108324875Y-113414580D02*
X108277256Y-113319342D01*
X108277256Y-113319342D02*
X108277256Y-113033628D01*
X108277256Y-113033628D02*
X108324875Y-112938390D01*
X108324875Y-112938390D02*
X108372494Y-112890771D01*
X108372494Y-112890771D02*
X108467732Y-112843152D01*
X108467732Y-112843152D02*
X108658208Y-112843152D01*
X108658208Y-112843152D02*
X108753446Y-112890771D01*
X109182018Y-113509819D02*
X109182018Y-112843152D01*
X109182018Y-112509819D02*
X109134399Y-112557438D01*
X109134399Y-112557438D02*
X109182018Y-112605057D01*
X109182018Y-112605057D02*
X109229637Y-112557438D01*
X109229637Y-112557438D02*
X109182018Y-112509819D01*
X109182018Y-112509819D02*
X109182018Y-112605057D01*
X109658208Y-112843152D02*
X109658208Y-113509819D01*
X109658208Y-112938390D02*
X109705827Y-112890771D01*
X109705827Y-112890771D02*
X109801065Y-112843152D01*
X109801065Y-112843152D02*
X109943922Y-112843152D01*
X109943922Y-112843152D02*
X110039160Y-112890771D01*
X110039160Y-112890771D02*
X110086779Y-112986009D01*
X110086779Y-112986009D02*
X110086779Y-113509819D01*
X110991541Y-112843152D02*
X110991541Y-113652676D01*
X110991541Y-113652676D02*
X110943922Y-113747914D01*
X110943922Y-113747914D02*
X110896303Y-113795533D01*
X110896303Y-113795533D02*
X110801065Y-113843152D01*
X110801065Y-113843152D02*
X110658208Y-113843152D01*
X110658208Y-113843152D02*
X110562970Y-113795533D01*
X110991541Y-113462200D02*
X110896303Y-113509819D01*
X110896303Y-113509819D02*
X110705827Y-113509819D01*
X110705827Y-113509819D02*
X110610589Y-113462200D01*
X110610589Y-113462200D02*
X110562970Y-113414580D01*
X110562970Y-113414580D02*
X110515351Y-113319342D01*
X110515351Y-113319342D02*
X110515351Y-113033628D01*
X110515351Y-113033628D02*
X110562970Y-112938390D01*
X110562970Y-112938390D02*
X110610589Y-112890771D01*
X110610589Y-112890771D02*
X110705827Y-112843152D01*
X110705827Y-112843152D02*
X110896303Y-112843152D01*
X110896303Y-112843152D02*
X110991541Y-112890771D01*
X112801065Y-113509819D02*
X112467732Y-113033628D01*
X112229637Y-113509819D02*
X112229637Y-112509819D01*
X112229637Y-112509819D02*
X112610589Y-112509819D01*
X112610589Y-112509819D02*
X112705827Y-112557438D01*
X112705827Y-112557438D02*
X112753446Y-112605057D01*
X112753446Y-112605057D02*
X112801065Y-112700295D01*
X112801065Y-112700295D02*
X112801065Y-112843152D01*
X112801065Y-112843152D02*
X112753446Y-112938390D01*
X112753446Y-112938390D02*
X112705827Y-112986009D01*
X112705827Y-112986009D02*
X112610589Y-113033628D01*
X112610589Y-113033628D02*
X112229637Y-113033628D01*
X113372494Y-113509819D02*
X113277256Y-113462200D01*
X113277256Y-113462200D02*
X113229637Y-113414580D01*
X113229637Y-113414580D02*
X113182018Y-113319342D01*
X113182018Y-113319342D02*
X113182018Y-113033628D01*
X113182018Y-113033628D02*
X113229637Y-112938390D01*
X113229637Y-112938390D02*
X113277256Y-112890771D01*
X113277256Y-112890771D02*
X113372494Y-112843152D01*
X113372494Y-112843152D02*
X113515351Y-112843152D01*
X113515351Y-112843152D02*
X113610589Y-112890771D01*
X113610589Y-112890771D02*
X113658208Y-112938390D01*
X113658208Y-112938390D02*
X113705827Y-113033628D01*
X113705827Y-113033628D02*
X113705827Y-113319342D01*
X113705827Y-113319342D02*
X113658208Y-113414580D01*
X113658208Y-113414580D02*
X113610589Y-113462200D01*
X113610589Y-113462200D02*
X113515351Y-113509819D01*
X113515351Y-113509819D02*
X113372494Y-113509819D01*
X114134399Y-113509819D02*
X114134399Y-112509819D01*
X114134399Y-112890771D02*
X114229637Y-112843152D01*
X114229637Y-112843152D02*
X114420113Y-112843152D01*
X114420113Y-112843152D02*
X114515351Y-112890771D01*
X114515351Y-112890771D02*
X114562970Y-112938390D01*
X114562970Y-112938390D02*
X114610589Y-113033628D01*
X114610589Y-113033628D02*
X114610589Y-113319342D01*
X114610589Y-113319342D02*
X114562970Y-113414580D01*
X114562970Y-113414580D02*
X114515351Y-113462200D01*
X114515351Y-113462200D02*
X114420113Y-113509819D01*
X114420113Y-113509819D02*
X114229637Y-113509819D01*
X114229637Y-113509819D02*
X114134399Y-113462200D01*
X115182018Y-113509819D02*
X115086780Y-113462200D01*
X115086780Y-113462200D02*
X115039161Y-113414580D01*
X115039161Y-113414580D02*
X114991542Y-113319342D01*
X114991542Y-113319342D02*
X114991542Y-113033628D01*
X114991542Y-113033628D02*
X115039161Y-112938390D01*
X115039161Y-112938390D02*
X115086780Y-112890771D01*
X115086780Y-112890771D02*
X115182018Y-112843152D01*
X115182018Y-112843152D02*
X115324875Y-112843152D01*
X115324875Y-112843152D02*
X115420113Y-112890771D01*
X115420113Y-112890771D02*
X115467732Y-112938390D01*
X115467732Y-112938390D02*
X115515351Y-113033628D01*
X115515351Y-113033628D02*
X115515351Y-113319342D01*
X115515351Y-113319342D02*
X115467732Y-113414580D01*
X115467732Y-113414580D02*
X115420113Y-113462200D01*
X115420113Y-113462200D02*
X115324875Y-113509819D01*
X115324875Y-113509819D02*
X115182018Y-113509819D01*
X115801066Y-112843152D02*
X116182018Y-112843152D01*
X115943923Y-112509819D02*
X115943923Y-113366961D01*
X115943923Y-113366961D02*
X115991542Y-113462200D01*
X115991542Y-113462200D02*
X116086780Y-113509819D01*
X116086780Y-113509819D02*
X116182018Y-113509819D01*
X117182019Y-112843152D02*
X117420114Y-113509819D01*
X117420114Y-113509819D02*
X117658209Y-112843152D01*
X118562971Y-113509819D02*
X117991543Y-113509819D01*
X118277257Y-113509819D02*
X118277257Y-112509819D01*
X118277257Y-112509819D02*
X118182019Y-112652676D01*
X118182019Y-112652676D02*
X118086781Y-112747914D01*
X118086781Y-112747914D02*
X117991543Y-112795533D01*
X118991543Y-113414580D02*
X119039162Y-113462200D01*
X119039162Y-113462200D02*
X118991543Y-113509819D01*
X118991543Y-113509819D02*
X118943924Y-113462200D01*
X118943924Y-113462200D02*
X118991543Y-113414580D01*
X118991543Y-113414580D02*
X118991543Y-113509819D01*
X119658209Y-112509819D02*
X119753447Y-112509819D01*
X119753447Y-112509819D02*
X119848685Y-112557438D01*
X119848685Y-112557438D02*
X119896304Y-112605057D01*
X119896304Y-112605057D02*
X119943923Y-112700295D01*
X119943923Y-112700295D02*
X119991542Y-112890771D01*
X119991542Y-112890771D02*
X119991542Y-113128866D01*
X119991542Y-113128866D02*
X119943923Y-113319342D01*
X119943923Y-113319342D02*
X119896304Y-113414580D01*
X119896304Y-113414580D02*
X119848685Y-113462200D01*
X119848685Y-113462200D02*
X119753447Y-113509819D01*
X119753447Y-113509819D02*
X119658209Y-113509819D01*
X119658209Y-113509819D02*
X119562971Y-113462200D01*
X119562971Y-113462200D02*
X119515352Y-113414580D01*
X119515352Y-113414580D02*
X119467733Y-113319342D01*
X119467733Y-113319342D02*
X119420114Y-113128866D01*
X119420114Y-113128866D02*
X119420114Y-112890771D01*
X119420114Y-112890771D02*
X119467733Y-112700295D01*
X119467733Y-112700295D02*
X119515352Y-112605057D01*
X119515352Y-112605057D02*
X119562971Y-112557438D01*
X119562971Y-112557438D02*
X119658209Y-112509819D01*
X104086779Y-115119819D02*
X104086779Y-114119819D01*
X104086779Y-114119819D02*
X104420112Y-114834104D01*
X104420112Y-114834104D02*
X104753445Y-114119819D01*
X104753445Y-114119819D02*
X104753445Y-115119819D01*
X105658207Y-115119819D02*
X105658207Y-114596009D01*
X105658207Y-114596009D02*
X105610588Y-114500771D01*
X105610588Y-114500771D02*
X105515350Y-114453152D01*
X105515350Y-114453152D02*
X105324874Y-114453152D01*
X105324874Y-114453152D02*
X105229636Y-114500771D01*
X105658207Y-115072200D02*
X105562969Y-115119819D01*
X105562969Y-115119819D02*
X105324874Y-115119819D01*
X105324874Y-115119819D02*
X105229636Y-115072200D01*
X105229636Y-115072200D02*
X105182017Y-114976961D01*
X105182017Y-114976961D02*
X105182017Y-114881723D01*
X105182017Y-114881723D02*
X105229636Y-114786485D01*
X105229636Y-114786485D02*
X105324874Y-114738866D01*
X105324874Y-114738866D02*
X105562969Y-114738866D01*
X105562969Y-114738866D02*
X105658207Y-114691247D01*
X106562969Y-115119819D02*
X106562969Y-114119819D01*
X106562969Y-115072200D02*
X106467731Y-115119819D01*
X106467731Y-115119819D02*
X106277255Y-115119819D01*
X106277255Y-115119819D02*
X106182017Y-115072200D01*
X106182017Y-115072200D02*
X106134398Y-115024580D01*
X106134398Y-115024580D02*
X106086779Y-114929342D01*
X106086779Y-114929342D02*
X106086779Y-114643628D01*
X106086779Y-114643628D02*
X106134398Y-114548390D01*
X106134398Y-114548390D02*
X106182017Y-114500771D01*
X106182017Y-114500771D02*
X106277255Y-114453152D01*
X106277255Y-114453152D02*
X106467731Y-114453152D01*
X106467731Y-114453152D02*
X106562969Y-114500771D01*
X107420112Y-115072200D02*
X107324874Y-115119819D01*
X107324874Y-115119819D02*
X107134398Y-115119819D01*
X107134398Y-115119819D02*
X107039160Y-115072200D01*
X107039160Y-115072200D02*
X106991541Y-114976961D01*
X106991541Y-114976961D02*
X106991541Y-114596009D01*
X106991541Y-114596009D02*
X107039160Y-114500771D01*
X107039160Y-114500771D02*
X107134398Y-114453152D01*
X107134398Y-114453152D02*
X107324874Y-114453152D01*
X107324874Y-114453152D02*
X107420112Y-114500771D01*
X107420112Y-114500771D02*
X107467731Y-114596009D01*
X107467731Y-114596009D02*
X107467731Y-114691247D01*
X107467731Y-114691247D02*
X106991541Y-114786485D01*
X108658208Y-115119819D02*
X108658208Y-114119819D01*
X108658208Y-114500771D02*
X108753446Y-114453152D01*
X108753446Y-114453152D02*
X108943922Y-114453152D01*
X108943922Y-114453152D02*
X109039160Y-114500771D01*
X109039160Y-114500771D02*
X109086779Y-114548390D01*
X109086779Y-114548390D02*
X109134398Y-114643628D01*
X109134398Y-114643628D02*
X109134398Y-114929342D01*
X109134398Y-114929342D02*
X109086779Y-115024580D01*
X109086779Y-115024580D02*
X109039160Y-115072200D01*
X109039160Y-115072200D02*
X108943922Y-115119819D01*
X108943922Y-115119819D02*
X108753446Y-115119819D01*
X108753446Y-115119819D02*
X108658208Y-115072200D01*
X109467732Y-114453152D02*
X109705827Y-115119819D01*
X109943922Y-114453152D02*
X109705827Y-115119819D01*
X109705827Y-115119819D02*
X109610589Y-115357914D01*
X109610589Y-115357914D02*
X109562970Y-115405533D01*
X109562970Y-115405533D02*
X109467732Y-115453152D01*
X111086780Y-114596009D02*
X111420113Y-114596009D01*
X111562970Y-115119819D02*
X111086780Y-115119819D01*
X111086780Y-115119819D02*
X111086780Y-114119819D01*
X111086780Y-114119819D02*
X111562970Y-114119819D01*
X112134399Y-115119819D02*
X112039161Y-115072200D01*
X112039161Y-115072200D02*
X111991542Y-114976961D01*
X111991542Y-114976961D02*
X111991542Y-114119819D01*
X112896304Y-115072200D02*
X112801066Y-115119819D01*
X112801066Y-115119819D02*
X112610590Y-115119819D01*
X112610590Y-115119819D02*
X112515352Y-115072200D01*
X112515352Y-115072200D02*
X112467733Y-114976961D01*
X112467733Y-114976961D02*
X112467733Y-114596009D01*
X112467733Y-114596009D02*
X112515352Y-114500771D01*
X112515352Y-114500771D02*
X112610590Y-114453152D01*
X112610590Y-114453152D02*
X112801066Y-114453152D01*
X112801066Y-114453152D02*
X112896304Y-114500771D01*
X112896304Y-114500771D02*
X112943923Y-114596009D01*
X112943923Y-114596009D02*
X112943923Y-114691247D01*
X112943923Y-114691247D02*
X112467733Y-114786485D01*
X113801066Y-115072200D02*
X113705828Y-115119819D01*
X113705828Y-115119819D02*
X113515352Y-115119819D01*
X113515352Y-115119819D02*
X113420114Y-115072200D01*
X113420114Y-115072200D02*
X113372495Y-115024580D01*
X113372495Y-115024580D02*
X113324876Y-114929342D01*
X113324876Y-114929342D02*
X113324876Y-114643628D01*
X113324876Y-114643628D02*
X113372495Y-114548390D01*
X113372495Y-114548390D02*
X113420114Y-114500771D01*
X113420114Y-114500771D02*
X113515352Y-114453152D01*
X113515352Y-114453152D02*
X113705828Y-114453152D01*
X113705828Y-114453152D02*
X113801066Y-114500771D01*
X114086781Y-114453152D02*
X114467733Y-114453152D01*
X114229638Y-114119819D02*
X114229638Y-114976961D01*
X114229638Y-114976961D02*
X114277257Y-115072200D01*
X114277257Y-115072200D02*
X114372495Y-115119819D01*
X114372495Y-115119819D02*
X114467733Y-115119819D01*
X114801067Y-115119819D02*
X114801067Y-114453152D01*
X114801067Y-114643628D02*
X114848686Y-114548390D01*
X114848686Y-114548390D02*
X114896305Y-114500771D01*
X114896305Y-114500771D02*
X114991543Y-114453152D01*
X114991543Y-114453152D02*
X115086781Y-114453152D01*
X115562972Y-115119819D02*
X115467734Y-115072200D01*
X115467734Y-115072200D02*
X115420115Y-115024580D01*
X115420115Y-115024580D02*
X115372496Y-114929342D01*
X115372496Y-114929342D02*
X115372496Y-114643628D01*
X115372496Y-114643628D02*
X115420115Y-114548390D01*
X115420115Y-114548390D02*
X115467734Y-114500771D01*
X115467734Y-114500771D02*
X115562972Y-114453152D01*
X115562972Y-114453152D02*
X115705829Y-114453152D01*
X115705829Y-114453152D02*
X115801067Y-114500771D01*
X115801067Y-114500771D02*
X115848686Y-114548390D01*
X115848686Y-114548390D02*
X115896305Y-114643628D01*
X115896305Y-114643628D02*
X115896305Y-114929342D01*
X115896305Y-114929342D02*
X115848686Y-115024580D01*
X115848686Y-115024580D02*
X115801067Y-115072200D01*
X115801067Y-115072200D02*
X115705829Y-115119819D01*
X115705829Y-115119819D02*
X115562972Y-115119819D01*
X116324877Y-115119819D02*
X116324877Y-114119819D01*
X116324877Y-114596009D02*
X116896305Y-114596009D01*
X116896305Y-115119819D02*
X116896305Y-114119819D01*
X117801067Y-114453152D02*
X117801067Y-115119819D01*
X117372496Y-114453152D02*
X117372496Y-114976961D01*
X117372496Y-114976961D02*
X117420115Y-115072200D01*
X117420115Y-115072200D02*
X117515353Y-115119819D01*
X117515353Y-115119819D02*
X117658210Y-115119819D01*
X117658210Y-115119819D02*
X117753448Y-115072200D01*
X117753448Y-115072200D02*
X117801067Y-115024580D01*
X118705829Y-114453152D02*
X118705829Y-115262676D01*
X118705829Y-115262676D02*
X118658210Y-115357914D01*
X118658210Y-115357914D02*
X118610591Y-115405533D01*
X118610591Y-115405533D02*
X118515353Y-115453152D01*
X118515353Y-115453152D02*
X118372496Y-115453152D01*
X118372496Y-115453152D02*
X118277258Y-115405533D01*
X118705829Y-115072200D02*
X118610591Y-115119819D01*
X118610591Y-115119819D02*
X118420115Y-115119819D01*
X118420115Y-115119819D02*
X118324877Y-115072200D01*
X118324877Y-115072200D02*
X118277258Y-115024580D01*
X118277258Y-115024580D02*
X118229639Y-114929342D01*
X118229639Y-114929342D02*
X118229639Y-114643628D01*
X118229639Y-114643628D02*
X118277258Y-114548390D01*
X118277258Y-114548390D02*
X118324877Y-114500771D01*
X118324877Y-114500771D02*
X118420115Y-114453152D01*
X118420115Y-114453152D02*
X118610591Y-114453152D01*
X118610591Y-114453152D02*
X118705829Y-114500771D01*
X119182020Y-115119819D02*
X119182020Y-114453152D01*
X119182020Y-114119819D02*
X119134401Y-114167438D01*
X119134401Y-114167438D02*
X119182020Y-114215057D01*
X119182020Y-114215057D02*
X119229639Y-114167438D01*
X119229639Y-114167438D02*
X119182020Y-114119819D01*
X119182020Y-114119819D02*
X119182020Y-114215057D01*
X119658210Y-114453152D02*
X119658210Y-115119819D01*
X119658210Y-114548390D02*
X119705829Y-114500771D01*
X119705829Y-114500771D02*
X119801067Y-114453152D01*
X119801067Y-114453152D02*
X119943924Y-114453152D01*
X119943924Y-114453152D02*
X120039162Y-114500771D01*
X120039162Y-114500771D02*
X120086781Y-114596009D01*
X120086781Y-114596009D02*
X120086781Y-115119819D01*
X164894307Y-110101701D02*
X164941926Y-109958844D01*
X164941926Y-109958844D02*
X164941926Y-109720749D01*
X164941926Y-109720749D02*
X164894307Y-109625511D01*
X164894307Y-109625511D02*
X164846687Y-109577892D01*
X164846687Y-109577892D02*
X164751449Y-109530273D01*
X164751449Y-109530273D02*
X164656211Y-109530273D01*
X164656211Y-109530273D02*
X164560973Y-109577892D01*
X164560973Y-109577892D02*
X164513354Y-109625511D01*
X164513354Y-109625511D02*
X164465735Y-109720749D01*
X164465735Y-109720749D02*
X164418116Y-109911225D01*
X164418116Y-109911225D02*
X164370497Y-110006463D01*
X164370497Y-110006463D02*
X164322878Y-110054082D01*
X164322878Y-110054082D02*
X164227640Y-110101701D01*
X164227640Y-110101701D02*
X164132402Y-110101701D01*
X164132402Y-110101701D02*
X164037164Y-110054082D01*
X164037164Y-110054082D02*
X163989545Y-110006463D01*
X163989545Y-110006463D02*
X163941926Y-109911225D01*
X163941926Y-109911225D02*
X163941926Y-109673130D01*
X163941926Y-109673130D02*
X163989545Y-109530273D01*
X164941926Y-109101701D02*
X163941926Y-109101701D01*
X163941926Y-109101701D02*
X163941926Y-108863606D01*
X163941926Y-108863606D02*
X163989545Y-108720749D01*
X163989545Y-108720749D02*
X164084783Y-108625511D01*
X164084783Y-108625511D02*
X164180021Y-108577892D01*
X164180021Y-108577892D02*
X164370497Y-108530273D01*
X164370497Y-108530273D02*
X164513354Y-108530273D01*
X164513354Y-108530273D02*
X164703830Y-108577892D01*
X164703830Y-108577892D02*
X164799068Y-108625511D01*
X164799068Y-108625511D02*
X164894307Y-108720749D01*
X164894307Y-108720749D02*
X164941926Y-108863606D01*
X164941926Y-108863606D02*
X164941926Y-109101701D01*
X164656211Y-108149320D02*
X164656211Y-107673130D01*
X164941926Y-108244558D02*
X163941926Y-107911225D01*
X163941926Y-107911225D02*
X164941926Y-107577892D01*
X190922453Y-75252087D02*
X190922453Y-75871134D01*
X190922453Y-75871134D02*
X190541501Y-75537801D01*
X190541501Y-75537801D02*
X190541501Y-75680658D01*
X190541501Y-75680658D02*
X190493882Y-75775896D01*
X190493882Y-75775896D02*
X190446263Y-75823515D01*
X190446263Y-75823515D02*
X190351025Y-75871134D01*
X190351025Y-75871134D02*
X190112930Y-75871134D01*
X190112930Y-75871134D02*
X190017692Y-75823515D01*
X190017692Y-75823515D02*
X189970073Y-75775896D01*
X189970073Y-75775896D02*
X189922453Y-75680658D01*
X189922453Y-75680658D02*
X189922453Y-75394944D01*
X189922453Y-75394944D02*
X189970073Y-75299706D01*
X189970073Y-75299706D02*
X190017692Y-75252087D01*
X190017692Y-76299706D02*
X189970073Y-76347325D01*
X189970073Y-76347325D02*
X189922453Y-76299706D01*
X189922453Y-76299706D02*
X189970073Y-76252087D01*
X189970073Y-76252087D02*
X190017692Y-76299706D01*
X190017692Y-76299706D02*
X189922453Y-76299706D01*
X190922453Y-76680658D02*
X190922453Y-77299705D01*
X190922453Y-77299705D02*
X190541501Y-76966372D01*
X190541501Y-76966372D02*
X190541501Y-77109229D01*
X190541501Y-77109229D02*
X190493882Y-77204467D01*
X190493882Y-77204467D02*
X190446263Y-77252086D01*
X190446263Y-77252086D02*
X190351025Y-77299705D01*
X190351025Y-77299705D02*
X190112930Y-77299705D01*
X190112930Y-77299705D02*
X190017692Y-77252086D01*
X190017692Y-77252086D02*
X189970073Y-77204467D01*
X189970073Y-77204467D02*
X189922453Y-77109229D01*
X189922453Y-77109229D02*
X189922453Y-76823515D01*
X189922453Y-76823515D02*
X189970073Y-76728277D01*
X189970073Y-76728277D02*
X190017692Y-76680658D01*
X190922453Y-77585420D02*
X189922453Y-77918753D01*
X189922453Y-77918753D02*
X190922453Y-78252086D01*
X199947200Y-110494933D02*
X199947200Y-109875886D01*
X199947200Y-109875886D02*
X200328152Y-110209219D01*
X200328152Y-110209219D02*
X200328152Y-110066362D01*
X200328152Y-110066362D02*
X200375771Y-109971124D01*
X200375771Y-109971124D02*
X200423390Y-109923505D01*
X200423390Y-109923505D02*
X200518628Y-109875886D01*
X200518628Y-109875886D02*
X200756723Y-109875886D01*
X200756723Y-109875886D02*
X200851961Y-109923505D01*
X200851961Y-109923505D02*
X200899581Y-109971124D01*
X200899581Y-109971124D02*
X200947200Y-110066362D01*
X200947200Y-110066362D02*
X200947200Y-110352076D01*
X200947200Y-110352076D02*
X200899581Y-110447314D01*
X200899581Y-110447314D02*
X200851961Y-110494933D01*
X200851961Y-109447314D02*
X200899581Y-109399695D01*
X200899581Y-109399695D02*
X200947200Y-109447314D01*
X200947200Y-109447314D02*
X200899581Y-109494933D01*
X200899581Y-109494933D02*
X200851961Y-109447314D01*
X200851961Y-109447314D02*
X200947200Y-109447314D01*
X199947200Y-109066362D02*
X199947200Y-108447315D01*
X199947200Y-108447315D02*
X200328152Y-108780648D01*
X200328152Y-108780648D02*
X200328152Y-108637791D01*
X200328152Y-108637791D02*
X200375771Y-108542553D01*
X200375771Y-108542553D02*
X200423390Y-108494934D01*
X200423390Y-108494934D02*
X200518628Y-108447315D01*
X200518628Y-108447315D02*
X200756723Y-108447315D01*
X200756723Y-108447315D02*
X200851961Y-108494934D01*
X200851961Y-108494934D02*
X200899581Y-108542553D01*
X200899581Y-108542553D02*
X200947200Y-108637791D01*
X200947200Y-108637791D02*
X200947200Y-108923505D01*
X200947200Y-108923505D02*
X200899581Y-109018743D01*
X200899581Y-109018743D02*
X200851961Y-109066362D01*
X199947200Y-108161600D02*
X200947200Y-107828267D01*
X200947200Y-107828267D02*
X199947200Y-107494934D01*
X104790345Y-99191552D02*
X104837964Y-99096314D01*
X104837964Y-99096314D02*
X104837964Y-98953457D01*
X104837964Y-98953457D02*
X104790345Y-98810600D01*
X104790345Y-98810600D02*
X104695107Y-98715362D01*
X104695107Y-98715362D02*
X104599869Y-98667743D01*
X104599869Y-98667743D02*
X104409393Y-98620124D01*
X104409393Y-98620124D02*
X104266536Y-98620124D01*
X104266536Y-98620124D02*
X104076060Y-98667743D01*
X104076060Y-98667743D02*
X103980822Y-98715362D01*
X103980822Y-98715362D02*
X103885584Y-98810600D01*
X103885584Y-98810600D02*
X103837964Y-98953457D01*
X103837964Y-98953457D02*
X103837964Y-99048695D01*
X103837964Y-99048695D02*
X103885584Y-99191552D01*
X103885584Y-99191552D02*
X103933203Y-99239171D01*
X103933203Y-99239171D02*
X104266536Y-99239171D01*
X104266536Y-99239171D02*
X104266536Y-99048695D01*
X103837964Y-99667743D02*
X104837964Y-99667743D01*
X104837964Y-99667743D02*
X103837964Y-100239171D01*
X103837964Y-100239171D02*
X104837964Y-100239171D01*
X103837964Y-100715362D02*
X104837964Y-100715362D01*
X104837964Y-100715362D02*
X104837964Y-100953457D01*
X104837964Y-100953457D02*
X104790345Y-101096314D01*
X104790345Y-101096314D02*
X104695107Y-101191552D01*
X104695107Y-101191552D02*
X104599869Y-101239171D01*
X104599869Y-101239171D02*
X104409393Y-101286790D01*
X104409393Y-101286790D02*
X104266536Y-101286790D01*
X104266536Y-101286790D02*
X104076060Y-101239171D01*
X104076060Y-101239171D02*
X103980822Y-101191552D01*
X103980822Y-101191552D02*
X103885584Y-101096314D01*
X103885584Y-101096314D02*
X103837964Y-100953457D01*
X103837964Y-100953457D02*
X103837964Y-100715362D01*
X130364749Y-76855717D02*
X130364749Y-75855717D01*
X130364749Y-75855717D02*
X130745701Y-75855717D01*
X130745701Y-75855717D02*
X130840939Y-75903336D01*
X130840939Y-75903336D02*
X130888558Y-75950955D01*
X130888558Y-75950955D02*
X130936177Y-76046193D01*
X130936177Y-76046193D02*
X130936177Y-76189050D01*
X130936177Y-76189050D02*
X130888558Y-76284288D01*
X130888558Y-76284288D02*
X130840939Y-76331907D01*
X130840939Y-76331907D02*
X130745701Y-76379526D01*
X130745701Y-76379526D02*
X130364749Y-76379526D01*
X131269511Y-75855717D02*
X131507606Y-76855717D01*
X131507606Y-76855717D02*
X131698082Y-76141431D01*
X131698082Y-76141431D02*
X131888558Y-76855717D01*
X131888558Y-76855717D02*
X132126654Y-75855717D01*
X132507606Y-76855717D02*
X132507606Y-75855717D01*
X132507606Y-75855717D02*
X132840939Y-76570002D01*
X132840939Y-76570002D02*
X133174272Y-75855717D01*
X133174272Y-75855717D02*
X133174272Y-76855717D01*
X133412368Y-76950955D02*
X134174272Y-76950955D01*
X134364749Y-76570002D02*
X134840939Y-76570002D01*
X134269511Y-76855717D02*
X134602844Y-75855717D01*
X134602844Y-75855717D02*
X134936177Y-76855717D01*
X156523078Y-109223900D02*
X156475459Y-109319138D01*
X156475459Y-109319138D02*
X156475459Y-109461995D01*
X156475459Y-109461995D02*
X156523078Y-109604852D01*
X156523078Y-109604852D02*
X156618316Y-109700090D01*
X156618316Y-109700090D02*
X156713554Y-109747709D01*
X156713554Y-109747709D02*
X156904030Y-109795328D01*
X156904030Y-109795328D02*
X157046887Y-109795328D01*
X157046887Y-109795328D02*
X157237363Y-109747709D01*
X157237363Y-109747709D02*
X157332601Y-109700090D01*
X157332601Y-109700090D02*
X157427840Y-109604852D01*
X157427840Y-109604852D02*
X157475459Y-109461995D01*
X157475459Y-109461995D02*
X157475459Y-109366757D01*
X157475459Y-109366757D02*
X157427840Y-109223900D01*
X157427840Y-109223900D02*
X157380220Y-109176281D01*
X157380220Y-109176281D02*
X157046887Y-109176281D01*
X157046887Y-109176281D02*
X157046887Y-109366757D01*
X157475459Y-108747709D02*
X156475459Y-108747709D01*
X156475459Y-108747709D02*
X157475459Y-108176281D01*
X157475459Y-108176281D02*
X156475459Y-108176281D01*
X157475459Y-107700090D02*
X156475459Y-107700090D01*
X156475459Y-107700090D02*
X156475459Y-107461995D01*
X156475459Y-107461995D02*
X156523078Y-107319138D01*
X156523078Y-107319138D02*
X156618316Y-107223900D01*
X156618316Y-107223900D02*
X156713554Y-107176281D01*
X156713554Y-107176281D02*
X156904030Y-107128662D01*
X156904030Y-107128662D02*
X157046887Y-107128662D01*
X157046887Y-107128662D02*
X157237363Y-107176281D01*
X157237363Y-107176281D02*
X157332601Y-107223900D01*
X157332601Y-107223900D02*
X157427840Y-107319138D01*
X157427840Y-107319138D02*
X157475459Y-107461995D01*
X157475459Y-107461995D02*
X157475459Y-107700090D01*
X138509815Y-77288277D02*
X138509815Y-76812087D01*
X138795530Y-77383515D02*
X137795530Y-77050182D01*
X137795530Y-77050182D02*
X138795530Y-76716849D01*
X137890768Y-76431134D02*
X137843149Y-76383515D01*
X137843149Y-76383515D02*
X137795530Y-76288277D01*
X137795530Y-76288277D02*
X137795530Y-76050182D01*
X137795530Y-76050182D02*
X137843149Y-75954944D01*
X137843149Y-75954944D02*
X137890768Y-75907325D01*
X137890768Y-75907325D02*
X137986006Y-75859706D01*
X137986006Y-75859706D02*
X138081244Y-75859706D01*
X138081244Y-75859706D02*
X138224101Y-75907325D01*
X138224101Y-75907325D02*
X138795530Y-76478753D01*
X138795530Y-76478753D02*
X138795530Y-75859706D01*
X202586779Y-89119819D02*
X202586779Y-88119819D01*
X203253445Y-88119819D02*
X203443921Y-88119819D01*
X203443921Y-88119819D02*
X203539159Y-88167438D01*
X203539159Y-88167438D02*
X203634397Y-88262676D01*
X203634397Y-88262676D02*
X203682016Y-88453152D01*
X203682016Y-88453152D02*
X203682016Y-88786485D01*
X203682016Y-88786485D02*
X203634397Y-88976961D01*
X203634397Y-88976961D02*
X203539159Y-89072200D01*
X203539159Y-89072200D02*
X203443921Y-89119819D01*
X203443921Y-89119819D02*
X203253445Y-89119819D01*
X203253445Y-89119819D02*
X203158207Y-89072200D01*
X203158207Y-89072200D02*
X203062969Y-88976961D01*
X203062969Y-88976961D02*
X203015350Y-88786485D01*
X203015350Y-88786485D02*
X203015350Y-88453152D01*
X203015350Y-88453152D02*
X203062969Y-88262676D01*
X203062969Y-88262676D02*
X203158207Y-88167438D01*
X203158207Y-88167438D02*
X203253445Y-88119819D01*
X204539159Y-88453152D02*
X204539159Y-89119819D01*
X204301064Y-88072200D02*
X204062969Y-88786485D01*
X204062969Y-88786485D02*
X204682016Y-88786485D01*
X204967731Y-88119819D02*
X205634397Y-88119819D01*
X205634397Y-88119819D02*
X205205826Y-89119819D01*
X173494761Y-109294403D02*
X173447142Y-109389641D01*
X173447142Y-109389641D02*
X173447142Y-109532498D01*
X173447142Y-109532498D02*
X173494761Y-109675355D01*
X173494761Y-109675355D02*
X173589999Y-109770593D01*
X173589999Y-109770593D02*
X173685237Y-109818212D01*
X173685237Y-109818212D02*
X173875713Y-109865831D01*
X173875713Y-109865831D02*
X174018570Y-109865831D01*
X174018570Y-109865831D02*
X174209046Y-109818212D01*
X174209046Y-109818212D02*
X174304284Y-109770593D01*
X174304284Y-109770593D02*
X174399523Y-109675355D01*
X174399523Y-109675355D02*
X174447142Y-109532498D01*
X174447142Y-109532498D02*
X174447142Y-109437260D01*
X174447142Y-109437260D02*
X174399523Y-109294403D01*
X174399523Y-109294403D02*
X174351903Y-109246784D01*
X174351903Y-109246784D02*
X174018570Y-109246784D01*
X174018570Y-109246784D02*
X174018570Y-109437260D01*
X174447142Y-108818212D02*
X173447142Y-108818212D01*
X173447142Y-108818212D02*
X174447142Y-108246784D01*
X174447142Y-108246784D02*
X173447142Y-108246784D01*
X174447142Y-107770593D02*
X173447142Y-107770593D01*
X173447142Y-107770593D02*
X173447142Y-107532498D01*
X173447142Y-107532498D02*
X173494761Y-107389641D01*
X173494761Y-107389641D02*
X173589999Y-107294403D01*
X173589999Y-107294403D02*
X173685237Y-107246784D01*
X173685237Y-107246784D02*
X173875713Y-107199165D01*
X173875713Y-107199165D02*
X174018570Y-107199165D01*
X174018570Y-107199165D02*
X174209046Y-107246784D01*
X174209046Y-107246784D02*
X174304284Y-107294403D01*
X174304284Y-107294403D02*
X174399523Y-107389641D01*
X174399523Y-107389641D02*
X174447142Y-107532498D01*
X174447142Y-107532498D02*
X174447142Y-107770593D01*
X195822200Y-110200839D02*
X195869819Y-110057982D01*
X195869819Y-110057982D02*
X195869819Y-109819887D01*
X195869819Y-109819887D02*
X195822200Y-109724649D01*
X195822200Y-109724649D02*
X195774580Y-109677030D01*
X195774580Y-109677030D02*
X195679342Y-109629411D01*
X195679342Y-109629411D02*
X195584104Y-109629411D01*
X195584104Y-109629411D02*
X195488866Y-109677030D01*
X195488866Y-109677030D02*
X195441247Y-109724649D01*
X195441247Y-109724649D02*
X195393628Y-109819887D01*
X195393628Y-109819887D02*
X195346009Y-110010363D01*
X195346009Y-110010363D02*
X195298390Y-110105601D01*
X195298390Y-110105601D02*
X195250771Y-110153220D01*
X195250771Y-110153220D02*
X195155533Y-110200839D01*
X195155533Y-110200839D02*
X195060295Y-110200839D01*
X195060295Y-110200839D02*
X194965057Y-110153220D01*
X194965057Y-110153220D02*
X194917438Y-110105601D01*
X194917438Y-110105601D02*
X194869819Y-110010363D01*
X194869819Y-110010363D02*
X194869819Y-109772268D01*
X194869819Y-109772268D02*
X194917438Y-109629411D01*
X195774580Y-108629411D02*
X195822200Y-108677030D01*
X195822200Y-108677030D02*
X195869819Y-108819887D01*
X195869819Y-108819887D02*
X195869819Y-108915125D01*
X195869819Y-108915125D02*
X195822200Y-109057982D01*
X195822200Y-109057982D02*
X195726961Y-109153220D01*
X195726961Y-109153220D02*
X195631723Y-109200839D01*
X195631723Y-109200839D02*
X195441247Y-109248458D01*
X195441247Y-109248458D02*
X195298390Y-109248458D01*
X195298390Y-109248458D02*
X195107914Y-109200839D01*
X195107914Y-109200839D02*
X195012676Y-109153220D01*
X195012676Y-109153220D02*
X194917438Y-109057982D01*
X194917438Y-109057982D02*
X194869819Y-108915125D01*
X194869819Y-108915125D02*
X194869819Y-108819887D01*
X194869819Y-108819887D02*
X194917438Y-108677030D01*
X194917438Y-108677030D02*
X194965057Y-108629411D01*
X195869819Y-107724649D02*
X195869819Y-108200839D01*
X195869819Y-108200839D02*
X194869819Y-108200839D01*
X203289160Y-86572200D02*
X203432017Y-86619819D01*
X203432017Y-86619819D02*
X203670112Y-86619819D01*
X203670112Y-86619819D02*
X203765350Y-86572200D01*
X203765350Y-86572200D02*
X203812969Y-86524580D01*
X203812969Y-86524580D02*
X203860588Y-86429342D01*
X203860588Y-86429342D02*
X203860588Y-86334104D01*
X203860588Y-86334104D02*
X203812969Y-86238866D01*
X203812969Y-86238866D02*
X203765350Y-86191247D01*
X203765350Y-86191247D02*
X203670112Y-86143628D01*
X203670112Y-86143628D02*
X203479636Y-86096009D01*
X203479636Y-86096009D02*
X203384398Y-86048390D01*
X203384398Y-86048390D02*
X203336779Y-86000771D01*
X203336779Y-86000771D02*
X203289160Y-85905533D01*
X203289160Y-85905533D02*
X203289160Y-85810295D01*
X203289160Y-85810295D02*
X203336779Y-85715057D01*
X203336779Y-85715057D02*
X203384398Y-85667438D01*
X203384398Y-85667438D02*
X203479636Y-85619819D01*
X203479636Y-85619819D02*
X203717731Y-85619819D01*
X203717731Y-85619819D02*
X203860588Y-85667438D01*
X204860588Y-86524580D02*
X204812969Y-86572200D01*
X204812969Y-86572200D02*
X204670112Y-86619819D01*
X204670112Y-86619819D02*
X204574874Y-86619819D01*
X204574874Y-86619819D02*
X204432017Y-86572200D01*
X204432017Y-86572200D02*
X204336779Y-86476961D01*
X204336779Y-86476961D02*
X204289160Y-86381723D01*
X204289160Y-86381723D02*
X204241541Y-86191247D01*
X204241541Y-86191247D02*
X204241541Y-86048390D01*
X204241541Y-86048390D02*
X204289160Y-85857914D01*
X204289160Y-85857914D02*
X204336779Y-85762676D01*
X204336779Y-85762676D02*
X204432017Y-85667438D01*
X204432017Y-85667438D02*
X204574874Y-85619819D01*
X204574874Y-85619819D02*
X204670112Y-85619819D01*
X204670112Y-85619819D02*
X204812969Y-85667438D01*
X204812969Y-85667438D02*
X204860588Y-85715057D01*
X205765350Y-86619819D02*
X205289160Y-86619819D01*
X205289160Y-86619819D02*
X205289160Y-85619819D01*
X195047454Y-75546181D02*
X194999834Y-75689038D01*
X194999834Y-75689038D02*
X194999834Y-75927133D01*
X194999834Y-75927133D02*
X195047454Y-76022371D01*
X195047454Y-76022371D02*
X195095073Y-76069990D01*
X195095073Y-76069990D02*
X195190311Y-76117609D01*
X195190311Y-76117609D02*
X195285549Y-76117609D01*
X195285549Y-76117609D02*
X195380787Y-76069990D01*
X195380787Y-76069990D02*
X195428406Y-76022371D01*
X195428406Y-76022371D02*
X195476025Y-75927133D01*
X195476025Y-75927133D02*
X195523644Y-75736657D01*
X195523644Y-75736657D02*
X195571263Y-75641419D01*
X195571263Y-75641419D02*
X195618882Y-75593800D01*
X195618882Y-75593800D02*
X195714120Y-75546181D01*
X195714120Y-75546181D02*
X195809358Y-75546181D01*
X195809358Y-75546181D02*
X195904596Y-75593800D01*
X195904596Y-75593800D02*
X195952215Y-75641419D01*
X195952215Y-75641419D02*
X195999834Y-75736657D01*
X195999834Y-75736657D02*
X195999834Y-75974752D01*
X195999834Y-75974752D02*
X195952215Y-76117609D01*
X195095073Y-77117609D02*
X195047454Y-77069990D01*
X195047454Y-77069990D02*
X194999834Y-76927133D01*
X194999834Y-76927133D02*
X194999834Y-76831895D01*
X194999834Y-76831895D02*
X195047454Y-76689038D01*
X195047454Y-76689038D02*
X195142692Y-76593800D01*
X195142692Y-76593800D02*
X195237930Y-76546181D01*
X195237930Y-76546181D02*
X195428406Y-76498562D01*
X195428406Y-76498562D02*
X195571263Y-76498562D01*
X195571263Y-76498562D02*
X195761739Y-76546181D01*
X195761739Y-76546181D02*
X195856977Y-76593800D01*
X195856977Y-76593800D02*
X195952215Y-76689038D01*
X195952215Y-76689038D02*
X195999834Y-76831895D01*
X195999834Y-76831895D02*
X195999834Y-76927133D01*
X195999834Y-76927133D02*
X195952215Y-77069990D01*
X195952215Y-77069990D02*
X195904596Y-77117609D01*
X194999834Y-78022371D02*
X194999834Y-77546181D01*
X194999834Y-77546181D02*
X195999834Y-77546181D01*
X113333340Y-76880365D02*
X113333340Y-75880365D01*
X113333340Y-75880365D02*
X113714292Y-75880365D01*
X113714292Y-75880365D02*
X113809530Y-75927984D01*
X113809530Y-75927984D02*
X113857149Y-75975603D01*
X113857149Y-75975603D02*
X113904768Y-76070841D01*
X113904768Y-76070841D02*
X113904768Y-76213698D01*
X113904768Y-76213698D02*
X113857149Y-76308936D01*
X113857149Y-76308936D02*
X113809530Y-76356555D01*
X113809530Y-76356555D02*
X113714292Y-76404174D01*
X113714292Y-76404174D02*
X113333340Y-76404174D01*
X114238102Y-75880365D02*
X114476197Y-76880365D01*
X114476197Y-76880365D02*
X114666673Y-76166079D01*
X114666673Y-76166079D02*
X114857149Y-76880365D01*
X114857149Y-76880365D02*
X115095245Y-75880365D01*
X115476197Y-76880365D02*
X115476197Y-75880365D01*
X115476197Y-75880365D02*
X115809530Y-76594650D01*
X115809530Y-76594650D02*
X116142863Y-75880365D01*
X116142863Y-75880365D02*
X116142863Y-76880365D01*
X116380959Y-76975603D02*
X117142863Y-76975603D01*
X117714292Y-76356555D02*
X117857149Y-76404174D01*
X117857149Y-76404174D02*
X117904768Y-76451793D01*
X117904768Y-76451793D02*
X117952387Y-76547031D01*
X117952387Y-76547031D02*
X117952387Y-76689888D01*
X117952387Y-76689888D02*
X117904768Y-76785126D01*
X117904768Y-76785126D02*
X117857149Y-76832746D01*
X117857149Y-76832746D02*
X117761911Y-76880365D01*
X117761911Y-76880365D02*
X117380959Y-76880365D01*
X117380959Y-76880365D02*
X117380959Y-75880365D01*
X117380959Y-75880365D02*
X117714292Y-75880365D01*
X117714292Y-75880365D02*
X117809530Y-75927984D01*
X117809530Y-75927984D02*
X117857149Y-75975603D01*
X117857149Y-75975603D02*
X117904768Y-76070841D01*
X117904768Y-76070841D02*
X117904768Y-76166079D01*
X117904768Y-76166079D02*
X117857149Y-76261317D01*
X117857149Y-76261317D02*
X117809530Y-76308936D01*
X117809530Y-76308936D02*
X117714292Y-76356555D01*
X117714292Y-76356555D02*
X117380959Y-76356555D01*
X110069974Y-74159723D02*
X110069974Y-73397819D01*
X110450927Y-73778771D02*
X109689022Y-73778771D01*
X110450927Y-72397819D02*
X110450927Y-72969247D01*
X110450927Y-72683533D02*
X109450927Y-72683533D01*
X109450927Y-72683533D02*
X109593784Y-72778771D01*
X109593784Y-72778771D02*
X109689022Y-72874009D01*
X109689022Y-72874009D02*
X109736641Y-72969247D01*
X109546165Y-72016866D02*
X109498546Y-71969247D01*
X109498546Y-71969247D02*
X109450927Y-71874009D01*
X109450927Y-71874009D02*
X109450927Y-71635914D01*
X109450927Y-71635914D02*
X109498546Y-71540676D01*
X109498546Y-71540676D02*
X109546165Y-71493057D01*
X109546165Y-71493057D02*
X109641403Y-71445438D01*
X109641403Y-71445438D02*
X109736641Y-71445438D01*
X109736641Y-71445438D02*
X109879498Y-71493057D01*
X109879498Y-71493057D02*
X110450927Y-72064485D01*
X110450927Y-72064485D02*
X110450927Y-71445438D01*
X109450927Y-71159723D02*
X110450927Y-70826390D01*
X110450927Y-70826390D02*
X109450927Y-70493057D01*
X183655214Y-110230285D02*
X183655214Y-109611238D01*
X183655214Y-109611238D02*
X184036166Y-109944571D01*
X184036166Y-109944571D02*
X184036166Y-109801714D01*
X184036166Y-109801714D02*
X184083785Y-109706476D01*
X184083785Y-109706476D02*
X184131404Y-109658857D01*
X184131404Y-109658857D02*
X184226642Y-109611238D01*
X184226642Y-109611238D02*
X184464737Y-109611238D01*
X184464737Y-109611238D02*
X184559975Y-109658857D01*
X184559975Y-109658857D02*
X184607595Y-109706476D01*
X184607595Y-109706476D02*
X184655214Y-109801714D01*
X184655214Y-109801714D02*
X184655214Y-110087428D01*
X184655214Y-110087428D02*
X184607595Y-110182666D01*
X184607595Y-110182666D02*
X184559975Y-110230285D01*
X184559975Y-109182666D02*
X184607595Y-109135047D01*
X184607595Y-109135047D02*
X184655214Y-109182666D01*
X184655214Y-109182666D02*
X184607595Y-109230285D01*
X184607595Y-109230285D02*
X184559975Y-109182666D01*
X184559975Y-109182666D02*
X184655214Y-109182666D01*
X183655214Y-108801714D02*
X183655214Y-108182667D01*
X183655214Y-108182667D02*
X184036166Y-108516000D01*
X184036166Y-108516000D02*
X184036166Y-108373143D01*
X184036166Y-108373143D02*
X184083785Y-108277905D01*
X184083785Y-108277905D02*
X184131404Y-108230286D01*
X184131404Y-108230286D02*
X184226642Y-108182667D01*
X184226642Y-108182667D02*
X184464737Y-108182667D01*
X184464737Y-108182667D02*
X184559975Y-108230286D01*
X184559975Y-108230286D02*
X184607595Y-108277905D01*
X184607595Y-108277905D02*
X184655214Y-108373143D01*
X184655214Y-108373143D02*
X184655214Y-108658857D01*
X184655214Y-108658857D02*
X184607595Y-108754095D01*
X184607595Y-108754095D02*
X184559975Y-108801714D01*
X183655214Y-107896952D02*
X184655214Y-107563619D01*
X184655214Y-107563619D02*
X183655214Y-107230286D01*
X134272934Y-115032051D02*
X134225315Y-115127289D01*
X134225315Y-115127289D02*
X134225315Y-115270146D01*
X134225315Y-115270146D02*
X134272934Y-115413003D01*
X134272934Y-115413003D02*
X134368172Y-115508241D01*
X134368172Y-115508241D02*
X134463410Y-115555860D01*
X134463410Y-115555860D02*
X134653886Y-115603479D01*
X134653886Y-115603479D02*
X134796743Y-115603479D01*
X134796743Y-115603479D02*
X134987219Y-115555860D01*
X134987219Y-115555860D02*
X135082457Y-115508241D01*
X135082457Y-115508241D02*
X135177696Y-115413003D01*
X135177696Y-115413003D02*
X135225315Y-115270146D01*
X135225315Y-115270146D02*
X135225315Y-115174908D01*
X135225315Y-115174908D02*
X135177696Y-115032051D01*
X135177696Y-115032051D02*
X135130076Y-114984432D01*
X135130076Y-114984432D02*
X134796743Y-114984432D01*
X134796743Y-114984432D02*
X134796743Y-115174908D01*
X135225315Y-114555860D02*
X134558648Y-114555860D01*
X134749124Y-114555860D02*
X134653886Y-114508241D01*
X134653886Y-114508241D02*
X134606267Y-114460622D01*
X134606267Y-114460622D02*
X134558648Y-114365384D01*
X134558648Y-114365384D02*
X134558648Y-114270146D01*
X134558648Y-113508241D02*
X135225315Y-113508241D01*
X134558648Y-113936812D02*
X135082457Y-113936812D01*
X135082457Y-113936812D02*
X135177696Y-113889193D01*
X135177696Y-113889193D02*
X135225315Y-113793955D01*
X135225315Y-113793955D02*
X135225315Y-113651098D01*
X135225315Y-113651098D02*
X135177696Y-113555860D01*
X135177696Y-113555860D02*
X135130076Y-113508241D01*
X135177696Y-112651098D02*
X135225315Y-112746336D01*
X135225315Y-112746336D02*
X135225315Y-112936812D01*
X135225315Y-112936812D02*
X135177696Y-113032050D01*
X135177696Y-113032050D02*
X135082457Y-113079669D01*
X135082457Y-113079669D02*
X134701505Y-113079669D01*
X134701505Y-113079669D02*
X134606267Y-113032050D01*
X134606267Y-113032050D02*
X134558648Y-112936812D01*
X134558648Y-112936812D02*
X134558648Y-112746336D01*
X134558648Y-112746336D02*
X134606267Y-112651098D01*
X134606267Y-112651098D02*
X134701505Y-112603479D01*
X134701505Y-112603479D02*
X134796743Y-112603479D01*
X134796743Y-112603479D02*
X134891981Y-113079669D01*
X134558648Y-112174907D02*
X135225315Y-112174907D01*
X134653886Y-112174907D02*
X134606267Y-112127288D01*
X134606267Y-112127288D02*
X134558648Y-112032050D01*
X134558648Y-112032050D02*
X134558648Y-111889193D01*
X134558648Y-111889193D02*
X134606267Y-111793955D01*
X134606267Y-111793955D02*
X134701505Y-111746336D01*
X134701505Y-111746336D02*
X135225315Y-111746336D01*
X203039160Y-83822200D02*
X203182017Y-83869819D01*
X203182017Y-83869819D02*
X203420112Y-83869819D01*
X203420112Y-83869819D02*
X203515350Y-83822200D01*
X203515350Y-83822200D02*
X203562969Y-83774580D01*
X203562969Y-83774580D02*
X203610588Y-83679342D01*
X203610588Y-83679342D02*
X203610588Y-83584104D01*
X203610588Y-83584104D02*
X203562969Y-83488866D01*
X203562969Y-83488866D02*
X203515350Y-83441247D01*
X203515350Y-83441247D02*
X203420112Y-83393628D01*
X203420112Y-83393628D02*
X203229636Y-83346009D01*
X203229636Y-83346009D02*
X203134398Y-83298390D01*
X203134398Y-83298390D02*
X203086779Y-83250771D01*
X203086779Y-83250771D02*
X203039160Y-83155533D01*
X203039160Y-83155533D02*
X203039160Y-83060295D01*
X203039160Y-83060295D02*
X203086779Y-82965057D01*
X203086779Y-82965057D02*
X203134398Y-82917438D01*
X203134398Y-82917438D02*
X203229636Y-82869819D01*
X203229636Y-82869819D02*
X203467731Y-82869819D01*
X203467731Y-82869819D02*
X203610588Y-82917438D01*
X204039160Y-83869819D02*
X204039160Y-82869819D01*
X204039160Y-82869819D02*
X204277255Y-82869819D01*
X204277255Y-82869819D02*
X204420112Y-82917438D01*
X204420112Y-82917438D02*
X204515350Y-83012676D01*
X204515350Y-83012676D02*
X204562969Y-83107914D01*
X204562969Y-83107914D02*
X204610588Y-83298390D01*
X204610588Y-83298390D02*
X204610588Y-83441247D01*
X204610588Y-83441247D02*
X204562969Y-83631723D01*
X204562969Y-83631723D02*
X204515350Y-83726961D01*
X204515350Y-83726961D02*
X204420112Y-83822200D01*
X204420112Y-83822200D02*
X204277255Y-83869819D01*
X204277255Y-83869819D02*
X204039160Y-83869819D01*
X204991541Y-83584104D02*
X205467731Y-83584104D01*
X204896303Y-83869819D02*
X205229636Y-82869819D01*
X205229636Y-82869819D02*
X205562969Y-83869819D01*
X197587820Y-75717037D02*
X198587820Y-75717037D01*
X198587820Y-76383703D02*
X198587820Y-76574179D01*
X198587820Y-76574179D02*
X198540201Y-76669417D01*
X198540201Y-76669417D02*
X198444963Y-76764655D01*
X198444963Y-76764655D02*
X198254487Y-76812274D01*
X198254487Y-76812274D02*
X197921154Y-76812274D01*
X197921154Y-76812274D02*
X197730678Y-76764655D01*
X197730678Y-76764655D02*
X197635440Y-76669417D01*
X197635440Y-76669417D02*
X197587820Y-76574179D01*
X197587820Y-76574179D02*
X197587820Y-76383703D01*
X197587820Y-76383703D02*
X197635440Y-76288465D01*
X197635440Y-76288465D02*
X197730678Y-76193227D01*
X197730678Y-76193227D02*
X197921154Y-76145608D01*
X197921154Y-76145608D02*
X198254487Y-76145608D01*
X198254487Y-76145608D02*
X198444963Y-76193227D01*
X198444963Y-76193227D02*
X198540201Y-76288465D01*
X198540201Y-76288465D02*
X198587820Y-76383703D01*
X198254487Y-77669417D02*
X197587820Y-77669417D01*
X198635440Y-77431322D02*
X197921154Y-77193227D01*
X197921154Y-77193227D02*
X197921154Y-77812274D01*
X198159249Y-78336084D02*
X198206868Y-78240846D01*
X198206868Y-78240846D02*
X198254487Y-78193227D01*
X198254487Y-78193227D02*
X198349725Y-78145608D01*
X198349725Y-78145608D02*
X198397344Y-78145608D01*
X198397344Y-78145608D02*
X198492582Y-78193227D01*
X198492582Y-78193227D02*
X198540201Y-78240846D01*
X198540201Y-78240846D02*
X198587820Y-78336084D01*
X198587820Y-78336084D02*
X198587820Y-78526560D01*
X198587820Y-78526560D02*
X198540201Y-78621798D01*
X198540201Y-78621798D02*
X198492582Y-78669417D01*
X198492582Y-78669417D02*
X198397344Y-78717036D01*
X198397344Y-78717036D02*
X198349725Y-78717036D01*
X198349725Y-78717036D02*
X198254487Y-78669417D01*
X198254487Y-78669417D02*
X198206868Y-78621798D01*
X198206868Y-78621798D02*
X198159249Y-78526560D01*
X198159249Y-78526560D02*
X198159249Y-78336084D01*
X198159249Y-78336084D02*
X198111630Y-78240846D01*
X198111630Y-78240846D02*
X198064011Y-78193227D01*
X198064011Y-78193227D02*
X197968773Y-78145608D01*
X197968773Y-78145608D02*
X197778297Y-78145608D01*
X197778297Y-78145608D02*
X197683059Y-78193227D01*
X197683059Y-78193227D02*
X197635440Y-78240846D01*
X197635440Y-78240846D02*
X197587820Y-78336084D01*
X197587820Y-78336084D02*
X197587820Y-78526560D01*
X197587820Y-78526560D02*
X197635440Y-78621798D01*
X197635440Y-78621798D02*
X197683059Y-78669417D01*
X197683059Y-78669417D02*
X197778297Y-78717036D01*
X197778297Y-78717036D02*
X197968773Y-78717036D01*
X197968773Y-78717036D02*
X198064011Y-78669417D01*
X198064011Y-78669417D02*
X198111630Y-78621798D01*
X198111630Y-78621798D02*
X198159249Y-78526560D01*
X198360890Y-110373371D02*
X198408509Y-110230514D01*
X198408509Y-110230514D02*
X198408509Y-109992419D01*
X198408509Y-109992419D02*
X198360890Y-109897181D01*
X198360890Y-109897181D02*
X198313270Y-109849562D01*
X198313270Y-109849562D02*
X198218032Y-109801943D01*
X198218032Y-109801943D02*
X198122794Y-109801943D01*
X198122794Y-109801943D02*
X198027556Y-109849562D01*
X198027556Y-109849562D02*
X197979937Y-109897181D01*
X197979937Y-109897181D02*
X197932318Y-109992419D01*
X197932318Y-109992419D02*
X197884699Y-110182895D01*
X197884699Y-110182895D02*
X197837080Y-110278133D01*
X197837080Y-110278133D02*
X197789461Y-110325752D01*
X197789461Y-110325752D02*
X197694223Y-110373371D01*
X197694223Y-110373371D02*
X197598985Y-110373371D01*
X197598985Y-110373371D02*
X197503747Y-110325752D01*
X197503747Y-110325752D02*
X197456128Y-110278133D01*
X197456128Y-110278133D02*
X197408509Y-110182895D01*
X197408509Y-110182895D02*
X197408509Y-109944800D01*
X197408509Y-109944800D02*
X197456128Y-109801943D01*
X198408509Y-109373371D02*
X197408509Y-109373371D01*
X197408509Y-109373371D02*
X197408509Y-109135276D01*
X197408509Y-109135276D02*
X197456128Y-108992419D01*
X197456128Y-108992419D02*
X197551366Y-108897181D01*
X197551366Y-108897181D02*
X197646604Y-108849562D01*
X197646604Y-108849562D02*
X197837080Y-108801943D01*
X197837080Y-108801943D02*
X197979937Y-108801943D01*
X197979937Y-108801943D02*
X198170413Y-108849562D01*
X198170413Y-108849562D02*
X198265651Y-108897181D01*
X198265651Y-108897181D02*
X198360890Y-108992419D01*
X198360890Y-108992419D02*
X198408509Y-109135276D01*
X198408509Y-109135276D02*
X198408509Y-109373371D01*
X198122794Y-108420990D02*
X198122794Y-107944800D01*
X198408509Y-108516228D02*
X197408509Y-108182895D01*
X197408509Y-108182895D02*
X198408509Y-107849562D01*
X159815250Y-109758313D02*
X158815250Y-109758313D01*
X158815250Y-109091647D02*
X158815250Y-108901171D01*
X158815250Y-108901171D02*
X158862869Y-108805933D01*
X158862869Y-108805933D02*
X158958107Y-108710695D01*
X158958107Y-108710695D02*
X159148583Y-108663076D01*
X159148583Y-108663076D02*
X159481916Y-108663076D01*
X159481916Y-108663076D02*
X159672392Y-108710695D01*
X159672392Y-108710695D02*
X159767631Y-108805933D01*
X159767631Y-108805933D02*
X159815250Y-108901171D01*
X159815250Y-108901171D02*
X159815250Y-109091647D01*
X159815250Y-109091647D02*
X159767631Y-109186885D01*
X159767631Y-109186885D02*
X159672392Y-109282123D01*
X159672392Y-109282123D02*
X159481916Y-109329742D01*
X159481916Y-109329742D02*
X159148583Y-109329742D01*
X159148583Y-109329742D02*
X158958107Y-109282123D01*
X158958107Y-109282123D02*
X158862869Y-109186885D01*
X158862869Y-109186885D02*
X158815250Y-109091647D01*
X159815250Y-107710695D02*
X159815250Y-108282123D01*
X159815250Y-107996409D02*
X158815250Y-107996409D01*
X158815250Y-107996409D02*
X158958107Y-108091647D01*
X158958107Y-108091647D02*
X159053345Y-108186885D01*
X159053345Y-108186885D02*
X159100964Y-108282123D01*
X159148583Y-106853552D02*
X159815250Y-106853552D01*
X158767631Y-107091647D02*
X159481916Y-107329742D01*
X159481916Y-107329742D02*
X159481916Y-106710695D01*
X136340836Y-77238982D02*
X136340836Y-76762792D01*
X136626551Y-77334220D02*
X135626551Y-77000887D01*
X135626551Y-77000887D02*
X136626551Y-76667554D01*
X136626551Y-75810411D02*
X136626551Y-76381839D01*
X136626551Y-76096125D02*
X135626551Y-76096125D01*
X135626551Y-76096125D02*
X135769408Y-76191363D01*
X135769408Y-76191363D02*
X135864646Y-76286601D01*
X135864646Y-76286601D02*
X135912265Y-76381839D01*
X124320381Y-76788422D02*
X124368000Y-76693184D01*
X124368000Y-76693184D02*
X124368000Y-76550327D01*
X124368000Y-76550327D02*
X124320381Y-76407470D01*
X124320381Y-76407470D02*
X124225143Y-76312232D01*
X124225143Y-76312232D02*
X124129905Y-76264613D01*
X124129905Y-76264613D02*
X123939429Y-76216994D01*
X123939429Y-76216994D02*
X123796572Y-76216994D01*
X123796572Y-76216994D02*
X123606096Y-76264613D01*
X123606096Y-76264613D02*
X123510858Y-76312232D01*
X123510858Y-76312232D02*
X123415620Y-76407470D01*
X123415620Y-76407470D02*
X123368000Y-76550327D01*
X123368000Y-76550327D02*
X123368000Y-76645565D01*
X123368000Y-76645565D02*
X123415620Y-76788422D01*
X123415620Y-76788422D02*
X123463239Y-76836041D01*
X123463239Y-76836041D02*
X123796572Y-76836041D01*
X123796572Y-76836041D02*
X123796572Y-76645565D01*
X123368000Y-77264613D02*
X124368000Y-77264613D01*
X124368000Y-77264613D02*
X123368000Y-77836041D01*
X123368000Y-77836041D02*
X124368000Y-77836041D01*
X123368000Y-78312232D02*
X124368000Y-78312232D01*
X124368000Y-78312232D02*
X124368000Y-78550327D01*
X124368000Y-78550327D02*
X124320381Y-78693184D01*
X124320381Y-78693184D02*
X124225143Y-78788422D01*
X124225143Y-78788422D02*
X124129905Y-78836041D01*
X124129905Y-78836041D02*
X123939429Y-78883660D01*
X123939429Y-78883660D02*
X123796572Y-78883660D01*
X123796572Y-78883660D02*
X123606096Y-78836041D01*
X123606096Y-78836041D02*
X123510858Y-78788422D01*
X123510858Y-78788422D02*
X123415620Y-78693184D01*
X123415620Y-78693184D02*
X123368000Y-78550327D01*
X123368000Y-78550327D02*
X123368000Y-78312232D01*
X127347858Y-74036486D02*
X127347858Y-73274582D01*
X127728811Y-73655534D02*
X126966906Y-73655534D01*
X127728811Y-72274582D02*
X127728811Y-72846010D01*
X127728811Y-72560296D02*
X126728811Y-72560296D01*
X126728811Y-72560296D02*
X126871668Y-72655534D01*
X126871668Y-72655534D02*
X126966906Y-72750772D01*
X126966906Y-72750772D02*
X127014525Y-72846010D01*
X126824049Y-71893629D02*
X126776430Y-71846010D01*
X126776430Y-71846010D02*
X126728811Y-71750772D01*
X126728811Y-71750772D02*
X126728811Y-71512677D01*
X126728811Y-71512677D02*
X126776430Y-71417439D01*
X126776430Y-71417439D02*
X126824049Y-71369820D01*
X126824049Y-71369820D02*
X126919287Y-71322201D01*
X126919287Y-71322201D02*
X127014525Y-71322201D01*
X127014525Y-71322201D02*
X127157382Y-71369820D01*
X127157382Y-71369820D02*
X127728811Y-71941248D01*
X127728811Y-71941248D02*
X127728811Y-71322201D01*
X126728811Y-71036486D02*
X127728811Y-70703153D01*
X127728811Y-70703153D02*
X126728811Y-70369820D01*
X182068904Y-110108723D02*
X182116523Y-109965866D01*
X182116523Y-109965866D02*
X182116523Y-109727771D01*
X182116523Y-109727771D02*
X182068904Y-109632533D01*
X182068904Y-109632533D02*
X182021284Y-109584914D01*
X182021284Y-109584914D02*
X181926046Y-109537295D01*
X181926046Y-109537295D02*
X181830808Y-109537295D01*
X181830808Y-109537295D02*
X181735570Y-109584914D01*
X181735570Y-109584914D02*
X181687951Y-109632533D01*
X181687951Y-109632533D02*
X181640332Y-109727771D01*
X181640332Y-109727771D02*
X181592713Y-109918247D01*
X181592713Y-109918247D02*
X181545094Y-110013485D01*
X181545094Y-110013485D02*
X181497475Y-110061104D01*
X181497475Y-110061104D02*
X181402237Y-110108723D01*
X181402237Y-110108723D02*
X181306999Y-110108723D01*
X181306999Y-110108723D02*
X181211761Y-110061104D01*
X181211761Y-110061104D02*
X181164142Y-110013485D01*
X181164142Y-110013485D02*
X181116523Y-109918247D01*
X181116523Y-109918247D02*
X181116523Y-109680152D01*
X181116523Y-109680152D02*
X181164142Y-109537295D01*
X182116523Y-109108723D02*
X181116523Y-109108723D01*
X181116523Y-109108723D02*
X181116523Y-108870628D01*
X181116523Y-108870628D02*
X181164142Y-108727771D01*
X181164142Y-108727771D02*
X181259380Y-108632533D01*
X181259380Y-108632533D02*
X181354618Y-108584914D01*
X181354618Y-108584914D02*
X181545094Y-108537295D01*
X181545094Y-108537295D02*
X181687951Y-108537295D01*
X181687951Y-108537295D02*
X181878427Y-108584914D01*
X181878427Y-108584914D02*
X181973665Y-108632533D01*
X181973665Y-108632533D02*
X182068904Y-108727771D01*
X182068904Y-108727771D02*
X182116523Y-108870628D01*
X182116523Y-108870628D02*
X182116523Y-109108723D01*
X181830808Y-108156342D02*
X181830808Y-107680152D01*
X182116523Y-108251580D02*
X181116523Y-107918247D01*
X181116523Y-107918247D02*
X182116523Y-107584914D01*
X140994402Y-76677508D02*
X141042021Y-76582270D01*
X141042021Y-76582270D02*
X141042021Y-76439413D01*
X141042021Y-76439413D02*
X140994402Y-76296556D01*
X140994402Y-76296556D02*
X140899164Y-76201318D01*
X140899164Y-76201318D02*
X140803926Y-76153699D01*
X140803926Y-76153699D02*
X140613450Y-76106080D01*
X140613450Y-76106080D02*
X140470593Y-76106080D01*
X140470593Y-76106080D02*
X140280117Y-76153699D01*
X140280117Y-76153699D02*
X140184879Y-76201318D01*
X140184879Y-76201318D02*
X140089641Y-76296556D01*
X140089641Y-76296556D02*
X140042021Y-76439413D01*
X140042021Y-76439413D02*
X140042021Y-76534651D01*
X140042021Y-76534651D02*
X140089641Y-76677508D01*
X140089641Y-76677508D02*
X140137260Y-76725127D01*
X140137260Y-76725127D02*
X140470593Y-76725127D01*
X140470593Y-76725127D02*
X140470593Y-76534651D01*
X140042021Y-77153699D02*
X141042021Y-77153699D01*
X141042021Y-77153699D02*
X140042021Y-77725127D01*
X140042021Y-77725127D02*
X141042021Y-77725127D01*
X140042021Y-78201318D02*
X141042021Y-78201318D01*
X141042021Y-78201318D02*
X141042021Y-78439413D01*
X141042021Y-78439413D02*
X140994402Y-78582270D01*
X140994402Y-78582270D02*
X140899164Y-78677508D01*
X140899164Y-78677508D02*
X140803926Y-78725127D01*
X140803926Y-78725127D02*
X140613450Y-78772746D01*
X140613450Y-78772746D02*
X140470593Y-78772746D01*
X140470593Y-78772746D02*
X140280117Y-78725127D01*
X140280117Y-78725127D02*
X140184879Y-78677508D01*
X140184879Y-78677508D02*
X140089641Y-78582270D01*
X140089641Y-78582270D02*
X140042021Y-78439413D01*
X140042021Y-78439413D02*
X140042021Y-78201318D01*
X103850822Y-106126261D02*
X104612727Y-106126261D01*
X104231774Y-106507214D02*
X104231774Y-105745309D01*
X105612726Y-106507214D02*
X105041298Y-106507214D01*
X105327012Y-106507214D02*
X105327012Y-105507214D01*
X105327012Y-105507214D02*
X105231774Y-105650071D01*
X105231774Y-105650071D02*
X105136536Y-105745309D01*
X105136536Y-105745309D02*
X105041298Y-105792928D01*
X105993679Y-105602452D02*
X106041298Y-105554833D01*
X106041298Y-105554833D02*
X106136536Y-105507214D01*
X106136536Y-105507214D02*
X106374631Y-105507214D01*
X106374631Y-105507214D02*
X106469869Y-105554833D01*
X106469869Y-105554833D02*
X106517488Y-105602452D01*
X106517488Y-105602452D02*
X106565107Y-105697690D01*
X106565107Y-105697690D02*
X106565107Y-105792928D01*
X106565107Y-105792928D02*
X106517488Y-105935785D01*
X106517488Y-105935785D02*
X105946060Y-106507214D01*
X105946060Y-106507214D02*
X106565107Y-106507214D01*
X106850822Y-105507214D02*
X107184155Y-106507214D01*
X107184155Y-106507214D02*
X107517488Y-105507214D01*
X151869819Y-115663220D02*
X152679342Y-115663220D01*
X152679342Y-115663220D02*
X152774580Y-115615601D01*
X152774580Y-115615601D02*
X152822200Y-115567982D01*
X152822200Y-115567982D02*
X152869819Y-115472744D01*
X152869819Y-115472744D02*
X152869819Y-115282268D01*
X152869819Y-115282268D02*
X152822200Y-115187030D01*
X152822200Y-115187030D02*
X152774580Y-115139411D01*
X152774580Y-115139411D02*
X152679342Y-115091792D01*
X152679342Y-115091792D02*
X151869819Y-115091792D01*
X152822200Y-114663220D02*
X152869819Y-114520363D01*
X152869819Y-114520363D02*
X152869819Y-114282268D01*
X152869819Y-114282268D02*
X152822200Y-114187030D01*
X152822200Y-114187030D02*
X152774580Y-114139411D01*
X152774580Y-114139411D02*
X152679342Y-114091792D01*
X152679342Y-114091792D02*
X152584104Y-114091792D01*
X152584104Y-114091792D02*
X152488866Y-114139411D01*
X152488866Y-114139411D02*
X152441247Y-114187030D01*
X152441247Y-114187030D02*
X152393628Y-114282268D01*
X152393628Y-114282268D02*
X152346009Y-114472744D01*
X152346009Y-114472744D02*
X152298390Y-114567982D01*
X152298390Y-114567982D02*
X152250771Y-114615601D01*
X152250771Y-114615601D02*
X152155533Y-114663220D01*
X152155533Y-114663220D02*
X152060295Y-114663220D01*
X152060295Y-114663220D02*
X151965057Y-114615601D01*
X151965057Y-114615601D02*
X151917438Y-114567982D01*
X151917438Y-114567982D02*
X151869819Y-114472744D01*
X151869819Y-114472744D02*
X151869819Y-114234649D01*
X151869819Y-114234649D02*
X151917438Y-114091792D01*
X152346009Y-113329887D02*
X152393628Y-113187030D01*
X152393628Y-113187030D02*
X152441247Y-113139411D01*
X152441247Y-113139411D02*
X152536485Y-113091792D01*
X152536485Y-113091792D02*
X152679342Y-113091792D01*
X152679342Y-113091792D02*
X152774580Y-113139411D01*
X152774580Y-113139411D02*
X152822200Y-113187030D01*
X152822200Y-113187030D02*
X152869819Y-113282268D01*
X152869819Y-113282268D02*
X152869819Y-113663220D01*
X152869819Y-113663220D02*
X151869819Y-113663220D01*
X151869819Y-113663220D02*
X151869819Y-113329887D01*
X151869819Y-113329887D02*
X151917438Y-113234649D01*
X151917438Y-113234649D02*
X151965057Y-113187030D01*
X151965057Y-113187030D02*
X152060295Y-113139411D01*
X152060295Y-113139411D02*
X152155533Y-113139411D01*
X152155533Y-113139411D02*
X152250771Y-113187030D01*
X152250771Y-113187030D02*
X152298390Y-113234649D01*
X152298390Y-113234649D02*
X152346009Y-113329887D01*
X152346009Y-113329887D02*
X152346009Y-113663220D01*
X151965057Y-112710839D02*
X151917438Y-112663220D01*
X151917438Y-112663220D02*
X151869819Y-112567982D01*
X151869819Y-112567982D02*
X151869819Y-112329887D01*
X151869819Y-112329887D02*
X151917438Y-112234649D01*
X151917438Y-112234649D02*
X151965057Y-112187030D01*
X151965057Y-112187030D02*
X152060295Y-112139411D01*
X152060295Y-112139411D02*
X152155533Y-112139411D01*
X152155533Y-112139411D02*
X152298390Y-112187030D01*
X152298390Y-112187030D02*
X152869819Y-112758458D01*
X152869819Y-112758458D02*
X152869819Y-112139411D01*
X152774580Y-111710839D02*
X152822200Y-111663220D01*
X152822200Y-111663220D02*
X152869819Y-111710839D01*
X152869819Y-111710839D02*
X152822200Y-111758458D01*
X152822200Y-111758458D02*
X152774580Y-111710839D01*
X152774580Y-111710839D02*
X152869819Y-111710839D01*
X151869819Y-111044173D02*
X151869819Y-110948935D01*
X151869819Y-110948935D02*
X151917438Y-110853697D01*
X151917438Y-110853697D02*
X151965057Y-110806078D01*
X151965057Y-110806078D02*
X152060295Y-110758459D01*
X152060295Y-110758459D02*
X152250771Y-110710840D01*
X152250771Y-110710840D02*
X152488866Y-110710840D01*
X152488866Y-110710840D02*
X152679342Y-110758459D01*
X152679342Y-110758459D02*
X152774580Y-110806078D01*
X152774580Y-110806078D02*
X152822200Y-110853697D01*
X152822200Y-110853697D02*
X152869819Y-110948935D01*
X152869819Y-110948935D02*
X152869819Y-111044173D01*
X152869819Y-111044173D02*
X152822200Y-111139411D01*
X152822200Y-111139411D02*
X152774580Y-111187030D01*
X152774580Y-111187030D02*
X152679342Y-111234649D01*
X152679342Y-111234649D02*
X152488866Y-111282268D01*
X152488866Y-111282268D02*
X152250771Y-111282268D01*
X152250771Y-111282268D02*
X152060295Y-111234649D01*
X152060295Y-111234649D02*
X151965057Y-111187030D01*
X151965057Y-111187030D02*
X151917438Y-111139411D01*
X151917438Y-111139411D02*
X151869819Y-111044173D01*
X176989847Y-109765335D02*
X175989847Y-109765335D01*
X175989847Y-109098669D02*
X175989847Y-108908193D01*
X175989847Y-108908193D02*
X176037466Y-108812955D01*
X176037466Y-108812955D02*
X176132704Y-108717717D01*
X176132704Y-108717717D02*
X176323180Y-108670098D01*
X176323180Y-108670098D02*
X176656513Y-108670098D01*
X176656513Y-108670098D02*
X176846989Y-108717717D01*
X176846989Y-108717717D02*
X176942228Y-108812955D01*
X176942228Y-108812955D02*
X176989847Y-108908193D01*
X176989847Y-108908193D02*
X176989847Y-109098669D01*
X176989847Y-109098669D02*
X176942228Y-109193907D01*
X176942228Y-109193907D02*
X176846989Y-109289145D01*
X176846989Y-109289145D02*
X176656513Y-109336764D01*
X176656513Y-109336764D02*
X176323180Y-109336764D01*
X176323180Y-109336764D02*
X176132704Y-109289145D01*
X176132704Y-109289145D02*
X176037466Y-109193907D01*
X176037466Y-109193907D02*
X175989847Y-109098669D01*
X176989847Y-107717717D02*
X176989847Y-108289145D01*
X176989847Y-108003431D02*
X175989847Y-108003431D01*
X175989847Y-108003431D02*
X176132704Y-108098669D01*
X176132704Y-108098669D02*
X176227942Y-108193907D01*
X176227942Y-108193907D02*
X176275561Y-108289145D01*
X175989847Y-107384383D02*
X175989847Y-106765336D01*
X175989847Y-106765336D02*
X176370799Y-107098669D01*
X176370799Y-107098669D02*
X176370799Y-106955812D01*
X176370799Y-106955812D02*
X176418418Y-106860574D01*
X176418418Y-106860574D02*
X176466037Y-106812955D01*
X176466037Y-106812955D02*
X176561275Y-106765336D01*
X176561275Y-106765336D02*
X176799370Y-106765336D01*
X176799370Y-106765336D02*
X176894608Y-106812955D01*
X176894608Y-106812955D02*
X176942228Y-106860574D01*
X176942228Y-106860574D02*
X176989847Y-106955812D01*
X176989847Y-106955812D02*
X176989847Y-107241526D01*
X176989847Y-107241526D02*
X176942228Y-107336764D01*
X176942228Y-107336764D02*
X176894608Y-107384383D01*
X203492652Y-90547725D02*
X203397414Y-90500106D01*
X203397414Y-90500106D02*
X203254557Y-90500106D01*
X203254557Y-90500106D02*
X203111700Y-90547725D01*
X203111700Y-90547725D02*
X203016462Y-90642963D01*
X203016462Y-90642963D02*
X202968843Y-90738201D01*
X202968843Y-90738201D02*
X202921224Y-90928677D01*
X202921224Y-90928677D02*
X202921224Y-91071534D01*
X202921224Y-91071534D02*
X202968843Y-91262010D01*
X202968843Y-91262010D02*
X203016462Y-91357248D01*
X203016462Y-91357248D02*
X203111700Y-91452487D01*
X203111700Y-91452487D02*
X203254557Y-91500106D01*
X203254557Y-91500106D02*
X203349795Y-91500106D01*
X203349795Y-91500106D02*
X203492652Y-91452487D01*
X203492652Y-91452487D02*
X203540271Y-91404867D01*
X203540271Y-91404867D02*
X203540271Y-91071534D01*
X203540271Y-91071534D02*
X203349795Y-91071534D01*
X203968843Y-91500106D02*
X203968843Y-90500106D01*
X203968843Y-90500106D02*
X204540271Y-91500106D01*
X204540271Y-91500106D02*
X204540271Y-90500106D01*
X205016462Y-91500106D02*
X205016462Y-90500106D01*
X205016462Y-90500106D02*
X205254557Y-90500106D01*
X205254557Y-90500106D02*
X205397414Y-90547725D01*
X205397414Y-90547725D02*
X205492652Y-90642963D01*
X205492652Y-90642963D02*
X205540271Y-90738201D01*
X205540271Y-90738201D02*
X205587890Y-90928677D01*
X205587890Y-90928677D02*
X205587890Y-91071534D01*
X205587890Y-91071534D02*
X205540271Y-91262010D01*
X205540271Y-91262010D02*
X205492652Y-91357248D01*
X205492652Y-91357248D02*
X205397414Y-91452487D01*
X205397414Y-91452487D02*
X205254557Y-91500106D01*
X205254557Y-91500106D02*
X205016462Y-91500106D01*
X119071332Y-76882678D02*
X119118951Y-76739821D01*
X119118951Y-76739821D02*
X119166570Y-76692202D01*
X119166570Y-76692202D02*
X119261808Y-76644583D01*
X119261808Y-76644583D02*
X119404665Y-76644583D01*
X119404665Y-76644583D02*
X119499903Y-76692202D01*
X119499903Y-76692202D02*
X119547523Y-76739821D01*
X119547523Y-76739821D02*
X119595142Y-76835059D01*
X119595142Y-76835059D02*
X119595142Y-77216011D01*
X119595142Y-77216011D02*
X118595142Y-77216011D01*
X118595142Y-77216011D02*
X118595142Y-76882678D01*
X118595142Y-76882678D02*
X118642761Y-76787440D01*
X118642761Y-76787440D02*
X118690380Y-76739821D01*
X118690380Y-76739821D02*
X118785618Y-76692202D01*
X118785618Y-76692202D02*
X118880856Y-76692202D01*
X118880856Y-76692202D02*
X118976094Y-76739821D01*
X118976094Y-76739821D02*
X119023713Y-76787440D01*
X119023713Y-76787440D02*
X119071332Y-76882678D01*
X119071332Y-76882678D02*
X119071332Y-77216011D01*
X119595142Y-75692202D02*
X119595142Y-76263630D01*
X119595142Y-75977916D02*
X118595142Y-75977916D01*
X118595142Y-75977916D02*
X118737999Y-76073154D01*
X118737999Y-76073154D02*
X118833237Y-76168392D01*
X118833237Y-76168392D02*
X118880856Y-76263630D01*
X193281833Y-110029983D02*
X192281833Y-110029983D01*
X192281833Y-109363317D02*
X192281833Y-109172841D01*
X192281833Y-109172841D02*
X192329452Y-109077603D01*
X192329452Y-109077603D02*
X192424690Y-108982365D01*
X192424690Y-108982365D02*
X192615166Y-108934746D01*
X192615166Y-108934746D02*
X192948499Y-108934746D01*
X192948499Y-108934746D02*
X193138975Y-108982365D01*
X193138975Y-108982365D02*
X193234214Y-109077603D01*
X193234214Y-109077603D02*
X193281833Y-109172841D01*
X193281833Y-109172841D02*
X193281833Y-109363317D01*
X193281833Y-109363317D02*
X193234214Y-109458555D01*
X193234214Y-109458555D02*
X193138975Y-109553793D01*
X193138975Y-109553793D02*
X192948499Y-109601412D01*
X192948499Y-109601412D02*
X192615166Y-109601412D01*
X192615166Y-109601412D02*
X192424690Y-109553793D01*
X192424690Y-109553793D02*
X192329452Y-109458555D01*
X192329452Y-109458555D02*
X192281833Y-109363317D01*
X193281833Y-107982365D02*
X193281833Y-108553793D01*
X193281833Y-108268079D02*
X192281833Y-108268079D01*
X192281833Y-108268079D02*
X192424690Y-108363317D01*
X192424690Y-108363317D02*
X192519928Y-108458555D01*
X192519928Y-108458555D02*
X192567547Y-108553793D01*
X192377071Y-107601412D02*
X192329452Y-107553793D01*
X192329452Y-107553793D02*
X192281833Y-107458555D01*
X192281833Y-107458555D02*
X192281833Y-107220460D01*
X192281833Y-107220460D02*
X192329452Y-107125222D01*
X192329452Y-107125222D02*
X192377071Y-107077603D01*
X192377071Y-107077603D02*
X192472309Y-107029984D01*
X192472309Y-107029984D02*
X192567547Y-107029984D01*
X192567547Y-107029984D02*
X192710404Y-107077603D01*
X192710404Y-107077603D02*
X193281833Y-107649031D01*
X193281833Y-107649031D02*
X193281833Y-107029984D01*
X179530214Y-109936191D02*
X179577833Y-109793334D01*
X179577833Y-109793334D02*
X179577833Y-109555239D01*
X179577833Y-109555239D02*
X179530214Y-109460001D01*
X179530214Y-109460001D02*
X179482594Y-109412382D01*
X179482594Y-109412382D02*
X179387356Y-109364763D01*
X179387356Y-109364763D02*
X179292118Y-109364763D01*
X179292118Y-109364763D02*
X179196880Y-109412382D01*
X179196880Y-109412382D02*
X179149261Y-109460001D01*
X179149261Y-109460001D02*
X179101642Y-109555239D01*
X179101642Y-109555239D02*
X179054023Y-109745715D01*
X179054023Y-109745715D02*
X179006404Y-109840953D01*
X179006404Y-109840953D02*
X178958785Y-109888572D01*
X178958785Y-109888572D02*
X178863547Y-109936191D01*
X178863547Y-109936191D02*
X178768309Y-109936191D01*
X178768309Y-109936191D02*
X178673071Y-109888572D01*
X178673071Y-109888572D02*
X178625452Y-109840953D01*
X178625452Y-109840953D02*
X178577833Y-109745715D01*
X178577833Y-109745715D02*
X178577833Y-109507620D01*
X178577833Y-109507620D02*
X178625452Y-109364763D01*
X179482594Y-108364763D02*
X179530214Y-108412382D01*
X179530214Y-108412382D02*
X179577833Y-108555239D01*
X179577833Y-108555239D02*
X179577833Y-108650477D01*
X179577833Y-108650477D02*
X179530214Y-108793334D01*
X179530214Y-108793334D02*
X179434975Y-108888572D01*
X179434975Y-108888572D02*
X179339737Y-108936191D01*
X179339737Y-108936191D02*
X179149261Y-108983810D01*
X179149261Y-108983810D02*
X179006404Y-108983810D01*
X179006404Y-108983810D02*
X178815928Y-108936191D01*
X178815928Y-108936191D02*
X178720690Y-108888572D01*
X178720690Y-108888572D02*
X178625452Y-108793334D01*
X178625452Y-108793334D02*
X178577833Y-108650477D01*
X178577833Y-108650477D02*
X178577833Y-108555239D01*
X178577833Y-108555239D02*
X178625452Y-108412382D01*
X178625452Y-108412382D02*
X178673071Y-108364763D01*
X179577833Y-107460001D02*
X179577833Y-107936191D01*
X179577833Y-107936191D02*
X178577833Y-107936191D01*
X128237754Y-114725633D02*
X127761563Y-115058966D01*
X128237754Y-115297061D02*
X127237754Y-115297061D01*
X127237754Y-115297061D02*
X127237754Y-114916109D01*
X127237754Y-114916109D02*
X127285373Y-114820871D01*
X127285373Y-114820871D02*
X127332992Y-114773252D01*
X127332992Y-114773252D02*
X127428230Y-114725633D01*
X127428230Y-114725633D02*
X127571087Y-114725633D01*
X127571087Y-114725633D02*
X127666325Y-114773252D01*
X127666325Y-114773252D02*
X127713944Y-114820871D01*
X127713944Y-114820871D02*
X127761563Y-114916109D01*
X127761563Y-114916109D02*
X127761563Y-115297061D01*
X128237754Y-114154204D02*
X128190135Y-114249442D01*
X128190135Y-114249442D02*
X128142515Y-114297061D01*
X128142515Y-114297061D02*
X128047277Y-114344680D01*
X128047277Y-114344680D02*
X127761563Y-114344680D01*
X127761563Y-114344680D02*
X127666325Y-114297061D01*
X127666325Y-114297061D02*
X127618706Y-114249442D01*
X127618706Y-114249442D02*
X127571087Y-114154204D01*
X127571087Y-114154204D02*
X127571087Y-114011347D01*
X127571087Y-114011347D02*
X127618706Y-113916109D01*
X127618706Y-113916109D02*
X127666325Y-113868490D01*
X127666325Y-113868490D02*
X127761563Y-113820871D01*
X127761563Y-113820871D02*
X128047277Y-113820871D01*
X128047277Y-113820871D02*
X128142515Y-113868490D01*
X128142515Y-113868490D02*
X128190135Y-113916109D01*
X128190135Y-113916109D02*
X128237754Y-114011347D01*
X128237754Y-114011347D02*
X128237754Y-114154204D01*
X127571087Y-113535156D02*
X127571087Y-113154204D01*
X127237754Y-113392299D02*
X128094896Y-113392299D01*
X128094896Y-113392299D02*
X128190135Y-113344680D01*
X128190135Y-113344680D02*
X128237754Y-113249442D01*
X128237754Y-113249442D02*
X128237754Y-113154204D01*
X121240311Y-76931973D02*
X121287930Y-76789116D01*
X121287930Y-76789116D02*
X121335549Y-76741497D01*
X121335549Y-76741497D02*
X121430787Y-76693878D01*
X121430787Y-76693878D02*
X121573644Y-76693878D01*
X121573644Y-76693878D02*
X121668882Y-76741497D01*
X121668882Y-76741497D02*
X121716502Y-76789116D01*
X121716502Y-76789116D02*
X121764121Y-76884354D01*
X121764121Y-76884354D02*
X121764121Y-77265306D01*
X121764121Y-77265306D02*
X120764121Y-77265306D01*
X120764121Y-77265306D02*
X120764121Y-76931973D01*
X120764121Y-76931973D02*
X120811740Y-76836735D01*
X120811740Y-76836735D02*
X120859359Y-76789116D01*
X120859359Y-76789116D02*
X120954597Y-76741497D01*
X120954597Y-76741497D02*
X121049835Y-76741497D01*
X121049835Y-76741497D02*
X121145073Y-76789116D01*
X121145073Y-76789116D02*
X121192692Y-76836735D01*
X121192692Y-76836735D02*
X121240311Y-76931973D01*
X121240311Y-76931973D02*
X121240311Y-77265306D01*
X120859359Y-76312925D02*
X120811740Y-76265306D01*
X120811740Y-76265306D02*
X120764121Y-76170068D01*
X120764121Y-76170068D02*
X120764121Y-75931973D01*
X120764121Y-75931973D02*
X120811740Y-75836735D01*
X120811740Y-75836735D02*
X120859359Y-75789116D01*
X120859359Y-75789116D02*
X120954597Y-75741497D01*
X120954597Y-75741497D02*
X121049835Y-75741497D01*
X121049835Y-75741497D02*
X121192692Y-75789116D01*
X121192692Y-75789116D02*
X121764121Y-76360544D01*
X121764121Y-76360544D02*
X121764121Y-75741497D01*
X190316667Y-109331375D02*
X190269048Y-109426613D01*
X190269048Y-109426613D02*
X190269048Y-109569470D01*
X190269048Y-109569470D02*
X190316667Y-109712327D01*
X190316667Y-109712327D02*
X190411905Y-109807565D01*
X190411905Y-109807565D02*
X190507143Y-109855184D01*
X190507143Y-109855184D02*
X190697619Y-109902803D01*
X190697619Y-109902803D02*
X190840476Y-109902803D01*
X190840476Y-109902803D02*
X191030952Y-109855184D01*
X191030952Y-109855184D02*
X191126190Y-109807565D01*
X191126190Y-109807565D02*
X191221429Y-109712327D01*
X191221429Y-109712327D02*
X191269048Y-109569470D01*
X191269048Y-109569470D02*
X191269048Y-109474232D01*
X191269048Y-109474232D02*
X191221429Y-109331375D01*
X191221429Y-109331375D02*
X191173809Y-109283756D01*
X191173809Y-109283756D02*
X190840476Y-109283756D01*
X190840476Y-109283756D02*
X190840476Y-109474232D01*
X191269048Y-108855184D02*
X190269048Y-108855184D01*
X190269048Y-108855184D02*
X191269048Y-108283756D01*
X191269048Y-108283756D02*
X190269048Y-108283756D01*
X191269048Y-107807565D02*
X190269048Y-107807565D01*
X190269048Y-107807565D02*
X190269048Y-107569470D01*
X190269048Y-107569470D02*
X190316667Y-107426613D01*
X190316667Y-107426613D02*
X190411905Y-107331375D01*
X190411905Y-107331375D02*
X190507143Y-107283756D01*
X190507143Y-107283756D02*
X190697619Y-107236137D01*
X190697619Y-107236137D02*
X190840476Y-107236137D01*
X190840476Y-107236137D02*
X191030952Y-107283756D01*
X191030952Y-107283756D02*
X191126190Y-107331375D01*
X191126190Y-107331375D02*
X191221429Y-107426613D01*
X191221429Y-107426613D02*
X191269048Y-107569470D01*
X191269048Y-107569470D02*
X191269048Y-107807565D01*
X200899481Y-75941638D02*
X200947100Y-75846400D01*
X200947100Y-75846400D02*
X200947100Y-75703543D01*
X200947100Y-75703543D02*
X200899481Y-75560686D01*
X200899481Y-75560686D02*
X200804243Y-75465448D01*
X200804243Y-75465448D02*
X200709005Y-75417829D01*
X200709005Y-75417829D02*
X200518529Y-75370210D01*
X200518529Y-75370210D02*
X200375672Y-75370210D01*
X200375672Y-75370210D02*
X200185196Y-75417829D01*
X200185196Y-75417829D02*
X200089958Y-75465448D01*
X200089958Y-75465448D02*
X199994720Y-75560686D01*
X199994720Y-75560686D02*
X199947100Y-75703543D01*
X199947100Y-75703543D02*
X199947100Y-75798781D01*
X199947100Y-75798781D02*
X199994720Y-75941638D01*
X199994720Y-75941638D02*
X200042339Y-75989257D01*
X200042339Y-75989257D02*
X200375672Y-75989257D01*
X200375672Y-75989257D02*
X200375672Y-75798781D01*
X199947100Y-76417829D02*
X200947100Y-76417829D01*
X200947100Y-76417829D02*
X199947100Y-76989257D01*
X199947100Y-76989257D02*
X200947100Y-76989257D01*
X199947100Y-77465448D02*
X200947100Y-77465448D01*
X200947100Y-77465448D02*
X200947100Y-77703543D01*
X200947100Y-77703543D02*
X200899481Y-77846400D01*
X200899481Y-77846400D02*
X200804243Y-77941638D01*
X200804243Y-77941638D02*
X200709005Y-77989257D01*
X200709005Y-77989257D02*
X200518529Y-78036876D01*
X200518529Y-78036876D02*
X200375672Y-78036876D01*
X200375672Y-78036876D02*
X200185196Y-77989257D01*
X200185196Y-77989257D02*
X200089958Y-77941638D01*
X200089958Y-77941638D02*
X199994720Y-77846400D01*
X199994720Y-77846400D02*
X199947100Y-77703543D01*
X199947100Y-77703543D02*
X199947100Y-77465448D01*
X202741541Y-80619819D02*
X203360588Y-80619819D01*
X203360588Y-80619819D02*
X203027255Y-81000771D01*
X203027255Y-81000771D02*
X203170112Y-81000771D01*
X203170112Y-81000771D02*
X203265350Y-81048390D01*
X203265350Y-81048390D02*
X203312969Y-81096009D01*
X203312969Y-81096009D02*
X203360588Y-81191247D01*
X203360588Y-81191247D02*
X203360588Y-81429342D01*
X203360588Y-81429342D02*
X203312969Y-81524580D01*
X203312969Y-81524580D02*
X203265350Y-81572200D01*
X203265350Y-81572200D02*
X203170112Y-81619819D01*
X203170112Y-81619819D02*
X202884398Y-81619819D01*
X202884398Y-81619819D02*
X202789160Y-81572200D01*
X202789160Y-81572200D02*
X202741541Y-81524580D01*
X203789160Y-81524580D02*
X203836779Y-81572200D01*
X203836779Y-81572200D02*
X203789160Y-81619819D01*
X203789160Y-81619819D02*
X203741541Y-81572200D01*
X203741541Y-81572200D02*
X203789160Y-81524580D01*
X203789160Y-81524580D02*
X203789160Y-81619819D01*
X204170112Y-80619819D02*
X204789159Y-80619819D01*
X204789159Y-80619819D02*
X204455826Y-81000771D01*
X204455826Y-81000771D02*
X204598683Y-81000771D01*
X204598683Y-81000771D02*
X204693921Y-81048390D01*
X204693921Y-81048390D02*
X204741540Y-81096009D01*
X204741540Y-81096009D02*
X204789159Y-81191247D01*
X204789159Y-81191247D02*
X204789159Y-81429342D01*
X204789159Y-81429342D02*
X204741540Y-81524580D01*
X204741540Y-81524580D02*
X204693921Y-81572200D01*
X204693921Y-81572200D02*
X204598683Y-81619819D01*
X204598683Y-81619819D02*
X204312969Y-81619819D01*
X204312969Y-81619819D02*
X204217731Y-81572200D01*
X204217731Y-81572200D02*
X204170112Y-81524580D01*
X205074874Y-80619819D02*
X205408207Y-81619819D01*
X205408207Y-81619819D02*
X205741540Y-80619819D01*
X162355617Y-109929169D02*
X162403236Y-109786312D01*
X162403236Y-109786312D02*
X162403236Y-109548217D01*
X162403236Y-109548217D02*
X162355617Y-109452979D01*
X162355617Y-109452979D02*
X162307997Y-109405360D01*
X162307997Y-109405360D02*
X162212759Y-109357741D01*
X162212759Y-109357741D02*
X162117521Y-109357741D01*
X162117521Y-109357741D02*
X162022283Y-109405360D01*
X162022283Y-109405360D02*
X161974664Y-109452979D01*
X161974664Y-109452979D02*
X161927045Y-109548217D01*
X161927045Y-109548217D02*
X161879426Y-109738693D01*
X161879426Y-109738693D02*
X161831807Y-109833931D01*
X161831807Y-109833931D02*
X161784188Y-109881550D01*
X161784188Y-109881550D02*
X161688950Y-109929169D01*
X161688950Y-109929169D02*
X161593712Y-109929169D01*
X161593712Y-109929169D02*
X161498474Y-109881550D01*
X161498474Y-109881550D02*
X161450855Y-109833931D01*
X161450855Y-109833931D02*
X161403236Y-109738693D01*
X161403236Y-109738693D02*
X161403236Y-109500598D01*
X161403236Y-109500598D02*
X161450855Y-109357741D01*
X162307997Y-108357741D02*
X162355617Y-108405360D01*
X162355617Y-108405360D02*
X162403236Y-108548217D01*
X162403236Y-108548217D02*
X162403236Y-108643455D01*
X162403236Y-108643455D02*
X162355617Y-108786312D01*
X162355617Y-108786312D02*
X162260378Y-108881550D01*
X162260378Y-108881550D02*
X162165140Y-108929169D01*
X162165140Y-108929169D02*
X161974664Y-108976788D01*
X161974664Y-108976788D02*
X161831807Y-108976788D01*
X161831807Y-108976788D02*
X161641331Y-108929169D01*
X161641331Y-108929169D02*
X161546093Y-108881550D01*
X161546093Y-108881550D02*
X161450855Y-108786312D01*
X161450855Y-108786312D02*
X161403236Y-108643455D01*
X161403236Y-108643455D02*
X161403236Y-108548217D01*
X161403236Y-108548217D02*
X161450855Y-108405360D01*
X161450855Y-108405360D02*
X161498474Y-108357741D01*
X162403236Y-107452979D02*
X162403236Y-107929169D01*
X162403236Y-107929169D02*
X161403236Y-107929169D01*
X166480617Y-110223263D02*
X166480617Y-109604216D01*
X166480617Y-109604216D02*
X166861569Y-109937549D01*
X166861569Y-109937549D02*
X166861569Y-109794692D01*
X166861569Y-109794692D02*
X166909188Y-109699454D01*
X166909188Y-109699454D02*
X166956807Y-109651835D01*
X166956807Y-109651835D02*
X167052045Y-109604216D01*
X167052045Y-109604216D02*
X167290140Y-109604216D01*
X167290140Y-109604216D02*
X167385378Y-109651835D01*
X167385378Y-109651835D02*
X167432998Y-109699454D01*
X167432998Y-109699454D02*
X167480617Y-109794692D01*
X167480617Y-109794692D02*
X167480617Y-110080406D01*
X167480617Y-110080406D02*
X167432998Y-110175644D01*
X167432998Y-110175644D02*
X167385378Y-110223263D01*
X167385378Y-109175644D02*
X167432998Y-109128025D01*
X167432998Y-109128025D02*
X167480617Y-109175644D01*
X167480617Y-109175644D02*
X167432998Y-109223263D01*
X167432998Y-109223263D02*
X167385378Y-109175644D01*
X167385378Y-109175644D02*
X167480617Y-109175644D01*
X166480617Y-108794692D02*
X166480617Y-108175645D01*
X166480617Y-108175645D02*
X166861569Y-108508978D01*
X166861569Y-108508978D02*
X166861569Y-108366121D01*
X166861569Y-108366121D02*
X166909188Y-108270883D01*
X166909188Y-108270883D02*
X166956807Y-108223264D01*
X166956807Y-108223264D02*
X167052045Y-108175645D01*
X167052045Y-108175645D02*
X167290140Y-108175645D01*
X167290140Y-108175645D02*
X167385378Y-108223264D01*
X167385378Y-108223264D02*
X167432998Y-108270883D01*
X167432998Y-108270883D02*
X167480617Y-108366121D01*
X167480617Y-108366121D02*
X167480617Y-108651835D01*
X167480617Y-108651835D02*
X167432998Y-108747073D01*
X167432998Y-108747073D02*
X167385378Y-108794692D01*
X166480617Y-107889930D02*
X167480617Y-107556597D01*
X167480617Y-107556597D02*
X166480617Y-107223264D01*
X192508764Y-75373649D02*
X192461144Y-75516506D01*
X192461144Y-75516506D02*
X192461144Y-75754601D01*
X192461144Y-75754601D02*
X192508764Y-75849839D01*
X192508764Y-75849839D02*
X192556383Y-75897458D01*
X192556383Y-75897458D02*
X192651621Y-75945077D01*
X192651621Y-75945077D02*
X192746859Y-75945077D01*
X192746859Y-75945077D02*
X192842097Y-75897458D01*
X192842097Y-75897458D02*
X192889716Y-75849839D01*
X192889716Y-75849839D02*
X192937335Y-75754601D01*
X192937335Y-75754601D02*
X192984954Y-75564125D01*
X192984954Y-75564125D02*
X193032573Y-75468887D01*
X193032573Y-75468887D02*
X193080192Y-75421268D01*
X193080192Y-75421268D02*
X193175430Y-75373649D01*
X193175430Y-75373649D02*
X193270668Y-75373649D01*
X193270668Y-75373649D02*
X193365906Y-75421268D01*
X193365906Y-75421268D02*
X193413525Y-75468887D01*
X193413525Y-75468887D02*
X193461144Y-75564125D01*
X193461144Y-75564125D02*
X193461144Y-75802220D01*
X193461144Y-75802220D02*
X193413525Y-75945077D01*
X192461144Y-76373649D02*
X193461144Y-76373649D01*
X193461144Y-76373649D02*
X193461144Y-76611744D01*
X193461144Y-76611744D02*
X193413525Y-76754601D01*
X193413525Y-76754601D02*
X193318287Y-76849839D01*
X193318287Y-76849839D02*
X193223049Y-76897458D01*
X193223049Y-76897458D02*
X193032573Y-76945077D01*
X193032573Y-76945077D02*
X192889716Y-76945077D01*
X192889716Y-76945077D02*
X192699240Y-76897458D01*
X192699240Y-76897458D02*
X192604002Y-76849839D01*
X192604002Y-76849839D02*
X192508764Y-76754601D01*
X192508764Y-76754601D02*
X192461144Y-76611744D01*
X192461144Y-76611744D02*
X192461144Y-76373649D01*
X192746859Y-77326030D02*
X192746859Y-77802220D01*
X192461144Y-77230792D02*
X193461144Y-77564125D01*
X193461144Y-77564125D02*
X192461144Y-77897458D01*
X168550057Y-92045238D02*
X168502438Y-92140476D01*
X168502438Y-92140476D02*
X168407200Y-92235714D01*
X168407200Y-92235714D02*
X168264342Y-92378571D01*
X168264342Y-92378571D02*
X168216723Y-92473809D01*
X168216723Y-92473809D02*
X168216723Y-92569047D01*
X168454819Y-92521428D02*
X168407200Y-92616666D01*
X168407200Y-92616666D02*
X168311961Y-92711904D01*
X168311961Y-92711904D02*
X168121485Y-92759523D01*
X168121485Y-92759523D02*
X167788152Y-92759523D01*
X167788152Y-92759523D02*
X167597676Y-92711904D01*
X167597676Y-92711904D02*
X167502438Y-92616666D01*
X167502438Y-92616666D02*
X167454819Y-92521428D01*
X167454819Y-92521428D02*
X167454819Y-92330952D01*
X167454819Y-92330952D02*
X167502438Y-92235714D01*
X167502438Y-92235714D02*
X167597676Y-92140476D01*
X167597676Y-92140476D02*
X167788152Y-92092857D01*
X167788152Y-92092857D02*
X168121485Y-92092857D01*
X168121485Y-92092857D02*
X168311961Y-92140476D01*
X168311961Y-92140476D02*
X168407200Y-92235714D01*
X168407200Y-92235714D02*
X168454819Y-92330952D01*
X168454819Y-92330952D02*
X168454819Y-92521428D01*
X168454819Y-91140476D02*
X168454819Y-91711904D01*
X168454819Y-91426190D02*
X167454819Y-91426190D01*
X167454819Y-91426190D02*
X167597676Y-91521428D01*
X167597676Y-91521428D02*
X167692914Y-91616666D01*
X167692914Y-91616666D02*
X167740533Y-91711904D01*
X158216038Y-102056702D02*
X158168419Y-102104322D01*
X158168419Y-102104322D02*
X158025562Y-102151941D01*
X158025562Y-102151941D02*
X157930324Y-102151941D01*
X157930324Y-102151941D02*
X157787467Y-102104322D01*
X157787467Y-102104322D02*
X157692229Y-102009083D01*
X157692229Y-102009083D02*
X157644610Y-101913845D01*
X157644610Y-101913845D02*
X157596991Y-101723369D01*
X157596991Y-101723369D02*
X157596991Y-101580512D01*
X157596991Y-101580512D02*
X157644610Y-101390036D01*
X157644610Y-101390036D02*
X157692229Y-101294798D01*
X157692229Y-101294798D02*
X157787467Y-101199560D01*
X157787467Y-101199560D02*
X157930324Y-101151941D01*
X157930324Y-101151941D02*
X158025562Y-101151941D01*
X158025562Y-101151941D02*
X158168419Y-101199560D01*
X158168419Y-101199560D02*
X158216038Y-101247179D01*
X158596991Y-101247179D02*
X158644610Y-101199560D01*
X158644610Y-101199560D02*
X158739848Y-101151941D01*
X158739848Y-101151941D02*
X158977943Y-101151941D01*
X158977943Y-101151941D02*
X159073181Y-101199560D01*
X159073181Y-101199560D02*
X159120800Y-101247179D01*
X159120800Y-101247179D02*
X159168419Y-101342417D01*
X159168419Y-101342417D02*
X159168419Y-101437655D01*
X159168419Y-101437655D02*
X159120800Y-101580512D01*
X159120800Y-101580512D02*
X158549372Y-102151941D01*
X158549372Y-102151941D02*
X159168419Y-102151941D01*
X133951919Y-111393315D02*
X133951919Y-110393315D01*
X133951919Y-110393315D02*
X134190014Y-110393315D01*
X134190014Y-110393315D02*
X134332871Y-110440934D01*
X134332871Y-110440934D02*
X134428109Y-110536172D01*
X134428109Y-110536172D02*
X134475728Y-110631410D01*
X134475728Y-110631410D02*
X134523347Y-110821886D01*
X134523347Y-110821886D02*
X134523347Y-110964743D01*
X134523347Y-110964743D02*
X134475728Y-111155219D01*
X134475728Y-111155219D02*
X134428109Y-111250457D01*
X134428109Y-111250457D02*
X134332871Y-111345696D01*
X134332871Y-111345696D02*
X134190014Y-111393315D01*
X134190014Y-111393315D02*
X133951919Y-111393315D01*
X134856681Y-110393315D02*
X135475728Y-110393315D01*
X135475728Y-110393315D02*
X135142395Y-110774267D01*
X135142395Y-110774267D02*
X135285252Y-110774267D01*
X135285252Y-110774267D02*
X135380490Y-110821886D01*
X135380490Y-110821886D02*
X135428109Y-110869505D01*
X135428109Y-110869505D02*
X135475728Y-110964743D01*
X135475728Y-110964743D02*
X135475728Y-111202838D01*
X135475728Y-111202838D02*
X135428109Y-111298076D01*
X135428109Y-111298076D02*
X135380490Y-111345696D01*
X135380490Y-111345696D02*
X135285252Y-111393315D01*
X135285252Y-111393315D02*
X134999538Y-111393315D01*
X134999538Y-111393315D02*
X134904300Y-111345696D01*
X134904300Y-111345696D02*
X134856681Y-111298076D01*
X152859580Y-72642857D02*
X152907200Y-72690476D01*
X152907200Y-72690476D02*
X152954819Y-72833333D01*
X152954819Y-72833333D02*
X152954819Y-72928571D01*
X152954819Y-72928571D02*
X152907200Y-73071428D01*
X152907200Y-73071428D02*
X152811961Y-73166666D01*
X152811961Y-73166666D02*
X152716723Y-73214285D01*
X152716723Y-73214285D02*
X152526247Y-73261904D01*
X152526247Y-73261904D02*
X152383390Y-73261904D01*
X152383390Y-73261904D02*
X152192914Y-73214285D01*
X152192914Y-73214285D02*
X152097676Y-73166666D01*
X152097676Y-73166666D02*
X152002438Y-73071428D01*
X152002438Y-73071428D02*
X151954819Y-72928571D01*
X151954819Y-72928571D02*
X151954819Y-72833333D01*
X151954819Y-72833333D02*
X152002438Y-72690476D01*
X152002438Y-72690476D02*
X152050057Y-72642857D01*
X152954819Y-71690476D02*
X152954819Y-72261904D01*
X152954819Y-71976190D02*
X151954819Y-71976190D01*
X151954819Y-71976190D02*
X152097676Y-72071428D01*
X152097676Y-72071428D02*
X152192914Y-72166666D01*
X152192914Y-72166666D02*
X152240533Y-72261904D01*
X151954819Y-70785714D02*
X151954819Y-71261904D01*
X151954819Y-71261904D02*
X152431009Y-71309523D01*
X152431009Y-71309523D02*
X152383390Y-71261904D01*
X152383390Y-71261904D02*
X152335771Y-71166666D01*
X152335771Y-71166666D02*
X152335771Y-70928571D01*
X152335771Y-70928571D02*
X152383390Y-70833333D01*
X152383390Y-70833333D02*
X152431009Y-70785714D01*
X152431009Y-70785714D02*
X152526247Y-70738095D01*
X152526247Y-70738095D02*
X152764342Y-70738095D01*
X152764342Y-70738095D02*
X152859580Y-70785714D01*
X152859580Y-70785714D02*
X152907200Y-70833333D01*
X152907200Y-70833333D02*
X152954819Y-70928571D01*
X152954819Y-70928571D02*
X152954819Y-71166666D01*
X152954819Y-71166666D02*
X152907200Y-71261904D01*
X152907200Y-71261904D02*
X152859580Y-71309523D01*
X149370833Y-107634819D02*
X149037500Y-107158628D01*
X148799405Y-107634819D02*
X148799405Y-106634819D01*
X148799405Y-106634819D02*
X149180357Y-106634819D01*
X149180357Y-106634819D02*
X149275595Y-106682438D01*
X149275595Y-106682438D02*
X149323214Y-106730057D01*
X149323214Y-106730057D02*
X149370833Y-106825295D01*
X149370833Y-106825295D02*
X149370833Y-106968152D01*
X149370833Y-106968152D02*
X149323214Y-107063390D01*
X149323214Y-107063390D02*
X149275595Y-107111009D01*
X149275595Y-107111009D02*
X149180357Y-107158628D01*
X149180357Y-107158628D02*
X148799405Y-107158628D01*
X149751786Y-106730057D02*
X149799405Y-106682438D01*
X149799405Y-106682438D02*
X149894643Y-106634819D01*
X149894643Y-106634819D02*
X150132738Y-106634819D01*
X150132738Y-106634819D02*
X150227976Y-106682438D01*
X150227976Y-106682438D02*
X150275595Y-106730057D01*
X150275595Y-106730057D02*
X150323214Y-106825295D01*
X150323214Y-106825295D02*
X150323214Y-106920533D01*
X150323214Y-106920533D02*
X150275595Y-107063390D01*
X150275595Y-107063390D02*
X149704167Y-107634819D01*
X149704167Y-107634819D02*
X150323214Y-107634819D01*
X161173735Y-102073133D02*
X161126116Y-102120753D01*
X161126116Y-102120753D02*
X160983259Y-102168372D01*
X160983259Y-102168372D02*
X160888021Y-102168372D01*
X160888021Y-102168372D02*
X160745164Y-102120753D01*
X160745164Y-102120753D02*
X160649926Y-102025514D01*
X160649926Y-102025514D02*
X160602307Y-101930276D01*
X160602307Y-101930276D02*
X160554688Y-101739800D01*
X160554688Y-101739800D02*
X160554688Y-101596943D01*
X160554688Y-101596943D02*
X160602307Y-101406467D01*
X160602307Y-101406467D02*
X160649926Y-101311229D01*
X160649926Y-101311229D02*
X160745164Y-101215991D01*
X160745164Y-101215991D02*
X160888021Y-101168372D01*
X160888021Y-101168372D02*
X160983259Y-101168372D01*
X160983259Y-101168372D02*
X161126116Y-101215991D01*
X161126116Y-101215991D02*
X161173735Y-101263610D01*
X161649926Y-102168372D02*
X161840402Y-102168372D01*
X161840402Y-102168372D02*
X161935640Y-102120753D01*
X161935640Y-102120753D02*
X161983259Y-102073133D01*
X161983259Y-102073133D02*
X162078497Y-101930276D01*
X162078497Y-101930276D02*
X162126116Y-101739800D01*
X162126116Y-101739800D02*
X162126116Y-101358848D01*
X162126116Y-101358848D02*
X162078497Y-101263610D01*
X162078497Y-101263610D02*
X162030878Y-101215991D01*
X162030878Y-101215991D02*
X161935640Y-101168372D01*
X161935640Y-101168372D02*
X161745164Y-101168372D01*
X161745164Y-101168372D02*
X161649926Y-101215991D01*
X161649926Y-101215991D02*
X161602307Y-101263610D01*
X161602307Y-101263610D02*
X161554688Y-101358848D01*
X161554688Y-101358848D02*
X161554688Y-101596943D01*
X161554688Y-101596943D02*
X161602307Y-101692181D01*
X161602307Y-101692181D02*
X161649926Y-101739800D01*
X161649926Y-101739800D02*
X161745164Y-101787419D01*
X161745164Y-101787419D02*
X161935640Y-101787419D01*
X161935640Y-101787419D02*
X162030878Y-101739800D01*
X162030878Y-101739800D02*
X162078497Y-101692181D01*
X162078497Y-101692181D02*
X162126116Y-101596943D01*
X132599149Y-91861331D02*
X131599149Y-91861331D01*
X131599149Y-91861331D02*
X131599149Y-91623236D01*
X131599149Y-91623236D02*
X131646768Y-91480379D01*
X131646768Y-91480379D02*
X131742006Y-91385141D01*
X131742006Y-91385141D02*
X131837244Y-91337522D01*
X131837244Y-91337522D02*
X132027720Y-91289903D01*
X132027720Y-91289903D02*
X132170577Y-91289903D01*
X132170577Y-91289903D02*
X132361053Y-91337522D01*
X132361053Y-91337522D02*
X132456291Y-91385141D01*
X132456291Y-91385141D02*
X132551530Y-91480379D01*
X132551530Y-91480379D02*
X132599149Y-91623236D01*
X132599149Y-91623236D02*
X132599149Y-91861331D01*
X131694387Y-90908950D02*
X131646768Y-90861331D01*
X131646768Y-90861331D02*
X131599149Y-90766093D01*
X131599149Y-90766093D02*
X131599149Y-90527998D01*
X131599149Y-90527998D02*
X131646768Y-90432760D01*
X131646768Y-90432760D02*
X131694387Y-90385141D01*
X131694387Y-90385141D02*
X131789625Y-90337522D01*
X131789625Y-90337522D02*
X131884863Y-90337522D01*
X131884863Y-90337522D02*
X132027720Y-90385141D01*
X132027720Y-90385141D02*
X132599149Y-90956569D01*
X132599149Y-90956569D02*
X132599149Y-90337522D01*
X134554819Y-86181904D02*
X133554819Y-86181904D01*
X134554819Y-85610476D02*
X133983390Y-86039047D01*
X133554819Y-85610476D02*
X134126247Y-86181904D01*
X154225795Y-83692036D02*
X154273415Y-83739655D01*
X154273415Y-83739655D02*
X154321034Y-83882512D01*
X154321034Y-83882512D02*
X154321034Y-83977750D01*
X154321034Y-83977750D02*
X154273415Y-84120607D01*
X154273415Y-84120607D02*
X154178176Y-84215845D01*
X154178176Y-84215845D02*
X154082938Y-84263464D01*
X154082938Y-84263464D02*
X153892462Y-84311083D01*
X153892462Y-84311083D02*
X153749605Y-84311083D01*
X153749605Y-84311083D02*
X153559129Y-84263464D01*
X153559129Y-84263464D02*
X153463891Y-84215845D01*
X153463891Y-84215845D02*
X153368653Y-84120607D01*
X153368653Y-84120607D02*
X153321034Y-83977750D01*
X153321034Y-83977750D02*
X153321034Y-83882512D01*
X153321034Y-83882512D02*
X153368653Y-83739655D01*
X153368653Y-83739655D02*
X153416272Y-83692036D01*
X154321034Y-82739655D02*
X154321034Y-83311083D01*
X154321034Y-83025369D02*
X153321034Y-83025369D01*
X153321034Y-83025369D02*
X153463891Y-83120607D01*
X153463891Y-83120607D02*
X153559129Y-83215845D01*
X153559129Y-83215845D02*
X153606748Y-83311083D01*
X153321034Y-82406321D02*
X153321034Y-81787274D01*
X153321034Y-81787274D02*
X153701986Y-82120607D01*
X153701986Y-82120607D02*
X153701986Y-81977750D01*
X153701986Y-81977750D02*
X153749605Y-81882512D01*
X153749605Y-81882512D02*
X153797224Y-81834893D01*
X153797224Y-81834893D02*
X153892462Y-81787274D01*
X153892462Y-81787274D02*
X154130557Y-81787274D01*
X154130557Y-81787274D02*
X154225795Y-81834893D01*
X154225795Y-81834893D02*
X154273415Y-81882512D01*
X154273415Y-81882512D02*
X154321034Y-81977750D01*
X154321034Y-81977750D02*
X154321034Y-82263464D01*
X154321034Y-82263464D02*
X154273415Y-82358702D01*
X154273415Y-82358702D02*
X154225795Y-82406321D01*
X126964358Y-112354567D02*
X126964358Y-111354567D01*
X126964358Y-111354567D02*
X127202453Y-111354567D01*
X127202453Y-111354567D02*
X127345310Y-111402186D01*
X127345310Y-111402186D02*
X127440548Y-111497424D01*
X127440548Y-111497424D02*
X127488167Y-111592662D01*
X127488167Y-111592662D02*
X127535786Y-111783138D01*
X127535786Y-111783138D02*
X127535786Y-111925995D01*
X127535786Y-111925995D02*
X127488167Y-112116471D01*
X127488167Y-112116471D02*
X127440548Y-112211709D01*
X127440548Y-112211709D02*
X127345310Y-112306948D01*
X127345310Y-112306948D02*
X127202453Y-112354567D01*
X127202453Y-112354567D02*
X126964358Y-112354567D01*
X128488167Y-112354567D02*
X127916739Y-112354567D01*
X128202453Y-112354567D02*
X128202453Y-111354567D01*
X128202453Y-111354567D02*
X128107215Y-111497424D01*
X128107215Y-111497424D02*
X128011977Y-111592662D01*
X128011977Y-111592662D02*
X127916739Y-111640281D01*
X181805131Y-88736488D02*
X181471798Y-88260297D01*
X181233703Y-88736488D02*
X181233703Y-87736488D01*
X181233703Y-87736488D02*
X181614655Y-87736488D01*
X181614655Y-87736488D02*
X181709893Y-87784107D01*
X181709893Y-87784107D02*
X181757512Y-87831726D01*
X181757512Y-87831726D02*
X181805131Y-87926964D01*
X181805131Y-87926964D02*
X181805131Y-88069821D01*
X181805131Y-88069821D02*
X181757512Y-88165059D01*
X181757512Y-88165059D02*
X181709893Y-88212678D01*
X181709893Y-88212678D02*
X181614655Y-88260297D01*
X181614655Y-88260297D02*
X181233703Y-88260297D01*
X182281322Y-88736488D02*
X182471798Y-88736488D01*
X182471798Y-88736488D02*
X182567036Y-88688869D01*
X182567036Y-88688869D02*
X182614655Y-88641249D01*
X182614655Y-88641249D02*
X182709893Y-88498392D01*
X182709893Y-88498392D02*
X182757512Y-88307916D01*
X182757512Y-88307916D02*
X182757512Y-87926964D01*
X182757512Y-87926964D02*
X182709893Y-87831726D01*
X182709893Y-87831726D02*
X182662274Y-87784107D01*
X182662274Y-87784107D02*
X182567036Y-87736488D01*
X182567036Y-87736488D02*
X182376560Y-87736488D01*
X182376560Y-87736488D02*
X182281322Y-87784107D01*
X182281322Y-87784107D02*
X182233703Y-87831726D01*
X182233703Y-87831726D02*
X182186084Y-87926964D01*
X182186084Y-87926964D02*
X182186084Y-88165059D01*
X182186084Y-88165059D02*
X182233703Y-88260297D01*
X182233703Y-88260297D02*
X182281322Y-88307916D01*
X182281322Y-88307916D02*
X182376560Y-88355535D01*
X182376560Y-88355535D02*
X182567036Y-88355535D01*
X182567036Y-88355535D02*
X182662274Y-88307916D01*
X182662274Y-88307916D02*
X182709893Y-88260297D01*
X182709893Y-88260297D02*
X182757512Y-88165059D01*
X132379166Y-80501009D02*
X132045833Y-80501009D01*
X132045833Y-81024819D02*
X132045833Y-80024819D01*
X132045833Y-80024819D02*
X132522023Y-80024819D01*
X133236309Y-80501009D02*
X133379166Y-80548628D01*
X133379166Y-80548628D02*
X133426785Y-80596247D01*
X133426785Y-80596247D02*
X133474404Y-80691485D01*
X133474404Y-80691485D02*
X133474404Y-80834342D01*
X133474404Y-80834342D02*
X133426785Y-80929580D01*
X133426785Y-80929580D02*
X133379166Y-80977200D01*
X133379166Y-80977200D02*
X133283928Y-81024819D01*
X133283928Y-81024819D02*
X132902976Y-81024819D01*
X132902976Y-81024819D02*
X132902976Y-80024819D01*
X132902976Y-80024819D02*
X133236309Y-80024819D01*
X133236309Y-80024819D02*
X133331547Y-80072438D01*
X133331547Y-80072438D02*
X133379166Y-80120057D01*
X133379166Y-80120057D02*
X133426785Y-80215295D01*
X133426785Y-80215295D02*
X133426785Y-80310533D01*
X133426785Y-80310533D02*
X133379166Y-80405771D01*
X133379166Y-80405771D02*
X133331547Y-80453390D01*
X133331547Y-80453390D02*
X133236309Y-80501009D01*
X133236309Y-80501009D02*
X132902976Y-80501009D01*
X134426785Y-81024819D02*
X133855357Y-81024819D01*
X134141071Y-81024819D02*
X134141071Y-80024819D01*
X134141071Y-80024819D02*
X134045833Y-80167676D01*
X134045833Y-80167676D02*
X133950595Y-80262914D01*
X133950595Y-80262914D02*
X133855357Y-80310533D01*
X110509580Y-89691666D02*
X110557200Y-89739285D01*
X110557200Y-89739285D02*
X110604819Y-89882142D01*
X110604819Y-89882142D02*
X110604819Y-89977380D01*
X110604819Y-89977380D02*
X110557200Y-90120237D01*
X110557200Y-90120237D02*
X110461961Y-90215475D01*
X110461961Y-90215475D02*
X110366723Y-90263094D01*
X110366723Y-90263094D02*
X110176247Y-90310713D01*
X110176247Y-90310713D02*
X110033390Y-90310713D01*
X110033390Y-90310713D02*
X109842914Y-90263094D01*
X109842914Y-90263094D02*
X109747676Y-90215475D01*
X109747676Y-90215475D02*
X109652438Y-90120237D01*
X109652438Y-90120237D02*
X109604819Y-89977380D01*
X109604819Y-89977380D02*
X109604819Y-89882142D01*
X109604819Y-89882142D02*
X109652438Y-89739285D01*
X109652438Y-89739285D02*
X109700057Y-89691666D01*
X109938152Y-88834523D02*
X110604819Y-88834523D01*
X109557200Y-89072618D02*
X110271485Y-89310713D01*
X110271485Y-89310713D02*
X110271485Y-88691666D01*
X157209580Y-90166666D02*
X157257200Y-90214285D01*
X157257200Y-90214285D02*
X157304819Y-90357142D01*
X157304819Y-90357142D02*
X157304819Y-90452380D01*
X157304819Y-90452380D02*
X157257200Y-90595237D01*
X157257200Y-90595237D02*
X157161961Y-90690475D01*
X157161961Y-90690475D02*
X157066723Y-90738094D01*
X157066723Y-90738094D02*
X156876247Y-90785713D01*
X156876247Y-90785713D02*
X156733390Y-90785713D01*
X156733390Y-90785713D02*
X156542914Y-90738094D01*
X156542914Y-90738094D02*
X156447676Y-90690475D01*
X156447676Y-90690475D02*
X156352438Y-90595237D01*
X156352438Y-90595237D02*
X156304819Y-90452380D01*
X156304819Y-90452380D02*
X156304819Y-90357142D01*
X156304819Y-90357142D02*
X156352438Y-90214285D01*
X156352438Y-90214285D02*
X156400057Y-90166666D01*
X156304819Y-89261904D02*
X156304819Y-89738094D01*
X156304819Y-89738094D02*
X156781009Y-89785713D01*
X156781009Y-89785713D02*
X156733390Y-89738094D01*
X156733390Y-89738094D02*
X156685771Y-89642856D01*
X156685771Y-89642856D02*
X156685771Y-89404761D01*
X156685771Y-89404761D02*
X156733390Y-89309523D01*
X156733390Y-89309523D02*
X156781009Y-89261904D01*
X156781009Y-89261904D02*
X156876247Y-89214285D01*
X156876247Y-89214285D02*
X157114342Y-89214285D01*
X157114342Y-89214285D02*
X157209580Y-89261904D01*
X157209580Y-89261904D02*
X157257200Y-89309523D01*
X157257200Y-89309523D02*
X157304819Y-89404761D01*
X157304819Y-89404761D02*
X157304819Y-89642856D01*
X157304819Y-89642856D02*
X157257200Y-89738094D01*
X157257200Y-89738094D02*
X157209580Y-89785713D01*
X154894642Y-76634819D02*
X154561309Y-76158628D01*
X154323214Y-76634819D02*
X154323214Y-75634819D01*
X154323214Y-75634819D02*
X154704166Y-75634819D01*
X154704166Y-75634819D02*
X154799404Y-75682438D01*
X154799404Y-75682438D02*
X154847023Y-75730057D01*
X154847023Y-75730057D02*
X154894642Y-75825295D01*
X154894642Y-75825295D02*
X154894642Y-75968152D01*
X154894642Y-75968152D02*
X154847023Y-76063390D01*
X154847023Y-76063390D02*
X154799404Y-76111009D01*
X154799404Y-76111009D02*
X154704166Y-76158628D01*
X154704166Y-76158628D02*
X154323214Y-76158628D01*
X155847023Y-76634819D02*
X155275595Y-76634819D01*
X155561309Y-76634819D02*
X155561309Y-75634819D01*
X155561309Y-75634819D02*
X155466071Y-75777676D01*
X155466071Y-75777676D02*
X155370833Y-75872914D01*
X155370833Y-75872914D02*
X155275595Y-75920533D01*
X156751785Y-75634819D02*
X156275595Y-75634819D01*
X156275595Y-75634819D02*
X156227976Y-76111009D01*
X156227976Y-76111009D02*
X156275595Y-76063390D01*
X156275595Y-76063390D02*
X156370833Y-76015771D01*
X156370833Y-76015771D02*
X156608928Y-76015771D01*
X156608928Y-76015771D02*
X156704166Y-76063390D01*
X156704166Y-76063390D02*
X156751785Y-76111009D01*
X156751785Y-76111009D02*
X156799404Y-76206247D01*
X156799404Y-76206247D02*
X156799404Y-76444342D01*
X156799404Y-76444342D02*
X156751785Y-76539580D01*
X156751785Y-76539580D02*
X156704166Y-76587200D01*
X156704166Y-76587200D02*
X156608928Y-76634819D01*
X156608928Y-76634819D02*
X156370833Y-76634819D01*
X156370833Y-76634819D02*
X156275595Y-76587200D01*
X156275595Y-76587200D02*
X156227976Y-76539580D01*
X185247890Y-85630905D02*
X184914557Y-85154714D01*
X184676462Y-85630905D02*
X184676462Y-84630905D01*
X184676462Y-84630905D02*
X185057414Y-84630905D01*
X185057414Y-84630905D02*
X185152652Y-84678524D01*
X185152652Y-84678524D02*
X185200271Y-84726143D01*
X185200271Y-84726143D02*
X185247890Y-84821381D01*
X185247890Y-84821381D02*
X185247890Y-84964238D01*
X185247890Y-84964238D02*
X185200271Y-85059476D01*
X185200271Y-85059476D02*
X185152652Y-85107095D01*
X185152652Y-85107095D02*
X185057414Y-85154714D01*
X185057414Y-85154714D02*
X184676462Y-85154714D01*
X186200271Y-85630905D02*
X185628843Y-85630905D01*
X185914557Y-85630905D02*
X185914557Y-84630905D01*
X185914557Y-84630905D02*
X185819319Y-84773762D01*
X185819319Y-84773762D02*
X185724081Y-84869000D01*
X185724081Y-84869000D02*
X185628843Y-84916619D01*
X186819319Y-84630905D02*
X186914557Y-84630905D01*
X186914557Y-84630905D02*
X187009795Y-84678524D01*
X187009795Y-84678524D02*
X187057414Y-84726143D01*
X187057414Y-84726143D02*
X187105033Y-84821381D01*
X187105033Y-84821381D02*
X187152652Y-85011857D01*
X187152652Y-85011857D02*
X187152652Y-85249952D01*
X187152652Y-85249952D02*
X187105033Y-85440428D01*
X187105033Y-85440428D02*
X187057414Y-85535666D01*
X187057414Y-85535666D02*
X187009795Y-85583286D01*
X187009795Y-85583286D02*
X186914557Y-85630905D01*
X186914557Y-85630905D02*
X186819319Y-85630905D01*
X186819319Y-85630905D02*
X186724081Y-85583286D01*
X186724081Y-85583286D02*
X186676462Y-85535666D01*
X186676462Y-85535666D02*
X186628843Y-85440428D01*
X186628843Y-85440428D02*
X186581224Y-85249952D01*
X186581224Y-85249952D02*
X186581224Y-85011857D01*
X186581224Y-85011857D02*
X186628843Y-84821381D01*
X186628843Y-84821381D02*
X186676462Y-84726143D01*
X186676462Y-84726143D02*
X186724081Y-84678524D01*
X186724081Y-84678524D02*
X186819319Y-84630905D01*
X107738297Y-102750385D02*
X107690678Y-102798005D01*
X107690678Y-102798005D02*
X107547821Y-102845624D01*
X107547821Y-102845624D02*
X107452583Y-102845624D01*
X107452583Y-102845624D02*
X107309726Y-102798005D01*
X107309726Y-102798005D02*
X107214488Y-102702766D01*
X107214488Y-102702766D02*
X107166869Y-102607528D01*
X107166869Y-102607528D02*
X107119250Y-102417052D01*
X107119250Y-102417052D02*
X107119250Y-102274195D01*
X107119250Y-102274195D02*
X107166869Y-102083719D01*
X107166869Y-102083719D02*
X107214488Y-101988481D01*
X107214488Y-101988481D02*
X107309726Y-101893243D01*
X107309726Y-101893243D02*
X107452583Y-101845624D01*
X107452583Y-101845624D02*
X107547821Y-101845624D01*
X107547821Y-101845624D02*
X107690678Y-101893243D01*
X107690678Y-101893243D02*
X107738297Y-101940862D01*
X108071631Y-101845624D02*
X108690678Y-101845624D01*
X108690678Y-101845624D02*
X108357345Y-102226576D01*
X108357345Y-102226576D02*
X108500202Y-102226576D01*
X108500202Y-102226576D02*
X108595440Y-102274195D01*
X108595440Y-102274195D02*
X108643059Y-102321814D01*
X108643059Y-102321814D02*
X108690678Y-102417052D01*
X108690678Y-102417052D02*
X108690678Y-102655147D01*
X108690678Y-102655147D02*
X108643059Y-102750385D01*
X108643059Y-102750385D02*
X108595440Y-102798005D01*
X108595440Y-102798005D02*
X108500202Y-102845624D01*
X108500202Y-102845624D02*
X108214488Y-102845624D01*
X108214488Y-102845624D02*
X108119250Y-102798005D01*
X108119250Y-102798005D02*
X108071631Y-102750385D01*
X141787361Y-92528443D02*
X141739742Y-92576063D01*
X141739742Y-92576063D02*
X141596885Y-92623682D01*
X141596885Y-92623682D02*
X141501647Y-92623682D01*
X141501647Y-92623682D02*
X141358790Y-92576063D01*
X141358790Y-92576063D02*
X141263552Y-92480824D01*
X141263552Y-92480824D02*
X141215933Y-92385586D01*
X141215933Y-92385586D02*
X141168314Y-92195110D01*
X141168314Y-92195110D02*
X141168314Y-92052253D01*
X141168314Y-92052253D02*
X141215933Y-91861777D01*
X141215933Y-91861777D02*
X141263552Y-91766539D01*
X141263552Y-91766539D02*
X141358790Y-91671301D01*
X141358790Y-91671301D02*
X141501647Y-91623682D01*
X141501647Y-91623682D02*
X141596885Y-91623682D01*
X141596885Y-91623682D02*
X141739742Y-91671301D01*
X141739742Y-91671301D02*
X141787361Y-91718920D01*
X142644504Y-91623682D02*
X142454028Y-91623682D01*
X142454028Y-91623682D02*
X142358790Y-91671301D01*
X142358790Y-91671301D02*
X142311171Y-91718920D01*
X142311171Y-91718920D02*
X142215933Y-91861777D01*
X142215933Y-91861777D02*
X142168314Y-92052253D01*
X142168314Y-92052253D02*
X142168314Y-92433205D01*
X142168314Y-92433205D02*
X142215933Y-92528443D01*
X142215933Y-92528443D02*
X142263552Y-92576063D01*
X142263552Y-92576063D02*
X142358790Y-92623682D01*
X142358790Y-92623682D02*
X142549266Y-92623682D01*
X142549266Y-92623682D02*
X142644504Y-92576063D01*
X142644504Y-92576063D02*
X142692123Y-92528443D01*
X142692123Y-92528443D02*
X142739742Y-92433205D01*
X142739742Y-92433205D02*
X142739742Y-92195110D01*
X142739742Y-92195110D02*
X142692123Y-92099872D01*
X142692123Y-92099872D02*
X142644504Y-92052253D01*
X142644504Y-92052253D02*
X142549266Y-92004634D01*
X142549266Y-92004634D02*
X142358790Y-92004634D01*
X142358790Y-92004634D02*
X142263552Y-92052253D01*
X142263552Y-92052253D02*
X142215933Y-92099872D01*
X142215933Y-92099872D02*
X142168314Y-92195110D01*
X109864192Y-86415867D02*
X109816573Y-86463487D01*
X109816573Y-86463487D02*
X109673716Y-86511106D01*
X109673716Y-86511106D02*
X109578478Y-86511106D01*
X109578478Y-86511106D02*
X109435621Y-86463487D01*
X109435621Y-86463487D02*
X109340383Y-86368248D01*
X109340383Y-86368248D02*
X109292764Y-86273010D01*
X109292764Y-86273010D02*
X109245145Y-86082534D01*
X109245145Y-86082534D02*
X109245145Y-85939677D01*
X109245145Y-85939677D02*
X109292764Y-85749201D01*
X109292764Y-85749201D02*
X109340383Y-85653963D01*
X109340383Y-85653963D02*
X109435621Y-85558725D01*
X109435621Y-85558725D02*
X109578478Y-85511106D01*
X109578478Y-85511106D02*
X109673716Y-85511106D01*
X109673716Y-85511106D02*
X109816573Y-85558725D01*
X109816573Y-85558725D02*
X109864192Y-85606344D01*
X110816573Y-86511106D02*
X110245145Y-86511106D01*
X110530859Y-86511106D02*
X110530859Y-85511106D01*
X110530859Y-85511106D02*
X110435621Y-85653963D01*
X110435621Y-85653963D02*
X110340383Y-85749201D01*
X110340383Y-85749201D02*
X110245145Y-85796820D01*
X111435621Y-85511106D02*
X111530859Y-85511106D01*
X111530859Y-85511106D02*
X111626097Y-85558725D01*
X111626097Y-85558725D02*
X111673716Y-85606344D01*
X111673716Y-85606344D02*
X111721335Y-85701582D01*
X111721335Y-85701582D02*
X111768954Y-85892058D01*
X111768954Y-85892058D02*
X111768954Y-86130153D01*
X111768954Y-86130153D02*
X111721335Y-86320629D01*
X111721335Y-86320629D02*
X111673716Y-86415867D01*
X111673716Y-86415867D02*
X111626097Y-86463487D01*
X111626097Y-86463487D02*
X111530859Y-86511106D01*
X111530859Y-86511106D02*
X111435621Y-86511106D01*
X111435621Y-86511106D02*
X111340383Y-86463487D01*
X111340383Y-86463487D02*
X111292764Y-86415867D01*
X111292764Y-86415867D02*
X111245145Y-86320629D01*
X111245145Y-86320629D02*
X111197526Y-86130153D01*
X111197526Y-86130153D02*
X111197526Y-85892058D01*
X111197526Y-85892058D02*
X111245145Y-85701582D01*
X111245145Y-85701582D02*
X111292764Y-85606344D01*
X111292764Y-85606344D02*
X111340383Y-85558725D01*
X111340383Y-85558725D02*
X111435621Y-85511106D01*
X137794469Y-92479148D02*
X137746850Y-92526768D01*
X137746850Y-92526768D02*
X137603993Y-92574387D01*
X137603993Y-92574387D02*
X137508755Y-92574387D01*
X137508755Y-92574387D02*
X137365898Y-92526768D01*
X137365898Y-92526768D02*
X137270660Y-92431529D01*
X137270660Y-92431529D02*
X137223041Y-92336291D01*
X137223041Y-92336291D02*
X137175422Y-92145815D01*
X137175422Y-92145815D02*
X137175422Y-92002958D01*
X137175422Y-92002958D02*
X137223041Y-91812482D01*
X137223041Y-91812482D02*
X137270660Y-91717244D01*
X137270660Y-91717244D02*
X137365898Y-91622006D01*
X137365898Y-91622006D02*
X137508755Y-91574387D01*
X137508755Y-91574387D02*
X137603993Y-91574387D01*
X137603993Y-91574387D02*
X137746850Y-91622006D01*
X137746850Y-91622006D02*
X137794469Y-91669625D01*
X138127803Y-91574387D02*
X138794469Y-91574387D01*
X138794469Y-91574387D02*
X138365898Y-92574387D01*
X118019070Y-79461926D02*
X117685737Y-78985735D01*
X117447642Y-79461926D02*
X117447642Y-78461926D01*
X117447642Y-78461926D02*
X117828594Y-78461926D01*
X117828594Y-78461926D02*
X117923832Y-78509545D01*
X117923832Y-78509545D02*
X117971451Y-78557164D01*
X117971451Y-78557164D02*
X118019070Y-78652402D01*
X118019070Y-78652402D02*
X118019070Y-78795259D01*
X118019070Y-78795259D02*
X117971451Y-78890497D01*
X117971451Y-78890497D02*
X117923832Y-78938116D01*
X117923832Y-78938116D02*
X117828594Y-78985735D01*
X117828594Y-78985735D02*
X117447642Y-78985735D01*
X118971451Y-79461926D02*
X118400023Y-79461926D01*
X118685737Y-79461926D02*
X118685737Y-78461926D01*
X118685737Y-78461926D02*
X118590499Y-78604783D01*
X118590499Y-78604783D02*
X118495261Y-78700021D01*
X118495261Y-78700021D02*
X118400023Y-78747640D01*
X119304785Y-78461926D02*
X119923832Y-78461926D01*
X119923832Y-78461926D02*
X119590499Y-78842878D01*
X119590499Y-78842878D02*
X119733356Y-78842878D01*
X119733356Y-78842878D02*
X119828594Y-78890497D01*
X119828594Y-78890497D02*
X119876213Y-78938116D01*
X119876213Y-78938116D02*
X119923832Y-79033354D01*
X119923832Y-79033354D02*
X119923832Y-79271449D01*
X119923832Y-79271449D02*
X119876213Y-79366687D01*
X119876213Y-79366687D02*
X119828594Y-79414307D01*
X119828594Y-79414307D02*
X119733356Y-79461926D01*
X119733356Y-79461926D02*
X119447642Y-79461926D01*
X119447642Y-79461926D02*
X119352404Y-79414307D01*
X119352404Y-79414307D02*
X119304785Y-79366687D01*
X184084819Y-96642857D02*
X183608628Y-96976190D01*
X184084819Y-97214285D02*
X183084819Y-97214285D01*
X183084819Y-97214285D02*
X183084819Y-96833333D01*
X183084819Y-96833333D02*
X183132438Y-96738095D01*
X183132438Y-96738095D02*
X183180057Y-96690476D01*
X183180057Y-96690476D02*
X183275295Y-96642857D01*
X183275295Y-96642857D02*
X183418152Y-96642857D01*
X183418152Y-96642857D02*
X183513390Y-96690476D01*
X183513390Y-96690476D02*
X183561009Y-96738095D01*
X183561009Y-96738095D02*
X183608628Y-96833333D01*
X183608628Y-96833333D02*
X183608628Y-97214285D01*
X184084819Y-95690476D02*
X184084819Y-96261904D01*
X184084819Y-95976190D02*
X183084819Y-95976190D01*
X183084819Y-95976190D02*
X183227676Y-96071428D01*
X183227676Y-96071428D02*
X183322914Y-96166666D01*
X183322914Y-96166666D02*
X183370533Y-96261904D01*
X183418152Y-94833333D02*
X184084819Y-94833333D01*
X183037200Y-95071428D02*
X183751485Y-95309523D01*
X183751485Y-95309523D02*
X183751485Y-94690476D01*
X125302157Y-93603327D02*
X124825966Y-93936660D01*
X125302157Y-94174755D02*
X124302157Y-94174755D01*
X124302157Y-94174755D02*
X124302157Y-93793803D01*
X124302157Y-93793803D02*
X124349776Y-93698565D01*
X124349776Y-93698565D02*
X124397395Y-93650946D01*
X124397395Y-93650946D02*
X124492633Y-93603327D01*
X124492633Y-93603327D02*
X124635490Y-93603327D01*
X124635490Y-93603327D02*
X124730728Y-93650946D01*
X124730728Y-93650946D02*
X124778347Y-93698565D01*
X124778347Y-93698565D02*
X124825966Y-93793803D01*
X124825966Y-93793803D02*
X124825966Y-94174755D01*
X124302157Y-92698565D02*
X124302157Y-93174755D01*
X124302157Y-93174755D02*
X124778347Y-93222374D01*
X124778347Y-93222374D02*
X124730728Y-93174755D01*
X124730728Y-93174755D02*
X124683109Y-93079517D01*
X124683109Y-93079517D02*
X124683109Y-92841422D01*
X124683109Y-92841422D02*
X124730728Y-92746184D01*
X124730728Y-92746184D02*
X124778347Y-92698565D01*
X124778347Y-92698565D02*
X124873585Y-92650946D01*
X124873585Y-92650946D02*
X125111680Y-92650946D01*
X125111680Y-92650946D02*
X125206918Y-92698565D01*
X125206918Y-92698565D02*
X125254538Y-92746184D01*
X125254538Y-92746184D02*
X125302157Y-92841422D01*
X125302157Y-92841422D02*
X125302157Y-93079517D01*
X125302157Y-93079517D02*
X125254538Y-93174755D01*
X125254538Y-93174755D02*
X125206918Y-93222374D01*
X149213918Y-76993306D02*
X149166299Y-77040926D01*
X149166299Y-77040926D02*
X149023442Y-77088545D01*
X149023442Y-77088545D02*
X148928204Y-77088545D01*
X148928204Y-77088545D02*
X148785347Y-77040926D01*
X148785347Y-77040926D02*
X148690109Y-76945687D01*
X148690109Y-76945687D02*
X148642490Y-76850449D01*
X148642490Y-76850449D02*
X148594871Y-76659973D01*
X148594871Y-76659973D02*
X148594871Y-76517116D01*
X148594871Y-76517116D02*
X148642490Y-76326640D01*
X148642490Y-76326640D02*
X148690109Y-76231402D01*
X148690109Y-76231402D02*
X148785347Y-76136164D01*
X148785347Y-76136164D02*
X148928204Y-76088545D01*
X148928204Y-76088545D02*
X149023442Y-76088545D01*
X149023442Y-76088545D02*
X149166299Y-76136164D01*
X149166299Y-76136164D02*
X149213918Y-76183783D01*
X150166299Y-77088545D02*
X149594871Y-77088545D01*
X149880585Y-77088545D02*
X149880585Y-76088545D01*
X149880585Y-76088545D02*
X149785347Y-76231402D01*
X149785347Y-76231402D02*
X149690109Y-76326640D01*
X149690109Y-76326640D02*
X149594871Y-76374259D01*
X151023442Y-76421878D02*
X151023442Y-77088545D01*
X150785347Y-76040926D02*
X150547252Y-76755211D01*
X150547252Y-76755211D02*
X151166299Y-76755211D01*
X130338003Y-83624449D02*
X129861812Y-83957782D01*
X130338003Y-84195877D02*
X129338003Y-84195877D01*
X129338003Y-84195877D02*
X129338003Y-83814925D01*
X129338003Y-83814925D02*
X129385622Y-83719687D01*
X129385622Y-83719687D02*
X129433241Y-83672068D01*
X129433241Y-83672068D02*
X129528479Y-83624449D01*
X129528479Y-83624449D02*
X129671336Y-83624449D01*
X129671336Y-83624449D02*
X129766574Y-83672068D01*
X129766574Y-83672068D02*
X129814193Y-83719687D01*
X129814193Y-83719687D02*
X129861812Y-83814925D01*
X129861812Y-83814925D02*
X129861812Y-84195877D01*
X130338003Y-82672068D02*
X130338003Y-83243496D01*
X130338003Y-82957782D02*
X129338003Y-82957782D01*
X129338003Y-82957782D02*
X129480860Y-83053020D01*
X129480860Y-83053020D02*
X129576098Y-83148258D01*
X129576098Y-83148258D02*
X129623717Y-83243496D01*
X130338003Y-81719687D02*
X130338003Y-82291115D01*
X130338003Y-82005401D02*
X129338003Y-82005401D01*
X129338003Y-82005401D02*
X129480860Y-82100639D01*
X129480860Y-82100639D02*
X129576098Y-82195877D01*
X129576098Y-82195877D02*
X129623717Y-82291115D01*
X105018189Y-95921228D02*
X104541999Y-95921228D01*
X104541999Y-95921228D02*
X104541999Y-94921228D01*
X105875332Y-95921228D02*
X105303904Y-95921228D01*
X105589618Y-95921228D02*
X105589618Y-94921228D01*
X105589618Y-94921228D02*
X105494380Y-95064085D01*
X105494380Y-95064085D02*
X105399142Y-95159323D01*
X105399142Y-95159323D02*
X105303904Y-95206942D01*
X109882142Y-79509580D02*
X109834523Y-79557200D01*
X109834523Y-79557200D02*
X109691666Y-79604819D01*
X109691666Y-79604819D02*
X109596428Y-79604819D01*
X109596428Y-79604819D02*
X109453571Y-79557200D01*
X109453571Y-79557200D02*
X109358333Y-79461961D01*
X109358333Y-79461961D02*
X109310714Y-79366723D01*
X109310714Y-79366723D02*
X109263095Y-79176247D01*
X109263095Y-79176247D02*
X109263095Y-79033390D01*
X109263095Y-79033390D02*
X109310714Y-78842914D01*
X109310714Y-78842914D02*
X109358333Y-78747676D01*
X109358333Y-78747676D02*
X109453571Y-78652438D01*
X109453571Y-78652438D02*
X109596428Y-78604819D01*
X109596428Y-78604819D02*
X109691666Y-78604819D01*
X109691666Y-78604819D02*
X109834523Y-78652438D01*
X109834523Y-78652438D02*
X109882142Y-78700057D01*
X110834523Y-79604819D02*
X110263095Y-79604819D01*
X110548809Y-79604819D02*
X110548809Y-78604819D01*
X110548809Y-78604819D02*
X110453571Y-78747676D01*
X110453571Y-78747676D02*
X110358333Y-78842914D01*
X110358333Y-78842914D02*
X110263095Y-78890533D01*
X111786904Y-79604819D02*
X111215476Y-79604819D01*
X111501190Y-79604819D02*
X111501190Y-78604819D01*
X111501190Y-78604819D02*
X111405952Y-78747676D01*
X111405952Y-78747676D02*
X111310714Y-78842914D01*
X111310714Y-78842914D02*
X111215476Y-78890533D01*
X141833333Y-107454819D02*
X141500000Y-106978628D01*
X141261905Y-107454819D02*
X141261905Y-106454819D01*
X141261905Y-106454819D02*
X141642857Y-106454819D01*
X141642857Y-106454819D02*
X141738095Y-106502438D01*
X141738095Y-106502438D02*
X141785714Y-106550057D01*
X141785714Y-106550057D02*
X141833333Y-106645295D01*
X141833333Y-106645295D02*
X141833333Y-106788152D01*
X141833333Y-106788152D02*
X141785714Y-106883390D01*
X141785714Y-106883390D02*
X141738095Y-106931009D01*
X141738095Y-106931009D02*
X141642857Y-106978628D01*
X141642857Y-106978628D02*
X141261905Y-106978628D01*
X142166667Y-106454819D02*
X142785714Y-106454819D01*
X142785714Y-106454819D02*
X142452381Y-106835771D01*
X142452381Y-106835771D02*
X142595238Y-106835771D01*
X142595238Y-106835771D02*
X142690476Y-106883390D01*
X142690476Y-106883390D02*
X142738095Y-106931009D01*
X142738095Y-106931009D02*
X142785714Y-107026247D01*
X142785714Y-107026247D02*
X142785714Y-107264342D01*
X142785714Y-107264342D02*
X142738095Y-107359580D01*
X142738095Y-107359580D02*
X142690476Y-107407200D01*
X142690476Y-107407200D02*
X142595238Y-107454819D01*
X142595238Y-107454819D02*
X142309524Y-107454819D01*
X142309524Y-107454819D02*
X142214286Y-107407200D01*
X142214286Y-107407200D02*
X142166667Y-107359580D01*
X121882142Y-91209580D02*
X121834523Y-91257200D01*
X121834523Y-91257200D02*
X121691666Y-91304819D01*
X121691666Y-91304819D02*
X121596428Y-91304819D01*
X121596428Y-91304819D02*
X121453571Y-91257200D01*
X121453571Y-91257200D02*
X121358333Y-91161961D01*
X121358333Y-91161961D02*
X121310714Y-91066723D01*
X121310714Y-91066723D02*
X121263095Y-90876247D01*
X121263095Y-90876247D02*
X121263095Y-90733390D01*
X121263095Y-90733390D02*
X121310714Y-90542914D01*
X121310714Y-90542914D02*
X121358333Y-90447676D01*
X121358333Y-90447676D02*
X121453571Y-90352438D01*
X121453571Y-90352438D02*
X121596428Y-90304819D01*
X121596428Y-90304819D02*
X121691666Y-90304819D01*
X121691666Y-90304819D02*
X121834523Y-90352438D01*
X121834523Y-90352438D02*
X121882142Y-90400057D01*
X122834523Y-91304819D02*
X122263095Y-91304819D01*
X122548809Y-91304819D02*
X122548809Y-90304819D01*
X122548809Y-90304819D02*
X122453571Y-90447676D01*
X122453571Y-90447676D02*
X122358333Y-90542914D01*
X122358333Y-90542914D02*
X122263095Y-90590533D01*
X123215476Y-90400057D02*
X123263095Y-90352438D01*
X123263095Y-90352438D02*
X123358333Y-90304819D01*
X123358333Y-90304819D02*
X123596428Y-90304819D01*
X123596428Y-90304819D02*
X123691666Y-90352438D01*
X123691666Y-90352438D02*
X123739285Y-90400057D01*
X123739285Y-90400057D02*
X123786904Y-90495295D01*
X123786904Y-90495295D02*
X123786904Y-90590533D01*
X123786904Y-90590533D02*
X123739285Y-90733390D01*
X123739285Y-90733390D02*
X123167857Y-91304819D01*
X123167857Y-91304819D02*
X123786904Y-91304819D01*
X127824819Y-105246666D02*
X127348628Y-105579999D01*
X127824819Y-105818094D02*
X126824819Y-105818094D01*
X126824819Y-105818094D02*
X126824819Y-105437142D01*
X126824819Y-105437142D02*
X126872438Y-105341904D01*
X126872438Y-105341904D02*
X126920057Y-105294285D01*
X126920057Y-105294285D02*
X127015295Y-105246666D01*
X127015295Y-105246666D02*
X127158152Y-105246666D01*
X127158152Y-105246666D02*
X127253390Y-105294285D01*
X127253390Y-105294285D02*
X127301009Y-105341904D01*
X127301009Y-105341904D02*
X127348628Y-105437142D01*
X127348628Y-105437142D02*
X127348628Y-105818094D01*
X127824819Y-104294285D02*
X127824819Y-104865713D01*
X127824819Y-104579999D02*
X126824819Y-104579999D01*
X126824819Y-104579999D02*
X126967676Y-104675237D01*
X126967676Y-104675237D02*
X127062914Y-104770475D01*
X127062914Y-104770475D02*
X127110533Y-104865713D01*
X121634819Y-83642857D02*
X121158628Y-83976190D01*
X121634819Y-84214285D02*
X120634819Y-84214285D01*
X120634819Y-84214285D02*
X120634819Y-83833333D01*
X120634819Y-83833333D02*
X120682438Y-83738095D01*
X120682438Y-83738095D02*
X120730057Y-83690476D01*
X120730057Y-83690476D02*
X120825295Y-83642857D01*
X120825295Y-83642857D02*
X120968152Y-83642857D01*
X120968152Y-83642857D02*
X121063390Y-83690476D01*
X121063390Y-83690476D02*
X121111009Y-83738095D01*
X121111009Y-83738095D02*
X121158628Y-83833333D01*
X121158628Y-83833333D02*
X121158628Y-84214285D01*
X121634819Y-82690476D02*
X121634819Y-83261904D01*
X121634819Y-82976190D02*
X120634819Y-82976190D01*
X120634819Y-82976190D02*
X120777676Y-83071428D01*
X120777676Y-83071428D02*
X120872914Y-83166666D01*
X120872914Y-83166666D02*
X120920533Y-83261904D01*
X120730057Y-82309523D02*
X120682438Y-82261904D01*
X120682438Y-82261904D02*
X120634819Y-82166666D01*
X120634819Y-82166666D02*
X120634819Y-81928571D01*
X120634819Y-81928571D02*
X120682438Y-81833333D01*
X120682438Y-81833333D02*
X120730057Y-81785714D01*
X120730057Y-81785714D02*
X120825295Y-81738095D01*
X120825295Y-81738095D02*
X120920533Y-81738095D01*
X120920533Y-81738095D02*
X121063390Y-81785714D01*
X121063390Y-81785714D02*
X121634819Y-82357142D01*
X121634819Y-82357142D02*
X121634819Y-81738095D01*
X134824819Y-105086666D02*
X134348628Y-105419999D01*
X134824819Y-105658094D02*
X133824819Y-105658094D01*
X133824819Y-105658094D02*
X133824819Y-105277142D01*
X133824819Y-105277142D02*
X133872438Y-105181904D01*
X133872438Y-105181904D02*
X133920057Y-105134285D01*
X133920057Y-105134285D02*
X134015295Y-105086666D01*
X134015295Y-105086666D02*
X134158152Y-105086666D01*
X134158152Y-105086666D02*
X134253390Y-105134285D01*
X134253390Y-105134285D02*
X134301009Y-105181904D01*
X134301009Y-105181904D02*
X134348628Y-105277142D01*
X134348628Y-105277142D02*
X134348628Y-105658094D01*
X133824819Y-104229523D02*
X133824819Y-104419999D01*
X133824819Y-104419999D02*
X133872438Y-104515237D01*
X133872438Y-104515237D02*
X133920057Y-104562856D01*
X133920057Y-104562856D02*
X134062914Y-104658094D01*
X134062914Y-104658094D02*
X134253390Y-104705713D01*
X134253390Y-104705713D02*
X134634342Y-104705713D01*
X134634342Y-104705713D02*
X134729580Y-104658094D01*
X134729580Y-104658094D02*
X134777200Y-104610475D01*
X134777200Y-104610475D02*
X134824819Y-104515237D01*
X134824819Y-104515237D02*
X134824819Y-104324761D01*
X134824819Y-104324761D02*
X134777200Y-104229523D01*
X134777200Y-104229523D02*
X134729580Y-104181904D01*
X134729580Y-104181904D02*
X134634342Y-104134285D01*
X134634342Y-104134285D02*
X134396247Y-104134285D01*
X134396247Y-104134285D02*
X134301009Y-104181904D01*
X134301009Y-104181904D02*
X134253390Y-104229523D01*
X134253390Y-104229523D02*
X134205771Y-104324761D01*
X134205771Y-104324761D02*
X134205771Y-104515237D01*
X134205771Y-104515237D02*
X134253390Y-104610475D01*
X134253390Y-104610475D02*
X134301009Y-104658094D01*
X134301009Y-104658094D02*
X134396247Y-104705713D01*
X168488095Y-59314819D02*
X168488095Y-60124342D01*
X168488095Y-60124342D02*
X168535714Y-60219580D01*
X168535714Y-60219580D02*
X168583333Y-60267200D01*
X168583333Y-60267200D02*
X168678571Y-60314819D01*
X168678571Y-60314819D02*
X168869047Y-60314819D01*
X168869047Y-60314819D02*
X168964285Y-60267200D01*
X168964285Y-60267200D02*
X169011904Y-60219580D01*
X169011904Y-60219580D02*
X169059523Y-60124342D01*
X169059523Y-60124342D02*
X169059523Y-59314819D01*
X170011904Y-59314819D02*
X169535714Y-59314819D01*
X169535714Y-59314819D02*
X169488095Y-59791009D01*
X169488095Y-59791009D02*
X169535714Y-59743390D01*
X169535714Y-59743390D02*
X169630952Y-59695771D01*
X169630952Y-59695771D02*
X169869047Y-59695771D01*
X169869047Y-59695771D02*
X169964285Y-59743390D01*
X169964285Y-59743390D02*
X170011904Y-59791009D01*
X170011904Y-59791009D02*
X170059523Y-59886247D01*
X170059523Y-59886247D02*
X170059523Y-60124342D01*
X170059523Y-60124342D02*
X170011904Y-60219580D01*
X170011904Y-60219580D02*
X169964285Y-60267200D01*
X169964285Y-60267200D02*
X169869047Y-60314819D01*
X169869047Y-60314819D02*
X169630952Y-60314819D01*
X169630952Y-60314819D02*
X169535714Y-60267200D01*
X169535714Y-60267200D02*
X169488095Y-60219580D01*
X164488094Y-64329104D02*
X164964284Y-64329104D01*
X164392856Y-64614819D02*
X164726189Y-63614819D01*
X164726189Y-63614819D02*
X165059522Y-64614819D01*
X165392856Y-63948152D02*
X165392856Y-64614819D01*
X165392856Y-64043390D02*
X165440475Y-63995771D01*
X165440475Y-63995771D02*
X165535713Y-63948152D01*
X165535713Y-63948152D02*
X165678570Y-63948152D01*
X165678570Y-63948152D02*
X165773808Y-63995771D01*
X165773808Y-63995771D02*
X165821427Y-64091009D01*
X165821427Y-64091009D02*
X165821427Y-64614819D01*
X166154761Y-63948152D02*
X166535713Y-63948152D01*
X166297618Y-63614819D02*
X166297618Y-64471961D01*
X166297618Y-64471961D02*
X166345237Y-64567200D01*
X166345237Y-64567200D02*
X166440475Y-64614819D01*
X166440475Y-64614819D02*
X166535713Y-64614819D01*
X167249999Y-64567200D02*
X167154761Y-64614819D01*
X167154761Y-64614819D02*
X166964285Y-64614819D01*
X166964285Y-64614819D02*
X166869047Y-64567200D01*
X166869047Y-64567200D02*
X166821428Y-64471961D01*
X166821428Y-64471961D02*
X166821428Y-64091009D01*
X166821428Y-64091009D02*
X166869047Y-63995771D01*
X166869047Y-63995771D02*
X166964285Y-63948152D01*
X166964285Y-63948152D02*
X167154761Y-63948152D01*
X167154761Y-63948152D02*
X167249999Y-63995771D01*
X167249999Y-63995771D02*
X167297618Y-64091009D01*
X167297618Y-64091009D02*
X167297618Y-64186247D01*
X167297618Y-64186247D02*
X166821428Y-64281485D01*
X167726190Y-63948152D02*
X167726190Y-64614819D01*
X167726190Y-64043390D02*
X167773809Y-63995771D01*
X167773809Y-63995771D02*
X167869047Y-63948152D01*
X167869047Y-63948152D02*
X168011904Y-63948152D01*
X168011904Y-63948152D02*
X168107142Y-63995771D01*
X168107142Y-63995771D02*
X168154761Y-64091009D01*
X168154761Y-64091009D02*
X168154761Y-64614819D01*
X168630952Y-63948152D02*
X168630952Y-64614819D01*
X168630952Y-64043390D02*
X168678571Y-63995771D01*
X168678571Y-63995771D02*
X168773809Y-63948152D01*
X168773809Y-63948152D02*
X168916666Y-63948152D01*
X168916666Y-63948152D02*
X169011904Y-63995771D01*
X169011904Y-63995771D02*
X169059523Y-64091009D01*
X169059523Y-64091009D02*
X169059523Y-64614819D01*
X169964285Y-64614819D02*
X169964285Y-64091009D01*
X169964285Y-64091009D02*
X169916666Y-63995771D01*
X169916666Y-63995771D02*
X169821428Y-63948152D01*
X169821428Y-63948152D02*
X169630952Y-63948152D01*
X169630952Y-63948152D02*
X169535714Y-63995771D01*
X169964285Y-64567200D02*
X169869047Y-64614819D01*
X169869047Y-64614819D02*
X169630952Y-64614819D01*
X169630952Y-64614819D02*
X169535714Y-64567200D01*
X169535714Y-64567200D02*
X169488095Y-64471961D01*
X169488095Y-64471961D02*
X169488095Y-64376723D01*
X169488095Y-64376723D02*
X169535714Y-64281485D01*
X169535714Y-64281485D02*
X169630952Y-64233866D01*
X169630952Y-64233866D02*
X169869047Y-64233866D01*
X169869047Y-64233866D02*
X169964285Y-64186247D01*
X171154762Y-64329104D02*
X171630952Y-64329104D01*
X171059524Y-64614819D02*
X171392857Y-63614819D01*
X171392857Y-63614819D02*
X171726190Y-64614819D01*
X172059524Y-64614819D02*
X172059524Y-63948152D01*
X172059524Y-64138628D02*
X172107143Y-64043390D01*
X172107143Y-64043390D02*
X172154762Y-63995771D01*
X172154762Y-63995771D02*
X172250000Y-63948152D01*
X172250000Y-63948152D02*
X172345238Y-63948152D01*
X173059524Y-64567200D02*
X172964286Y-64614819D01*
X172964286Y-64614819D02*
X172773810Y-64614819D01*
X172773810Y-64614819D02*
X172678572Y-64567200D01*
X172678572Y-64567200D02*
X172630953Y-64471961D01*
X172630953Y-64471961D02*
X172630953Y-64091009D01*
X172630953Y-64091009D02*
X172678572Y-63995771D01*
X172678572Y-63995771D02*
X172773810Y-63948152D01*
X172773810Y-63948152D02*
X172964286Y-63948152D01*
X172964286Y-63948152D02*
X173059524Y-63995771D01*
X173059524Y-63995771D02*
X173107143Y-64091009D01*
X173107143Y-64091009D02*
X173107143Y-64186247D01*
X173107143Y-64186247D02*
X172630953Y-64281485D01*
X173964286Y-64614819D02*
X173964286Y-64091009D01*
X173964286Y-64091009D02*
X173916667Y-63995771D01*
X173916667Y-63995771D02*
X173821429Y-63948152D01*
X173821429Y-63948152D02*
X173630953Y-63948152D01*
X173630953Y-63948152D02*
X173535715Y-63995771D01*
X173964286Y-64567200D02*
X173869048Y-64614819D01*
X173869048Y-64614819D02*
X173630953Y-64614819D01*
X173630953Y-64614819D02*
X173535715Y-64567200D01*
X173535715Y-64567200D02*
X173488096Y-64471961D01*
X173488096Y-64471961D02*
X173488096Y-64376723D01*
X173488096Y-64376723D02*
X173535715Y-64281485D01*
X173535715Y-64281485D02*
X173630953Y-64233866D01*
X173630953Y-64233866D02*
X173869048Y-64233866D01*
X173869048Y-64233866D02*
X173964286Y-64186247D01*
X145720613Y-82190804D02*
X145720613Y-83000327D01*
X145720613Y-83000327D02*
X145768232Y-83095565D01*
X145768232Y-83095565D02*
X145815851Y-83143185D01*
X145815851Y-83143185D02*
X145911089Y-83190804D01*
X145911089Y-83190804D02*
X146101565Y-83190804D01*
X146101565Y-83190804D02*
X146196803Y-83143185D01*
X146196803Y-83143185D02*
X146244422Y-83095565D01*
X146244422Y-83095565D02*
X146292041Y-83000327D01*
X146292041Y-83000327D02*
X146292041Y-82190804D01*
X147292041Y-83190804D02*
X146720613Y-83190804D01*
X147006327Y-83190804D02*
X147006327Y-82190804D01*
X147006327Y-82190804D02*
X146911089Y-82333661D01*
X146911089Y-82333661D02*
X146815851Y-82428899D01*
X146815851Y-82428899D02*
X146720613Y-82476518D01*
X143767020Y-107555400D02*
X144576543Y-107555400D01*
X144576543Y-107555400D02*
X144671781Y-107507781D01*
X144671781Y-107507781D02*
X144719401Y-107460162D01*
X144719401Y-107460162D02*
X144767020Y-107364924D01*
X144767020Y-107364924D02*
X144767020Y-107174448D01*
X144767020Y-107174448D02*
X144719401Y-107079210D01*
X144719401Y-107079210D02*
X144671781Y-107031591D01*
X144671781Y-107031591D02*
X144576543Y-106983972D01*
X144576543Y-106983972D02*
X143767020Y-106983972D01*
X143862258Y-106555400D02*
X143814639Y-106507781D01*
X143814639Y-106507781D02*
X143767020Y-106412543D01*
X143767020Y-106412543D02*
X143767020Y-106174448D01*
X143767020Y-106174448D02*
X143814639Y-106079210D01*
X143814639Y-106079210D02*
X143862258Y-106031591D01*
X143862258Y-106031591D02*
X143957496Y-105983972D01*
X143957496Y-105983972D02*
X144052734Y-105983972D01*
X144052734Y-105983972D02*
X144195591Y-106031591D01*
X144195591Y-106031591D02*
X144767020Y-106603019D01*
X144767020Y-106603019D02*
X144767020Y-105983972D01*
X190084819Y-96246666D02*
X189608628Y-96579999D01*
X190084819Y-96818094D02*
X189084819Y-96818094D01*
X189084819Y-96818094D02*
X189084819Y-96437142D01*
X189084819Y-96437142D02*
X189132438Y-96341904D01*
X189132438Y-96341904D02*
X189180057Y-96294285D01*
X189180057Y-96294285D02*
X189275295Y-96246666D01*
X189275295Y-96246666D02*
X189418152Y-96246666D01*
X189418152Y-96246666D02*
X189513390Y-96294285D01*
X189513390Y-96294285D02*
X189561009Y-96341904D01*
X189561009Y-96341904D02*
X189608628Y-96437142D01*
X189608628Y-96437142D02*
X189608628Y-96818094D01*
X189084819Y-95913332D02*
X189084819Y-95246666D01*
X189084819Y-95246666D02*
X190084819Y-95675237D01*
X166238095Y-101454819D02*
X166238095Y-102264342D01*
X166238095Y-102264342D02*
X166285714Y-102359580D01*
X166285714Y-102359580D02*
X166333333Y-102407200D01*
X166333333Y-102407200D02*
X166428571Y-102454819D01*
X166428571Y-102454819D02*
X166619047Y-102454819D01*
X166619047Y-102454819D02*
X166714285Y-102407200D01*
X166714285Y-102407200D02*
X166761904Y-102359580D01*
X166761904Y-102359580D02*
X166809523Y-102264342D01*
X166809523Y-102264342D02*
X166809523Y-101454819D01*
X167714285Y-101788152D02*
X167714285Y-102454819D01*
X167476190Y-101407200D02*
X167238095Y-102121485D01*
X167238095Y-102121485D02*
X167857142Y-102121485D01*
X118209743Y-84739105D02*
X118162124Y-84786725D01*
X118162124Y-84786725D02*
X118019267Y-84834344D01*
X118019267Y-84834344D02*
X117924029Y-84834344D01*
X117924029Y-84834344D02*
X117781172Y-84786725D01*
X117781172Y-84786725D02*
X117685934Y-84691486D01*
X117685934Y-84691486D02*
X117638315Y-84596248D01*
X117638315Y-84596248D02*
X117590696Y-84405772D01*
X117590696Y-84405772D02*
X117590696Y-84262915D01*
X117590696Y-84262915D02*
X117638315Y-84072439D01*
X117638315Y-84072439D02*
X117685934Y-83977201D01*
X117685934Y-83977201D02*
X117781172Y-83881963D01*
X117781172Y-83881963D02*
X117924029Y-83834344D01*
X117924029Y-83834344D02*
X118019267Y-83834344D01*
X118019267Y-83834344D02*
X118162124Y-83881963D01*
X118162124Y-83881963D02*
X118209743Y-83929582D01*
X118781172Y-84262915D02*
X118685934Y-84215296D01*
X118685934Y-84215296D02*
X118638315Y-84167677D01*
X118638315Y-84167677D02*
X118590696Y-84072439D01*
X118590696Y-84072439D02*
X118590696Y-84024820D01*
X118590696Y-84024820D02*
X118638315Y-83929582D01*
X118638315Y-83929582D02*
X118685934Y-83881963D01*
X118685934Y-83881963D02*
X118781172Y-83834344D01*
X118781172Y-83834344D02*
X118971648Y-83834344D01*
X118971648Y-83834344D02*
X119066886Y-83881963D01*
X119066886Y-83881963D02*
X119114505Y-83929582D01*
X119114505Y-83929582D02*
X119162124Y-84024820D01*
X119162124Y-84024820D02*
X119162124Y-84072439D01*
X119162124Y-84072439D02*
X119114505Y-84167677D01*
X119114505Y-84167677D02*
X119066886Y-84215296D01*
X119066886Y-84215296D02*
X118971648Y-84262915D01*
X118971648Y-84262915D02*
X118781172Y-84262915D01*
X118781172Y-84262915D02*
X118685934Y-84310534D01*
X118685934Y-84310534D02*
X118638315Y-84358153D01*
X118638315Y-84358153D02*
X118590696Y-84453391D01*
X118590696Y-84453391D02*
X118590696Y-84643867D01*
X118590696Y-84643867D02*
X118638315Y-84739105D01*
X118638315Y-84739105D02*
X118685934Y-84786725D01*
X118685934Y-84786725D02*
X118781172Y-84834344D01*
X118781172Y-84834344D02*
X118971648Y-84834344D01*
X118971648Y-84834344D02*
X119066886Y-84786725D01*
X119066886Y-84786725D02*
X119114505Y-84739105D01*
X119114505Y-84739105D02*
X119162124Y-84643867D01*
X119162124Y-84643867D02*
X119162124Y-84453391D01*
X119162124Y-84453391D02*
X119114505Y-84358153D01*
X119114505Y-84358153D02*
X119066886Y-84310534D01*
X119066886Y-84310534D02*
X118971648Y-84262915D01*
X163422541Y-91581610D02*
X163089208Y-91105419D01*
X162851113Y-91581610D02*
X162851113Y-90581610D01*
X162851113Y-90581610D02*
X163232065Y-90581610D01*
X163232065Y-90581610D02*
X163327303Y-90629229D01*
X163327303Y-90629229D02*
X163374922Y-90676848D01*
X163374922Y-90676848D02*
X163422541Y-90772086D01*
X163422541Y-90772086D02*
X163422541Y-90914943D01*
X163422541Y-90914943D02*
X163374922Y-91010181D01*
X163374922Y-91010181D02*
X163327303Y-91057800D01*
X163327303Y-91057800D02*
X163232065Y-91105419D01*
X163232065Y-91105419D02*
X162851113Y-91105419D01*
X163993970Y-91010181D02*
X163898732Y-90962562D01*
X163898732Y-90962562D02*
X163851113Y-90914943D01*
X163851113Y-90914943D02*
X163803494Y-90819705D01*
X163803494Y-90819705D02*
X163803494Y-90772086D01*
X163803494Y-90772086D02*
X163851113Y-90676848D01*
X163851113Y-90676848D02*
X163898732Y-90629229D01*
X163898732Y-90629229D02*
X163993970Y-90581610D01*
X163993970Y-90581610D02*
X164184446Y-90581610D01*
X164184446Y-90581610D02*
X164279684Y-90629229D01*
X164279684Y-90629229D02*
X164327303Y-90676848D01*
X164327303Y-90676848D02*
X164374922Y-90772086D01*
X164374922Y-90772086D02*
X164374922Y-90819705D01*
X164374922Y-90819705D02*
X164327303Y-90914943D01*
X164327303Y-90914943D02*
X164279684Y-90962562D01*
X164279684Y-90962562D02*
X164184446Y-91010181D01*
X164184446Y-91010181D02*
X163993970Y-91010181D01*
X163993970Y-91010181D02*
X163898732Y-91057800D01*
X163898732Y-91057800D02*
X163851113Y-91105419D01*
X163851113Y-91105419D02*
X163803494Y-91200657D01*
X163803494Y-91200657D02*
X163803494Y-91391133D01*
X163803494Y-91391133D02*
X163851113Y-91486371D01*
X163851113Y-91486371D02*
X163898732Y-91533991D01*
X163898732Y-91533991D02*
X163993970Y-91581610D01*
X163993970Y-91581610D02*
X164184446Y-91581610D01*
X164184446Y-91581610D02*
X164279684Y-91533991D01*
X164279684Y-91533991D02*
X164327303Y-91486371D01*
X164327303Y-91486371D02*
X164374922Y-91391133D01*
X164374922Y-91391133D02*
X164374922Y-91200657D01*
X164374922Y-91200657D02*
X164327303Y-91105419D01*
X164327303Y-91105419D02*
X164279684Y-91057800D01*
X164279684Y-91057800D02*
X164184446Y-91010181D01*
X116100595Y-87054819D02*
X116100595Y-87864342D01*
X116100595Y-87864342D02*
X116148214Y-87959580D01*
X116148214Y-87959580D02*
X116195833Y-88007200D01*
X116195833Y-88007200D02*
X116291071Y-88054819D01*
X116291071Y-88054819D02*
X116481547Y-88054819D01*
X116481547Y-88054819D02*
X116576785Y-88007200D01*
X116576785Y-88007200D02*
X116624404Y-87959580D01*
X116624404Y-87959580D02*
X116672023Y-87864342D01*
X116672023Y-87864342D02*
X116672023Y-87054819D01*
X117052976Y-87054819D02*
X117672023Y-87054819D01*
X117672023Y-87054819D02*
X117338690Y-87435771D01*
X117338690Y-87435771D02*
X117481547Y-87435771D01*
X117481547Y-87435771D02*
X117576785Y-87483390D01*
X117576785Y-87483390D02*
X117624404Y-87531009D01*
X117624404Y-87531009D02*
X117672023Y-87626247D01*
X117672023Y-87626247D02*
X117672023Y-87864342D01*
X117672023Y-87864342D02*
X117624404Y-87959580D01*
X117624404Y-87959580D02*
X117576785Y-88007200D01*
X117576785Y-88007200D02*
X117481547Y-88054819D01*
X117481547Y-88054819D02*
X117195833Y-88054819D01*
X117195833Y-88054819D02*
X117100595Y-88007200D01*
X117100595Y-88007200D02*
X117052976Y-87959580D01*
X113822555Y-102634256D02*
X113774936Y-102681876D01*
X113774936Y-102681876D02*
X113632079Y-102729495D01*
X113632079Y-102729495D02*
X113536841Y-102729495D01*
X113536841Y-102729495D02*
X113393984Y-102681876D01*
X113393984Y-102681876D02*
X113298746Y-102586637D01*
X113298746Y-102586637D02*
X113251127Y-102491399D01*
X113251127Y-102491399D02*
X113203508Y-102300923D01*
X113203508Y-102300923D02*
X113203508Y-102158066D01*
X113203508Y-102158066D02*
X113251127Y-101967590D01*
X113251127Y-101967590D02*
X113298746Y-101872352D01*
X113298746Y-101872352D02*
X113393984Y-101777114D01*
X113393984Y-101777114D02*
X113536841Y-101729495D01*
X113536841Y-101729495D02*
X113632079Y-101729495D01*
X113632079Y-101729495D02*
X113774936Y-101777114D01*
X113774936Y-101777114D02*
X113822555Y-101824733D01*
X114774936Y-102729495D02*
X114203508Y-102729495D01*
X114489222Y-102729495D02*
X114489222Y-101729495D01*
X114489222Y-101729495D02*
X114393984Y-101872352D01*
X114393984Y-101872352D02*
X114298746Y-101967590D01*
X114298746Y-101967590D02*
X114203508Y-102015209D01*
X119316971Y-97454819D02*
X118983638Y-96978628D01*
X118745543Y-97454819D02*
X118745543Y-96454819D01*
X118745543Y-96454819D02*
X119126495Y-96454819D01*
X119126495Y-96454819D02*
X119221733Y-96502438D01*
X119221733Y-96502438D02*
X119269352Y-96550057D01*
X119269352Y-96550057D02*
X119316971Y-96645295D01*
X119316971Y-96645295D02*
X119316971Y-96788152D01*
X119316971Y-96788152D02*
X119269352Y-96883390D01*
X119269352Y-96883390D02*
X119221733Y-96931009D01*
X119221733Y-96931009D02*
X119126495Y-96978628D01*
X119126495Y-96978628D02*
X118745543Y-96978628D01*
X120174114Y-96788152D02*
X120174114Y-97454819D01*
X119936019Y-96407200D02*
X119697924Y-97121485D01*
X119697924Y-97121485D02*
X120316971Y-97121485D01*
D11*
%TO.C,J1*%
X93840000Y-97080000D02*
X93100000Y-97080000D01*
X93100000Y-97080000D02*
X93100000Y-97580000D01*
X103261000Y-97320000D02*
X93340000Y-97320000D01*
X103261000Y-97320000D02*
X103261000Y-107600000D01*
X100301000Y-97320000D02*
X100301000Y-107600000D01*
X95400000Y-97320000D02*
X95400000Y-107600000D01*
X93900000Y-97320000D02*
X93900000Y-107600000D01*
X93340000Y-97320000D02*
X93340000Y-107600000D01*
X96977000Y-103773000D02*
X96931000Y-103726000D01*
X96761000Y-103966000D02*
X96726000Y-103931000D01*
X99275000Y-106070000D02*
X99239000Y-106035000D01*
X99069000Y-106275000D02*
X99023000Y-106228000D01*
X103261000Y-107600000D02*
X93340000Y-107600000D01*
X98683999Y-98385001D02*
G75*
G03*
X97316958Y-98384574I-684000J-1534992D01*
G01*
X99534999Y-100603999D02*
G75*
G03*
X99535426Y-99236958I-1534992J684000D01*
G01*
X96465001Y-99236000D02*
G75*
G03*
X96319748Y-99948805I1535000J-683999D01*
G01*
X96320001Y-99920000D02*
G75*
G03*
X96465245Y-100603318I1679999J0D01*
G01*
X97316000Y-101455000D02*
G75*
G03*
X98683042Y-101455426I684000J1535000D01*
G01*
X99680000Y-105000000D02*
G75*
G03*
X99680000Y-105000000I-1680000J0D01*
G01*
%TO.C,Q1*%
X171160000Y-92650000D02*
X171160000Y-91250000D01*
X168840000Y-91250000D02*
X168840000Y-93150000D01*
%TO.C,C2*%
X159410000Y-97763748D02*
X159410000Y-99186252D01*
X157590000Y-97763748D02*
X157590000Y-99186252D01*
%TO.C,D3*%
X130764000Y-115830000D02*
X130920000Y-115830000D01*
X133080000Y-115830000D02*
X133236000Y-115830000D01*
X130921392Y-112597666D02*
G75*
G03*
X130764485Y-115829999I1078608J-1672334D01*
G01*
X130920164Y-113228871D02*
G75*
G03*
X130920001Y-115310960I1079836J-1041129D01*
G01*
X133079999Y-115310960D02*
G75*
G03*
X133079836Y-113228871I-1079999J1040960D01*
G01*
X133235515Y-115829999D02*
G75*
G03*
X133078608Y-112597666I-1235515J1559999D01*
G01*
%TO.C,C15*%
X153630000Y-74620000D02*
X153945000Y-74620000D01*
X153630000Y-74620000D02*
X153630000Y-69380000D01*
X156055000Y-74620000D02*
X156370000Y-74620000D01*
X156370000Y-74620000D02*
X156370000Y-69380000D01*
X153630000Y-69380000D02*
X153945000Y-69380000D01*
X156055000Y-69380000D02*
X156370000Y-69380000D01*
%TO.C,J5*%
X186850000Y-116750000D02*
X186850000Y-115500000D01*
X186560000Y-116460000D02*
X186560000Y-110490000D01*
X186560000Y-110490000D02*
X171440000Y-110490000D01*
X186550000Y-116450000D02*
X186550000Y-115700000D01*
X186550000Y-115700000D02*
X184750000Y-115700000D01*
X186550000Y-114200000D02*
X185800000Y-114200000D01*
X185800000Y-114200000D02*
X185800000Y-112860000D01*
X185600000Y-116750000D02*
X186850000Y-116750000D01*
X184750000Y-116450000D02*
X186550000Y-116450000D01*
X184750000Y-115700000D02*
X184750000Y-116450000D01*
X183250000Y-116450000D02*
X183250000Y-115700000D01*
X183250000Y-115700000D02*
X174750000Y-115700000D01*
X179000000Y-111250000D02*
X184740000Y-111250000D01*
X174750000Y-116450000D02*
X183250000Y-116450000D01*
X174750000Y-115700000D02*
X174750000Y-116450000D01*
X173250000Y-116450000D02*
X173250000Y-115700000D01*
X173250000Y-115700000D02*
X171450000Y-115700000D01*
X172200000Y-114200000D02*
X172200000Y-111250000D01*
X172200000Y-111250000D02*
X179000000Y-111250000D01*
X171450000Y-116450000D02*
X173250000Y-116450000D01*
X171450000Y-115700000D02*
X171450000Y-116450000D01*
X171450000Y-114200000D02*
X172200000Y-114200000D01*
X171440000Y-116460000D02*
X186560000Y-116460000D01*
X171440000Y-110490000D02*
X171440000Y-116460000D01*
%TO.C,J3*%
X203850000Y-116750000D02*
X203850000Y-115500000D01*
X203560000Y-116460000D02*
X203560000Y-110490000D01*
X203560000Y-110490000D02*
X188440000Y-110490000D01*
X203550000Y-116450000D02*
X203550000Y-115700000D01*
X203550000Y-115700000D02*
X201750000Y-115700000D01*
X203550000Y-114200000D02*
X202800000Y-114200000D01*
X202800000Y-114200000D02*
X202800000Y-112860000D01*
X202600000Y-116750000D02*
X203850000Y-116750000D01*
X201750000Y-116450000D02*
X203550000Y-116450000D01*
X201750000Y-115700000D02*
X201750000Y-116450000D01*
X200250000Y-116450000D02*
X200250000Y-115700000D01*
X200250000Y-115700000D02*
X191750000Y-115700000D01*
X196000000Y-111250000D02*
X201740000Y-111250000D01*
X191750000Y-116450000D02*
X200250000Y-116450000D01*
X191750000Y-115700000D02*
X191750000Y-116450000D01*
X190250000Y-116450000D02*
X190250000Y-115700000D01*
X190250000Y-115700000D02*
X188450000Y-115700000D01*
X189200000Y-114200000D02*
X189200000Y-111250000D01*
X189200000Y-111250000D02*
X196000000Y-111250000D01*
X188450000Y-116450000D02*
X190250000Y-116450000D01*
X188450000Y-115700000D02*
X188450000Y-116450000D01*
X188450000Y-114200000D02*
X189200000Y-114200000D01*
X188440000Y-116460000D02*
X203560000Y-116460000D01*
X188440000Y-110490000D02*
X188440000Y-116460000D01*
%TO.C,R2*%
X148810436Y-108090000D02*
X150264564Y-108090000D01*
X148810436Y-109910000D02*
X150264564Y-109910000D01*
%TO.C,C9*%
X162410000Y-97763748D02*
X162410000Y-99186252D01*
X160590000Y-97763748D02*
X160590000Y-99186252D01*
%TO.C,J4*%
X212275000Y-78150000D02*
X211025000Y-78150000D01*
X211985000Y-78440000D02*
X206015000Y-78440000D01*
X206015000Y-78440000D02*
X206015000Y-93560000D01*
X211975000Y-78450000D02*
X211225000Y-78450000D01*
X211225000Y-78450000D02*
X211225000Y-80250000D01*
X209725000Y-78450000D02*
X209725000Y-79200000D01*
X209725000Y-79200000D02*
X208385000Y-79200000D01*
X212275000Y-79400000D02*
X212275000Y-78150000D01*
X211975000Y-80250000D02*
X211975000Y-78450000D01*
X211225000Y-80250000D02*
X211975000Y-80250000D01*
X211975000Y-81750000D02*
X211225000Y-81750000D01*
X211225000Y-81750000D02*
X211225000Y-90250000D01*
X206775000Y-86000000D02*
X206775000Y-80260000D01*
X211975000Y-90250000D02*
X211975000Y-81750000D01*
X211225000Y-90250000D02*
X211975000Y-90250000D01*
X211975000Y-91750000D02*
X211225000Y-91750000D01*
X211225000Y-91750000D02*
X211225000Y-93550000D01*
X209725000Y-92800000D02*
X206775000Y-92800000D01*
X206775000Y-92800000D02*
X206775000Y-86000000D01*
X211975000Y-93550000D02*
X211975000Y-91750000D01*
X211225000Y-93550000D02*
X211975000Y-93550000D01*
X209725000Y-93550000D02*
X209725000Y-92800000D01*
X211985000Y-93560000D02*
X211985000Y-78440000D01*
X206015000Y-93560000D02*
X211985000Y-93560000D01*
%TO.C,D2*%
X132000000Y-87260000D02*
X132000000Y-88280000D01*
X133470000Y-88280000D02*
X130530000Y-88280000D01*
X130530000Y-88280000D02*
X130530000Y-93720000D01*
X133470000Y-89060000D02*
X130530000Y-89060000D01*
X133470000Y-89180000D02*
X130530000Y-89180000D01*
X133470000Y-89300000D02*
X130530000Y-89300000D01*
X133470000Y-93720000D02*
X133470000Y-88280000D01*
X130530000Y-93720000D02*
X133470000Y-93720000D01*
X132000000Y-94740000D02*
X132000000Y-93720000D01*
%TO.C,J2*%
X141300000Y-114100000D02*
X141300000Y-116100000D01*
X141300000Y-118000000D02*
X141300000Y-119900000D01*
X141300000Y-119900000D02*
X150700000Y-119900000D01*
X150700000Y-114100000D02*
X150700000Y-116100000D01*
X150700000Y-118000000D02*
X150700000Y-119900000D01*
%TO.C,J8*%
X127650000Y-69250000D02*
X127650000Y-70500000D01*
X127940000Y-69540000D02*
X127940000Y-75510000D01*
X127940000Y-75510000D02*
X143060000Y-75510000D01*
X127950000Y-69550000D02*
X127950000Y-70300000D01*
X127950000Y-70300000D02*
X129750000Y-70300000D01*
X127950000Y-71800000D02*
X128700000Y-71800000D01*
X128700000Y-71800000D02*
X128700000Y-73140000D01*
X128900000Y-69250000D02*
X127650000Y-69250000D01*
X129750000Y-69550000D02*
X127950000Y-69550000D01*
X129750000Y-70300000D02*
X129750000Y-69550000D01*
X131250000Y-69550000D02*
X131250000Y-70300000D01*
X131250000Y-70300000D02*
X139750000Y-70300000D01*
X135500000Y-74750000D02*
X129760000Y-74750000D01*
X139750000Y-69550000D02*
X131250000Y-69550000D01*
X139750000Y-70300000D02*
X139750000Y-69550000D01*
X141250000Y-69550000D02*
X141250000Y-70300000D01*
X141250000Y-70300000D02*
X143050000Y-70300000D01*
X142300000Y-71800000D02*
X142300000Y-74750000D01*
X142300000Y-74750000D02*
X135500000Y-74750000D01*
X143050000Y-69550000D02*
X141250000Y-69550000D01*
X143050000Y-70300000D02*
X143050000Y-69550000D01*
X143050000Y-71800000D02*
X142300000Y-71800000D01*
X143060000Y-69540000D02*
X127940000Y-69540000D01*
X143060000Y-75510000D02*
X143060000Y-69540000D01*
%TO.C,C13*%
X157370000Y-80380000D02*
X157055000Y-80380000D01*
X157370000Y-80380000D02*
X157370000Y-85620000D01*
X154945000Y-80380000D02*
X154630000Y-80380000D01*
X154630000Y-80380000D02*
X154630000Y-85620000D01*
X157370000Y-85620000D02*
X157055000Y-85620000D01*
X154945000Y-85620000D02*
X154630000Y-85620000D01*
%TO.C,D1*%
X123764000Y-115910000D02*
X123920000Y-115910000D01*
X126080000Y-115910000D02*
X126236000Y-115910000D01*
X123921392Y-112677666D02*
G75*
G03*
X123764485Y-115909999I1078608J-1672334D01*
G01*
X123920164Y-113308871D02*
G75*
G03*
X123920001Y-115390960I1079836J-1041129D01*
G01*
X126079999Y-115390960D02*
G75*
G03*
X126079836Y-113308871I-1079999J1040960D01*
G01*
X126235515Y-115909999D02*
G75*
G03*
X126078608Y-112677666I-1235515J1559999D01*
G01*
%TO.C,R9*%
X182063090Y-85173588D02*
X182063090Y-84403588D01*
X180693090Y-84403588D02*
X183433090Y-84403588D01*
X183433090Y-84403588D02*
X183433090Y-77863588D01*
X180693090Y-77863588D02*
X180693090Y-84403588D01*
X183433090Y-77863588D02*
X180693090Y-77863588D01*
X182063090Y-77093588D02*
X182063090Y-77863588D01*
%TO.C,FB1*%
X133049721Y-81490000D02*
X133375279Y-81490000D01*
X133049721Y-82510000D02*
X133375279Y-82510000D01*
%TO.C,C4*%
X111090000Y-90236252D02*
X111090000Y-88813748D01*
X112910000Y-90236252D02*
X112910000Y-88813748D01*
%TO.C,J7*%
X169850000Y-116750000D02*
X169850000Y-115500000D01*
X169560000Y-116460000D02*
X169560000Y-110490000D01*
X169560000Y-110490000D02*
X154440000Y-110490000D01*
X169550000Y-116450000D02*
X169550000Y-115700000D01*
X169550000Y-115700000D02*
X167750000Y-115700000D01*
X169550000Y-114200000D02*
X168800000Y-114200000D01*
X168800000Y-114200000D02*
X168800000Y-112860000D01*
X168600000Y-116750000D02*
X169850000Y-116750000D01*
X167750000Y-116450000D02*
X169550000Y-116450000D01*
X167750000Y-115700000D02*
X167750000Y-116450000D01*
X166250000Y-116450000D02*
X166250000Y-115700000D01*
X166250000Y-115700000D02*
X157750000Y-115700000D01*
X162000000Y-111250000D02*
X167740000Y-111250000D01*
X157750000Y-116450000D02*
X166250000Y-116450000D01*
X157750000Y-115700000D02*
X157750000Y-116450000D01*
X156250000Y-116450000D02*
X156250000Y-115700000D01*
X156250000Y-115700000D02*
X154450000Y-115700000D01*
X155200000Y-114200000D02*
X155200000Y-111250000D01*
X155200000Y-111250000D02*
X162000000Y-111250000D01*
X154450000Y-116450000D02*
X156250000Y-116450000D01*
X154450000Y-115700000D02*
X154450000Y-116450000D01*
X154450000Y-114200000D02*
X155200000Y-114200000D01*
X154440000Y-116460000D02*
X169560000Y-116460000D01*
X154440000Y-110490000D02*
X154440000Y-116460000D01*
%TO.C,C5*%
X155910000Y-89288748D02*
X155910000Y-90711252D01*
X154090000Y-89288748D02*
X154090000Y-90711252D01*
%TO.C,R15*%
X154810436Y-77090000D02*
X156264564Y-77090000D01*
X154810436Y-78910000D02*
X156264564Y-78910000D01*
%TO.C,R10*%
X186000000Y-82040000D02*
X186000000Y-81270000D01*
X184630000Y-81270000D02*
X187370000Y-81270000D01*
X187370000Y-81270000D02*
X187370000Y-74730000D01*
X184630000Y-74730000D02*
X184630000Y-81270000D01*
X187370000Y-74730000D02*
X184630000Y-74730000D01*
X186000000Y-73960000D02*
X186000000Y-74730000D01*
%TO.C,C3*%
X109475000Y-95945225D02*
X109475000Y-96445225D01*
X109725000Y-96195225D02*
X109225000Y-96195225D01*
X110580000Y-98750000D02*
X105420000Y-98750000D01*
X110580000Y-98790000D02*
X105420000Y-98790000D01*
X110579000Y-98830000D02*
X105421000Y-98830000D01*
X110578000Y-98870000D02*
X105422000Y-98870000D01*
X110576000Y-98910000D02*
X105424000Y-98910000D01*
X110573000Y-98950000D02*
X105427000Y-98950000D01*
X110569000Y-98990000D02*
X109040000Y-98990000D01*
X106960000Y-98990000D02*
X105431000Y-98990000D01*
X110565000Y-99030000D02*
X109040000Y-99030000D01*
X106960000Y-99030000D02*
X105435000Y-99030000D01*
X110561000Y-99070000D02*
X109040000Y-99070000D01*
X106960000Y-99070000D02*
X105439000Y-99070000D01*
X110556000Y-99110000D02*
X109040000Y-99110000D01*
X106960000Y-99110000D02*
X105444000Y-99110000D01*
X110550000Y-99150000D02*
X109040000Y-99150000D01*
X106960000Y-99150000D02*
X105450000Y-99150000D01*
X110543000Y-99190000D02*
X109040000Y-99190000D01*
X106960000Y-99190000D02*
X105457000Y-99190000D01*
X110536000Y-99230000D02*
X109040000Y-99230000D01*
X106960000Y-99230000D02*
X105464000Y-99230000D01*
X110528000Y-99270000D02*
X109040000Y-99270000D01*
X106960000Y-99270000D02*
X105472000Y-99270000D01*
X110520000Y-99310000D02*
X109040000Y-99310000D01*
X106960000Y-99310000D02*
X105480000Y-99310000D01*
X110511000Y-99350000D02*
X109040000Y-99350000D01*
X106960000Y-99350000D02*
X105489000Y-99350000D01*
X110501000Y-99390000D02*
X109040000Y-99390000D01*
X106960000Y-99390000D02*
X105499000Y-99390000D01*
X110491000Y-99430000D02*
X109040000Y-99430000D01*
X106960000Y-99430000D02*
X105509000Y-99430000D01*
X110480000Y-99471000D02*
X109040000Y-99471000D01*
X106960000Y-99471000D02*
X105520000Y-99471000D01*
X110468000Y-99511000D02*
X109040000Y-99511000D01*
X106960000Y-99511000D02*
X105532000Y-99511000D01*
X110455000Y-99551000D02*
X109040000Y-99551000D01*
X106960000Y-99551000D02*
X105545000Y-99551000D01*
X110442000Y-99591000D02*
X109040000Y-99591000D01*
X106960000Y-99591000D02*
X105558000Y-99591000D01*
X110428000Y-99631000D02*
X109040000Y-99631000D01*
X106960000Y-99631000D02*
X105572000Y-99631000D01*
X110414000Y-99671000D02*
X109040000Y-99671000D01*
X106960000Y-99671000D02*
X105586000Y-99671000D01*
X110398000Y-99711000D02*
X109040000Y-99711000D01*
X106960000Y-99711000D02*
X105602000Y-99711000D01*
X110382000Y-99751000D02*
X109040000Y-99751000D01*
X106960000Y-99751000D02*
X105618000Y-99751000D01*
X110365000Y-99791000D02*
X109040000Y-99791000D01*
X106960000Y-99791000D02*
X105635000Y-99791000D01*
X110348000Y-99831000D02*
X109040000Y-99831000D01*
X106960000Y-99831000D02*
X105652000Y-99831000D01*
X110329000Y-99871000D02*
X109040000Y-99871000D01*
X106960000Y-99871000D02*
X105671000Y-99871000D01*
X110310000Y-99911000D02*
X109040000Y-99911000D01*
X106960000Y-99911000D02*
X105690000Y-99911000D01*
X110290000Y-99951000D02*
X109040000Y-99951000D01*
X106960000Y-99951000D02*
X105710000Y-99951000D01*
X110268000Y-99991000D02*
X109040000Y-99991000D01*
X106960000Y-99991000D02*
X105732000Y-99991000D01*
X110247000Y-100031000D02*
X109040000Y-100031000D01*
X106960000Y-100031000D02*
X105753000Y-100031000D01*
X110224000Y-100071000D02*
X109040000Y-100071000D01*
X106960000Y-100071000D02*
X105776000Y-100071000D01*
X110200000Y-100111000D02*
X109040000Y-100111000D01*
X106960000Y-100111000D02*
X105800000Y-100111000D01*
X110175000Y-100151000D02*
X109040000Y-100151000D01*
X106960000Y-100151000D02*
X105825000Y-100151000D01*
X110149000Y-100191000D02*
X109040000Y-100191000D01*
X106960000Y-100191000D02*
X105851000Y-100191000D01*
X110122000Y-100231000D02*
X109040000Y-100231000D01*
X106960000Y-100231000D02*
X105878000Y-100231000D01*
X110095000Y-100271000D02*
X109040000Y-100271000D01*
X106960000Y-100271000D02*
X105905000Y-100271000D01*
X110065000Y-100311000D02*
X109040000Y-100311000D01*
X106960000Y-100311000D02*
X105935000Y-100311000D01*
X110035000Y-100351000D02*
X109040000Y-100351000D01*
X106960000Y-100351000D02*
X105965000Y-100351000D01*
X110004000Y-100391000D02*
X109040000Y-100391000D01*
X106960000Y-100391000D02*
X105996000Y-100391000D01*
X109971000Y-100431000D02*
X109040000Y-100431000D01*
X106960000Y-100431000D02*
X106029000Y-100431000D01*
X109937000Y-100471000D02*
X109040000Y-100471000D01*
X106960000Y-100471000D02*
X106063000Y-100471000D01*
X109901000Y-100511000D02*
X109040000Y-100511000D01*
X106960000Y-100511000D02*
X106099000Y-100511000D01*
X109864000Y-100551000D02*
X109040000Y-100551000D01*
X106960000Y-100551000D02*
X106136000Y-100551000D01*
X109826000Y-100591000D02*
X109040000Y-100591000D01*
X106960000Y-100591000D02*
X106174000Y-100591000D01*
X109785000Y-100631000D02*
X109040000Y-100631000D01*
X106960000Y-100631000D02*
X106215000Y-100631000D01*
X109743000Y-100671000D02*
X109040000Y-100671000D01*
X106960000Y-100671000D02*
X106257000Y-100671000D01*
X109699000Y-100711000D02*
X109040000Y-100711000D01*
X106960000Y-100711000D02*
X106301000Y-100711000D01*
X109653000Y-100751000D02*
X109040000Y-100751000D01*
X106960000Y-100751000D02*
X106347000Y-100751000D01*
X109605000Y-100791000D02*
X109040000Y-100791000D01*
X106960000Y-100791000D02*
X106395000Y-100791000D01*
X109554000Y-100831000D02*
X109040000Y-100831000D01*
X106960000Y-100831000D02*
X106446000Y-100831000D01*
X109500000Y-100871000D02*
X109040000Y-100871000D01*
X106960000Y-100871000D02*
X106500000Y-100871000D01*
X109443000Y-100911000D02*
X109040000Y-100911000D01*
X106960000Y-100911000D02*
X106557000Y-100911000D01*
X109383000Y-100951000D02*
X109040000Y-100951000D01*
X106960000Y-100951000D02*
X106617000Y-100951000D01*
X109319000Y-100991000D02*
X109040000Y-100991000D01*
X106960000Y-100991000D02*
X106681000Y-100991000D01*
X109251000Y-101031000D02*
X109040000Y-101031000D01*
X106960000Y-101031000D02*
X106749000Y-101031000D01*
X109178000Y-101071000D02*
X106822000Y-101071000D01*
X109098000Y-101111000D02*
X106902000Y-101111000D01*
X109011000Y-101151000D02*
X106989000Y-101151000D01*
X108915000Y-101191000D02*
X107085000Y-101191000D01*
X108805000Y-101231000D02*
X107195000Y-101231000D01*
X108677000Y-101271000D02*
X107323000Y-101271000D01*
X108518000Y-101311000D02*
X107482000Y-101311000D01*
X108284000Y-101351000D02*
X107716000Y-101351000D01*
X110620000Y-98750000D02*
G75*
G03*
X110620000Y-98750000I-2620000J0D01*
G01*
%TO.C,C6*%
X140630000Y-90120000D02*
X140945000Y-90120000D01*
X140630000Y-90120000D02*
X140630000Y-84880000D01*
X143055000Y-90120000D02*
X143370000Y-90120000D01*
X143370000Y-90120000D02*
X143370000Y-84880000D01*
X140630000Y-84880000D02*
X140945000Y-84880000D01*
X143055000Y-84880000D02*
X143370000Y-84880000D01*
%TO.C,C10*%
X109813748Y-83090000D02*
X111236252Y-83090000D01*
X109813748Y-84910000D02*
X111236252Y-84910000D01*
%TO.C,C7*%
X136630000Y-90120000D02*
X136945000Y-90120000D01*
X136630000Y-90120000D02*
X136630000Y-84880000D01*
X139055000Y-90120000D02*
X139370000Y-90120000D01*
X139370000Y-90120000D02*
X139370000Y-84880000D01*
X136630000Y-84880000D02*
X136945000Y-84880000D01*
X139055000Y-84880000D02*
X139370000Y-84880000D01*
%TO.C,R13*%
X119264564Y-81910000D02*
X117810436Y-81910000D01*
X119264564Y-80090000D02*
X117810436Y-80090000D01*
%TO.C,R14*%
X186000000Y-100040000D02*
X186000000Y-99270000D01*
X184630000Y-99270000D02*
X187370000Y-99270000D01*
X187370000Y-99270000D02*
X187370000Y-92730000D01*
X184630000Y-92730000D02*
X184630000Y-99270000D01*
X187370000Y-92730000D02*
X184630000Y-92730000D01*
X186000000Y-91960000D02*
X186000000Y-92730000D01*
%TO.C,R5*%
X122090000Y-94264564D02*
X122090000Y-92810436D01*
X123910000Y-94264564D02*
X123910000Y-92810436D01*
%TO.C,J6*%
X187650000Y-68250000D02*
X187650000Y-69500000D01*
X187940000Y-68540000D02*
X187940000Y-74510000D01*
X187940000Y-74510000D02*
X203060000Y-74510000D01*
X187950000Y-68550000D02*
X187950000Y-69300000D01*
X187950000Y-69300000D02*
X189750000Y-69300000D01*
X187950000Y-70800000D02*
X188700000Y-70800000D01*
X188700000Y-70800000D02*
X188700000Y-72140000D01*
X188900000Y-68250000D02*
X187650000Y-68250000D01*
X189750000Y-68550000D02*
X187950000Y-68550000D01*
X189750000Y-69300000D02*
X189750000Y-68550000D01*
X191250000Y-68550000D02*
X191250000Y-69300000D01*
X191250000Y-69300000D02*
X199750000Y-69300000D01*
X195500000Y-73750000D02*
X189760000Y-73750000D01*
X199750000Y-68550000D02*
X191250000Y-68550000D01*
X199750000Y-69300000D02*
X199750000Y-68550000D01*
X201250000Y-68550000D02*
X201250000Y-69300000D01*
X201250000Y-69300000D02*
X203050000Y-69300000D01*
X202300000Y-70800000D02*
X202300000Y-73750000D01*
X202300000Y-73750000D02*
X195500000Y-73750000D01*
X203050000Y-68550000D02*
X201250000Y-68550000D01*
X203050000Y-69300000D02*
X203050000Y-68550000D01*
X203050000Y-70800000D02*
X202300000Y-70800000D01*
X203060000Y-68540000D02*
X187940000Y-68540000D01*
X203060000Y-74510000D02*
X203060000Y-68540000D01*
%TO.C,C14*%
X148630000Y-74620000D02*
X148945000Y-74620000D01*
X148630000Y-74620000D02*
X148630000Y-69380000D01*
X151055000Y-74620000D02*
X151370000Y-74620000D01*
X151370000Y-74620000D02*
X151370000Y-69380000D01*
X148630000Y-69380000D02*
X148945000Y-69380000D01*
X151055000Y-69380000D02*
X151370000Y-69380000D01*
%TO.C,R11*%
X128973184Y-82254528D02*
X128973184Y-83708656D01*
X127153184Y-82254528D02*
X127153184Y-83708656D01*
%TO.C,L1*%
X95250000Y-94450000D02*
X98200000Y-94450000D01*
X103800000Y-94450000D02*
X106700000Y-94450000D01*
X94600000Y-93750000D02*
X94600000Y-82250000D01*
X107400000Y-82250000D02*
X107400000Y-93750000D01*
X95300000Y-81550000D02*
X98200000Y-81550000D01*
X103800000Y-81550000D02*
X106700000Y-81550000D01*
X94600000Y-93750000D02*
G75*
G03*
X95300000Y-94450000I699999J-1D01*
G01*
X106700000Y-94450000D02*
G75*
G03*
X107400000Y-93750000I1J699999D01*
G01*
X95300000Y-81550000D02*
G75*
G03*
X94600000Y-82250000I0J-700000D01*
G01*
X107400000Y-82250000D02*
G75*
G03*
X106700000Y-81550000I-700000J0D01*
G01*
%TO.C,C11*%
X109813748Y-80090000D02*
X111236252Y-80090000D01*
X109813748Y-81910000D02*
X111236252Y-81910000D01*
%TO.C,R3*%
X142727064Y-109910000D02*
X141272936Y-109910000D01*
X142727064Y-108090000D02*
X141272936Y-108090000D01*
%TO.C,C12*%
X123236252Y-89910000D02*
X121813748Y-89910000D01*
X123236252Y-88090000D02*
X121813748Y-88090000D01*
%TO.C,R1*%
X125000000Y-101040000D02*
X125000000Y-101810000D01*
X126370000Y-101810000D02*
X123630000Y-101810000D01*
X123630000Y-101810000D02*
X123630000Y-108350000D01*
X126370000Y-108350000D02*
X126370000Y-101810000D01*
X123630000Y-108350000D02*
X126370000Y-108350000D01*
X125000000Y-109120000D02*
X125000000Y-108350000D01*
%TO.C,R12*%
X122090000Y-83727064D02*
X122090000Y-82272936D01*
X123910000Y-83727064D02*
X123910000Y-82272936D01*
%TO.C,R6*%
X132000000Y-100880000D02*
X132000000Y-101650000D01*
X133370000Y-101650000D02*
X130630000Y-101650000D01*
X130630000Y-101650000D02*
X130630000Y-108190000D01*
X133370000Y-108190000D02*
X133370000Y-101650000D01*
X130630000Y-108190000D02*
X133370000Y-108190000D01*
X132000000Y-108960000D02*
X132000000Y-108190000D01*
%TO.C,U5*%
X160250000Y-61160000D02*
X160250000Y-67910000D01*
X160250000Y-61160000D02*
X178250000Y-61160000D01*
X160250000Y-85910000D02*
X160250000Y-86660000D01*
X160250000Y-86660000D02*
X161250000Y-86660000D01*
X178250000Y-61160000D02*
X178250000Y-67910000D01*
X178250000Y-67160000D02*
X160250000Y-67160000D01*
X178250000Y-85910000D02*
X178250000Y-86660000D01*
X178250000Y-86660000D02*
X177250000Y-86660000D01*
%TO.C,U1*%
X144750000Y-83590000D02*
X150760000Y-83590000D01*
X147000000Y-90410000D02*
X150760000Y-90410000D01*
X150760000Y-83590000D02*
X150760000Y-84850000D01*
X150760000Y-90410000D02*
X150760000Y-89150000D01*
%TO.C,U2*%
X145100000Y-107125000D02*
X145100000Y-108725000D01*
X146900000Y-108725000D02*
X146900000Y-106825000D01*
%TO.C,R7*%
X192000000Y-100120000D02*
X192000000Y-99350000D01*
X190630000Y-99350000D02*
X193370000Y-99350000D01*
X193370000Y-99350000D02*
X193370000Y-92810000D01*
X190630000Y-92810000D02*
X190630000Y-99350000D01*
X193370000Y-92810000D02*
X190630000Y-92810000D01*
X192000000Y-92040000D02*
X192000000Y-92810000D01*
%TO.C,U4*%
X164270000Y-95390000D02*
X164995000Y-95390000D01*
X169490000Y-96115000D02*
X169490000Y-95390000D01*
X164270000Y-96115000D02*
X164270000Y-95390000D01*
X169490000Y-99885000D02*
X169490000Y-100610000D01*
X164270000Y-99885000D02*
X164270000Y-100610000D01*
X169490000Y-100610000D02*
X168765000Y-100610000D01*
X164270000Y-100610000D02*
X164995000Y-100610000D01*
%TO.C,C8*%
X119186252Y-86910000D02*
X117763748Y-86910000D01*
X119186252Y-85090000D02*
X117763748Y-85090000D01*
%TO.C,R8*%
X164264564Y-93910000D02*
X162810436Y-93910000D01*
X164264564Y-92090000D02*
X162810436Y-92090000D01*
%TO.C,U3*%
X116862500Y-88440000D02*
X115062500Y-88440000D01*
X116862500Y-88440000D02*
X117662500Y-88440000D01*
X116862500Y-91560000D02*
X116062500Y-91560000D01*
X116862500Y-91560000D02*
X117662500Y-91560000D01*
%TO.C,J9*%
X110823618Y-69287026D02*
X110823618Y-70537026D01*
X111113618Y-69577026D02*
X111113618Y-75547026D01*
X111113618Y-75547026D02*
X126233618Y-75547026D01*
X111123618Y-69587026D02*
X111123618Y-70337026D01*
X111123618Y-70337026D02*
X112923618Y-70337026D01*
X111123618Y-71837026D02*
X111873618Y-71837026D01*
X111873618Y-71837026D02*
X111873618Y-73177026D01*
X112073618Y-69287026D02*
X110823618Y-69287026D01*
X112923618Y-69587026D02*
X111123618Y-69587026D01*
X112923618Y-70337026D02*
X112923618Y-69587026D01*
X114423618Y-69587026D02*
X114423618Y-70337026D01*
X114423618Y-70337026D02*
X122923618Y-70337026D01*
X118673618Y-74787026D02*
X112933618Y-74787026D01*
X122923618Y-69587026D02*
X114423618Y-69587026D01*
X122923618Y-70337026D02*
X122923618Y-69587026D01*
X124423618Y-69587026D02*
X124423618Y-70337026D01*
X124423618Y-70337026D02*
X126223618Y-70337026D01*
X125473618Y-71837026D02*
X125473618Y-74787026D01*
X125473618Y-74787026D02*
X118673618Y-74787026D01*
X126223618Y-69587026D02*
X124423618Y-69587026D01*
X126223618Y-70337026D02*
X126223618Y-69587026D01*
X126223618Y-71837026D02*
X125473618Y-71837026D01*
X126233618Y-69577026D02*
X111113618Y-69577026D01*
X126233618Y-75547026D02*
X126233618Y-69577026D01*
%TO.C,C1*%
X115475000Y-95945225D02*
X115475000Y-96445225D01*
X115725000Y-96195225D02*
X115225000Y-96195225D01*
X116580000Y-98750000D02*
X111420000Y-98750000D01*
X116580000Y-98790000D02*
X111420000Y-98790000D01*
X116579000Y-98830000D02*
X111421000Y-98830000D01*
X116578000Y-98870000D02*
X111422000Y-98870000D01*
X116576000Y-98910000D02*
X111424000Y-98910000D01*
X116573000Y-98950000D02*
X111427000Y-98950000D01*
X116569000Y-98990000D02*
X115040000Y-98990000D01*
X112960000Y-98990000D02*
X111431000Y-98990000D01*
X116565000Y-99030000D02*
X115040000Y-99030000D01*
X112960000Y-99030000D02*
X111435000Y-99030000D01*
X116561000Y-99070000D02*
X115040000Y-99070000D01*
X112960000Y-99070000D02*
X111439000Y-99070000D01*
X116556000Y-99110000D02*
X115040000Y-99110000D01*
X112960000Y-99110000D02*
X111444000Y-99110000D01*
X116550000Y-99150000D02*
X115040000Y-99150000D01*
X112960000Y-99150000D02*
X111450000Y-99150000D01*
X116543000Y-99190000D02*
X115040000Y-99190000D01*
X112960000Y-99190000D02*
X111457000Y-99190000D01*
X116536000Y-99230000D02*
X115040000Y-99230000D01*
X112960000Y-99230000D02*
X111464000Y-99230000D01*
X116528000Y-99270000D02*
X115040000Y-99270000D01*
X112960000Y-99270000D02*
X111472000Y-99270000D01*
X116520000Y-99310000D02*
X115040000Y-99310000D01*
X112960000Y-99310000D02*
X111480000Y-99310000D01*
X116511000Y-99350000D02*
X115040000Y-99350000D01*
X112960000Y-99350000D02*
X111489000Y-99350000D01*
X116501000Y-99390000D02*
X115040000Y-99390000D01*
X112960000Y-99390000D02*
X111499000Y-99390000D01*
X116491000Y-99430000D02*
X115040000Y-99430000D01*
X112960000Y-99430000D02*
X111509000Y-99430000D01*
X116480000Y-99471000D02*
X115040000Y-99471000D01*
X112960000Y-99471000D02*
X111520000Y-99471000D01*
X116468000Y-99511000D02*
X115040000Y-99511000D01*
X112960000Y-99511000D02*
X111532000Y-99511000D01*
X116455000Y-99551000D02*
X115040000Y-99551000D01*
X112960000Y-99551000D02*
X111545000Y-99551000D01*
X116442000Y-99591000D02*
X115040000Y-99591000D01*
X112960000Y-99591000D02*
X111558000Y-99591000D01*
X116428000Y-99631000D02*
X115040000Y-99631000D01*
X112960000Y-99631000D02*
X111572000Y-99631000D01*
X116414000Y-99671000D02*
X115040000Y-99671000D01*
X112960000Y-99671000D02*
X111586000Y-99671000D01*
X116398000Y-99711000D02*
X115040000Y-99711000D01*
X112960000Y-99711000D02*
X111602000Y-99711000D01*
X116382000Y-99751000D02*
X115040000Y-99751000D01*
X112960000Y-99751000D02*
X111618000Y-99751000D01*
X116365000Y-99791000D02*
X115040000Y-99791000D01*
X112960000Y-99791000D02*
X111635000Y-99791000D01*
X116348000Y-99831000D02*
X115040000Y-99831000D01*
X112960000Y-99831000D02*
X111652000Y-99831000D01*
X116329000Y-99871000D02*
X115040000Y-99871000D01*
X112960000Y-99871000D02*
X111671000Y-99871000D01*
X116310000Y-99911000D02*
X115040000Y-99911000D01*
X112960000Y-99911000D02*
X111690000Y-99911000D01*
X116290000Y-99951000D02*
X115040000Y-99951000D01*
X112960000Y-99951000D02*
X111710000Y-99951000D01*
X116268000Y-99991000D02*
X115040000Y-99991000D01*
X112960000Y-99991000D02*
X111732000Y-99991000D01*
X116247000Y-100031000D02*
X115040000Y-100031000D01*
X112960000Y-100031000D02*
X111753000Y-100031000D01*
X116224000Y-100071000D02*
X115040000Y-100071000D01*
X112960000Y-100071000D02*
X111776000Y-100071000D01*
X116200000Y-100111000D02*
X115040000Y-100111000D01*
X112960000Y-100111000D02*
X111800000Y-100111000D01*
X116175000Y-100151000D02*
X115040000Y-100151000D01*
X112960000Y-100151000D02*
X111825000Y-100151000D01*
X116149000Y-100191000D02*
X115040000Y-100191000D01*
X112960000Y-100191000D02*
X111851000Y-100191000D01*
X116122000Y-100231000D02*
X115040000Y-100231000D01*
X112960000Y-100231000D02*
X111878000Y-100231000D01*
X116095000Y-100271000D02*
X115040000Y-100271000D01*
X112960000Y-100271000D02*
X111905000Y-100271000D01*
X116065000Y-100311000D02*
X115040000Y-100311000D01*
X112960000Y-100311000D02*
X111935000Y-100311000D01*
X116035000Y-100351000D02*
X115040000Y-100351000D01*
X112960000Y-100351000D02*
X111965000Y-100351000D01*
X116004000Y-100391000D02*
X115040000Y-100391000D01*
X112960000Y-100391000D02*
X111996000Y-100391000D01*
X115971000Y-100431000D02*
X115040000Y-100431000D01*
X112960000Y-100431000D02*
X112029000Y-100431000D01*
X115937000Y-100471000D02*
X115040000Y-100471000D01*
X112960000Y-100471000D02*
X112063000Y-100471000D01*
X115901000Y-100511000D02*
X115040000Y-100511000D01*
X112960000Y-100511000D02*
X112099000Y-100511000D01*
X115864000Y-100551000D02*
X115040000Y-100551000D01*
X112960000Y-100551000D02*
X112136000Y-100551000D01*
X115826000Y-100591000D02*
X115040000Y-100591000D01*
X112960000Y-100591000D02*
X112174000Y-100591000D01*
X115785000Y-100631000D02*
X115040000Y-100631000D01*
X112960000Y-100631000D02*
X112215000Y-100631000D01*
X115743000Y-100671000D02*
X115040000Y-100671000D01*
X112960000Y-100671000D02*
X112257000Y-100671000D01*
X115699000Y-100711000D02*
X115040000Y-100711000D01*
X112960000Y-100711000D02*
X112301000Y-100711000D01*
X115653000Y-100751000D02*
X115040000Y-100751000D01*
X112960000Y-100751000D02*
X112347000Y-100751000D01*
X115605000Y-100791000D02*
X115040000Y-100791000D01*
X112960000Y-100791000D02*
X112395000Y-100791000D01*
X115554000Y-100831000D02*
X115040000Y-100831000D01*
X112960000Y-100831000D02*
X112446000Y-100831000D01*
X115500000Y-100871000D02*
X115040000Y-100871000D01*
X112960000Y-100871000D02*
X112500000Y-100871000D01*
X115443000Y-100911000D02*
X115040000Y-100911000D01*
X112960000Y-100911000D02*
X112557000Y-100911000D01*
X115383000Y-100951000D02*
X115040000Y-100951000D01*
X112960000Y-100951000D02*
X112617000Y-100951000D01*
X115319000Y-100991000D02*
X115040000Y-100991000D01*
X112960000Y-100991000D02*
X112681000Y-100991000D01*
X115251000Y-101031000D02*
X115040000Y-101031000D01*
X112960000Y-101031000D02*
X112749000Y-101031000D01*
X115178000Y-101071000D02*
X112822000Y-101071000D01*
X115098000Y-101111000D02*
X112902000Y-101111000D01*
X115011000Y-101151000D02*
X112989000Y-101151000D01*
X114915000Y-101191000D02*
X113085000Y-101191000D01*
X114805000Y-101231000D02*
X113195000Y-101231000D01*
X114677000Y-101271000D02*
X113323000Y-101271000D01*
X114518000Y-101311000D02*
X113482000Y-101311000D01*
X114284000Y-101351000D02*
X113716000Y-101351000D01*
X116620000Y-98750000D02*
G75*
G03*
X116620000Y-98750000I-2620000J0D01*
G01*
%TO.C,R4*%
X118810436Y-94090000D02*
X120264564Y-94090000D01*
X118810436Y-95910000D02*
X120264564Y-95910000D01*
%TD*%
M02*
