%TF.GenerationSoftware,KiCad,Pcbnew,7.0.7*%
%TF.CreationDate,2024-02-08T23:22:07+01:00*%
%TF.ProjectId,balancing_robot,62616c61-6e63-4696-9e67-5f726f626f74,rev?*%
%TF.SameCoordinates,Original*%
%TF.FileFunction,Soldermask,Top*%
%TF.FilePolarity,Negative*%
%FSLAX46Y46*%
G04 Gerber Fmt 4.6, Leading zero omitted, Abs format (unit mm)*
G04 Created by KiCad (PCBNEW 7.0.7) date 2024-02-08 23:22:07*
%MOMM*%
%LPD*%
G01*
G04 APERTURE LIST*
G04 Aperture macros list*
%AMRoundRect*
0 Rectangle with rounded corners*
0 $1 Rounding radius*
0 $2 $3 $4 $5 $6 $7 $8 $9 X,Y pos of 4 corners*
0 Add a 4 corners polygon primitive as box body*
4,1,4,$2,$3,$4,$5,$6,$7,$8,$9,$2,$3,0*
0 Add four circle primitives for the rounded corners*
1,1,$1+$1,$2,$3*
1,1,$1+$1,$4,$5*
1,1,$1+$1,$6,$7*
1,1,$1+$1,$8,$9*
0 Add four rect primitives between the rounded corners*
20,1,$1+$1,$2,$3,$4,$5,0*
20,1,$1+$1,$4,$5,$6,$7,0*
20,1,$1+$1,$6,$7,$8,$9,0*
20,1,$1+$1,$8,$9,$2,$3,0*%
G04 Aperture macros list end*
%ADD10R,2.600000X2.600000*%
%ADD11C,2.600000*%
%ADD12R,0.400000X0.650000*%
%ADD13RoundRect,0.250000X-0.650000X0.325000X-0.650000X-0.325000X0.650000X-0.325000X0.650000X0.325000X0*%
%ADD14R,1.800000X1.800000*%
%ADD15C,1.800000*%
%ADD16C,1.600000*%
%ADD17C,0.800000*%
%ADD18C,6.400000*%
%ADD19C,1.200000*%
%ADD20RoundRect,0.250000X0.600000X0.725000X-0.600000X0.725000X-0.600000X-0.725000X0.600000X-0.725000X0*%
%ADD21O,1.700000X1.950000*%
%ADD22RoundRect,0.250000X-0.312500X-0.625000X0.312500X-0.625000X0.312500X0.625000X-0.312500X0.625000X0*%
%ADD23RoundRect,0.250000X-0.725000X0.600000X-0.725000X-0.600000X0.725000X-0.600000X0.725000X0.600000X0*%
%ADD24O,1.950000X1.700000*%
%ADD25R,2.200000X2.200000*%
%ADD26O,2.200000X2.200000*%
%ADD27C,0.650000*%
%ADD28R,0.600000X1.450000*%
%ADD29R,0.300000X1.450000*%
%ADD30O,1.000000X2.100000*%
%ADD31O,1.000000X1.600000*%
%ADD32RoundRect,0.250000X-0.600000X-0.725000X0.600000X-0.725000X0.600000X0.725000X-0.600000X0.725000X0*%
%ADD33O,1.600000X1.600000*%
%ADD34RoundRect,0.218750X-0.218750X-0.256250X0.218750X-0.256250X0.218750X0.256250X-0.218750X0.256250X0*%
%ADD35RoundRect,0.250000X0.650000X-0.325000X0.650000X0.325000X-0.650000X0.325000X-0.650000X-0.325000X0*%
%ADD36R,1.600000X1.600000*%
%ADD37RoundRect,0.250000X-0.325000X-0.650000X0.325000X-0.650000X0.325000X0.650000X-0.325000X0.650000X0*%
%ADD38RoundRect,0.250000X0.312500X0.625000X-0.312500X0.625000X-0.312500X-0.625000X0.312500X-0.625000X0*%
%ADD39RoundRect,0.250000X0.625000X-0.312500X0.625000X0.312500X-0.625000X0.312500X-0.625000X-0.312500X0*%
%ADD40RoundRect,0.250000X-0.625000X0.312500X-0.625000X-0.312500X0.625000X-0.312500X0.625000X0.312500X0*%
%ADD41R,5.000000X3.100000*%
%ADD42RoundRect,0.250000X0.325000X0.650000X-0.325000X0.650000X-0.325000X-0.650000X0.325000X-0.650000X0*%
%ADD43R,1.500000X0.900000*%
%ADD44R,0.900000X1.500000*%
%ADD45R,1.000000X1.000000*%
%ADD46R,2.000000X1.500000*%
%ADD47R,2.000000X3.800000*%
%ADD48R,0.375000X0.500000*%
%ADD49R,0.300000X0.650000*%
%ADD50RoundRect,0.062500X-0.062500X0.337500X-0.062500X-0.337500X0.062500X-0.337500X0.062500X0.337500X0*%
%ADD51RoundRect,0.062500X-0.337500X0.062500X-0.337500X-0.062500X0.337500X-0.062500X0.337500X0.062500X0*%
%ADD52R,3.350000X3.350000*%
%ADD53RoundRect,0.150000X-0.512500X-0.150000X0.512500X-0.150000X0.512500X0.150000X-0.512500X0.150000X0*%
G04 APERTURE END LIST*
D10*
%TO.C,J1*%
X98000000Y-99920000D03*
D11*
X98000000Y-105000000D03*
%TD*%
D12*
%TO.C,Q1*%
X169350000Y-92900000D03*
X170000000Y-92900000D03*
X170650000Y-92900000D03*
X170650000Y-91000000D03*
X170000000Y-91000000D03*
X169350000Y-91000000D03*
%TD*%
D13*
%TO.C,C2*%
X158500000Y-97000000D03*
X158500000Y-99950000D03*
%TD*%
D14*
%TO.C,D3*%
X132000000Y-115540000D03*
D15*
X132000000Y-113000000D03*
%TD*%
D16*
%TO.C,C15*%
X155000000Y-74500000D03*
X155000000Y-69500000D03*
%TD*%
D17*
%TO.C,H3*%
X95200000Y-113000000D03*
X95902944Y-111302944D03*
X95902944Y-114697056D03*
X97600000Y-110600000D03*
D18*
X97600000Y-113000000D03*
D17*
X97600000Y-115400000D03*
X99297056Y-111302944D03*
X99297056Y-114697056D03*
X100000000Y-113000000D03*
%TD*%
D19*
%TO.C,J5*%
X185600000Y-112000000D03*
D20*
X184000000Y-114000000D03*
D21*
X181500000Y-114000000D03*
X179000000Y-114000000D03*
X176500000Y-114000000D03*
X174000000Y-114000000D03*
%TD*%
D19*
%TO.C,J3*%
X202600000Y-112000000D03*
D20*
X201000000Y-114000000D03*
D21*
X198500000Y-114000000D03*
X196000000Y-114000000D03*
X193500000Y-114000000D03*
X191000000Y-114000000D03*
%TD*%
D22*
%TO.C,R2*%
X148075000Y-109000000D03*
X151000000Y-109000000D03*
%TD*%
D13*
%TO.C,C9*%
X161500000Y-97000000D03*
X161500000Y-99950000D03*
%TD*%
D19*
%TO.C,J4*%
X207525000Y-79400000D03*
D23*
X209525000Y-81000000D03*
D24*
X209525000Y-83500000D03*
X209525000Y-86000000D03*
X209525000Y-88500000D03*
X209525000Y-91000000D03*
%TD*%
D25*
%TO.C,D2*%
X132000000Y-85920000D03*
D26*
X132000000Y-96080000D03*
%TD*%
D27*
%TO.C,J2*%
X143110000Y-113400000D03*
X148890000Y-113400000D03*
D28*
X142750000Y-111955000D03*
X143550000Y-111955000D03*
D29*
X144750000Y-111955000D03*
X145750000Y-111955000D03*
X146250000Y-111955000D03*
X147250000Y-111955000D03*
D28*
X148450000Y-111955000D03*
X149250000Y-111955000D03*
X149250000Y-111955000D03*
X148450000Y-111955000D03*
D29*
X147750000Y-111955000D03*
X146750000Y-111955000D03*
X145250000Y-111955000D03*
X144250000Y-111955000D03*
D28*
X143550000Y-111955000D03*
X142750000Y-111955000D03*
D30*
X141680000Y-112870000D03*
D31*
X141680000Y-117050000D03*
D30*
X150320000Y-112870000D03*
D31*
X150320000Y-117050000D03*
%TD*%
D19*
%TO.C,J8*%
X128900000Y-74000000D03*
D32*
X130500000Y-72000000D03*
D21*
X133000000Y-72000000D03*
X135500000Y-72000000D03*
X138000000Y-72000000D03*
X140500000Y-72000000D03*
%TD*%
D17*
%TO.C,H1*%
X205600000Y-73000000D03*
X206302944Y-71302944D03*
X206302944Y-74697056D03*
X208000000Y-70600000D03*
D18*
X208000000Y-73000000D03*
D17*
X208000000Y-75400000D03*
X209697056Y-71302944D03*
X209697056Y-74697056D03*
X210400000Y-73000000D03*
%TD*%
D16*
%TO.C,C13*%
X156000000Y-80500000D03*
X156000000Y-85500000D03*
%TD*%
D14*
%TO.C,D1*%
X125000000Y-115620000D03*
D15*
X125000000Y-113080000D03*
%TD*%
D16*
%TO.C,R9*%
X182063090Y-86213588D03*
D33*
X182063090Y-76053588D03*
%TD*%
D34*
%TO.C,FB1*%
X132425000Y-82000000D03*
X134000000Y-82000000D03*
%TD*%
D17*
%TO.C,H2*%
X95617235Y-72965203D03*
X96320179Y-71268147D03*
X96320179Y-74662259D03*
X98017235Y-70565203D03*
D18*
X98017235Y-72965203D03*
D17*
X98017235Y-75365203D03*
X99714291Y-71268147D03*
X99714291Y-74662259D03*
X100417235Y-72965203D03*
%TD*%
D35*
%TO.C,C4*%
X112000000Y-91000000D03*
X112000000Y-88050000D03*
%TD*%
D19*
%TO.C,J7*%
X168600000Y-112000000D03*
D20*
X167000000Y-114000000D03*
D21*
X164500000Y-114000000D03*
X162000000Y-114000000D03*
X159500000Y-114000000D03*
X157000000Y-114000000D03*
%TD*%
D13*
%TO.C,C5*%
X155000000Y-88525000D03*
X155000000Y-91475000D03*
%TD*%
D22*
%TO.C,R15*%
X154075000Y-78000000D03*
X157000000Y-78000000D03*
%TD*%
D16*
%TO.C,R10*%
X186000000Y-83080000D03*
D33*
X186000000Y-72920000D03*
%TD*%
D36*
%TO.C,C3*%
X108000000Y-97500000D03*
D16*
X108000000Y-100000000D03*
%TD*%
%TO.C,C6*%
X142000000Y-90000000D03*
X142000000Y-85000000D03*
%TD*%
D37*
%TO.C,C10*%
X109050000Y-84000000D03*
X112000000Y-84000000D03*
%TD*%
D16*
%TO.C,C7*%
X138000000Y-90000000D03*
X138000000Y-85000000D03*
%TD*%
D38*
%TO.C,R13*%
X120000000Y-81000000D03*
X117075000Y-81000000D03*
%TD*%
D16*
%TO.C,R14*%
X186000000Y-101080000D03*
D33*
X186000000Y-90920000D03*
%TD*%
D39*
%TO.C,R5*%
X123000000Y-95000000D03*
X123000000Y-92075000D03*
%TD*%
D19*
%TO.C,J6*%
X188900000Y-73000000D03*
D32*
X190500000Y-71000000D03*
D21*
X193000000Y-71000000D03*
X195500000Y-71000000D03*
X198000000Y-71000000D03*
X200500000Y-71000000D03*
%TD*%
D16*
%TO.C,C14*%
X150000000Y-74500000D03*
X150000000Y-69500000D03*
%TD*%
D40*
%TO.C,R11*%
X128063184Y-81519092D03*
X128063184Y-84444092D03*
%TD*%
D41*
%TO.C,L1*%
X101000000Y-93550000D03*
X101000000Y-82450000D03*
%TD*%
D37*
%TO.C,C11*%
X109050000Y-81000000D03*
X112000000Y-81000000D03*
%TD*%
D38*
%TO.C,R3*%
X143462500Y-109000000D03*
X140537500Y-109000000D03*
%TD*%
D42*
%TO.C,C12*%
X124000000Y-89000000D03*
X121050000Y-89000000D03*
%TD*%
D16*
%TO.C,R1*%
X125000000Y-100000000D03*
D33*
X125000000Y-110160000D03*
%TD*%
D39*
%TO.C,R12*%
X123000000Y-84462500D03*
X123000000Y-81537500D03*
%TD*%
D16*
%TO.C,R6*%
X132000000Y-99840000D03*
D33*
X132000000Y-110000000D03*
%TD*%
D43*
%TO.C,U5*%
X160500000Y-68650000D03*
X160500000Y-69920000D03*
X160500000Y-71190000D03*
X160500000Y-72460000D03*
X160500000Y-73730000D03*
X160500000Y-75000000D03*
X160500000Y-76270000D03*
X160500000Y-77540000D03*
X160500000Y-78810000D03*
X160500000Y-80080000D03*
X160500000Y-81350000D03*
X160500000Y-82620000D03*
X160500000Y-83890000D03*
X160500000Y-85160000D03*
D44*
X162265000Y-86410000D03*
X163535000Y-86410000D03*
X164805000Y-86410000D03*
X166075000Y-86410000D03*
X167345000Y-86410000D03*
X168615000Y-86410000D03*
X169885000Y-86410000D03*
X171155000Y-86410000D03*
X172425000Y-86410000D03*
X173695000Y-86410000D03*
X174965000Y-86410000D03*
X176235000Y-86410000D03*
D43*
X178000000Y-85160000D03*
X178000000Y-83890000D03*
X178000000Y-82620000D03*
X178000000Y-81350000D03*
X178000000Y-80080000D03*
X178000000Y-78810000D03*
X178000000Y-77540000D03*
X178000000Y-76270000D03*
X178000000Y-75000000D03*
X178000000Y-73730000D03*
X178000000Y-72460000D03*
X178000000Y-71190000D03*
X178000000Y-69920000D03*
X178000000Y-68650000D03*
D45*
X166390000Y-72500000D03*
X166390000Y-74000000D03*
X166390000Y-74000000D03*
X166390000Y-75500000D03*
X167890000Y-72500000D03*
X167890000Y-72500000D03*
X167890000Y-74000000D03*
X167890000Y-75500000D03*
X169390000Y-72500000D03*
X169390000Y-74000000D03*
X169390000Y-75500000D03*
%TD*%
D46*
%TO.C,U1*%
X145700000Y-84700000D03*
X145700000Y-87000000D03*
D47*
X152000000Y-87000000D03*
D46*
X145700000Y-89300000D03*
%TD*%
D48*
%TO.C,U2*%
X146537500Y-107075000D03*
D49*
X146000000Y-107000000D03*
D48*
X145462500Y-107075000D03*
X145462500Y-108775000D03*
D49*
X146000000Y-108850000D03*
D48*
X146537500Y-108775000D03*
%TD*%
D16*
%TO.C,R7*%
X192000000Y-101160000D03*
D33*
X192000000Y-91000000D03*
%TD*%
D50*
%TO.C,U4*%
X168380000Y-95550000D03*
X167880000Y-95550000D03*
X167380000Y-95550000D03*
X166880000Y-95550000D03*
X166380000Y-95550000D03*
X165880000Y-95550000D03*
X165380000Y-95550000D03*
D51*
X164430000Y-96500000D03*
X164430000Y-97000000D03*
X164430000Y-97500000D03*
X164430000Y-98000000D03*
X164430000Y-98500000D03*
X164430000Y-99000000D03*
X164430000Y-99500000D03*
D50*
X165380000Y-100450000D03*
X165880000Y-100450000D03*
X166380000Y-100450000D03*
X166880000Y-100450000D03*
X167380000Y-100450000D03*
X167880000Y-100450000D03*
X168380000Y-100450000D03*
D51*
X169330000Y-99500000D03*
X169330000Y-99000000D03*
X169330000Y-98500000D03*
X169330000Y-98000000D03*
X169330000Y-97500000D03*
X169330000Y-97000000D03*
X169330000Y-96500000D03*
D52*
X166880000Y-98000000D03*
%TD*%
D42*
%TO.C,C8*%
X119950000Y-86000000D03*
X117000000Y-86000000D03*
%TD*%
D38*
%TO.C,R8*%
X165000000Y-93000000D03*
X162075000Y-93000000D03*
%TD*%
D53*
%TO.C,U3*%
X115725000Y-89050000D03*
X115725000Y-90000000D03*
X115725000Y-90950000D03*
X118000000Y-90950000D03*
X118000000Y-90000000D03*
X118000000Y-89050000D03*
%TD*%
D17*
%TO.C,H4*%
X205582076Y-113056981D03*
X206285020Y-111359925D03*
X206285020Y-114754037D03*
X207982076Y-110656981D03*
D18*
X207982076Y-113056981D03*
D17*
X207982076Y-115456981D03*
X209679132Y-111359925D03*
X209679132Y-114754037D03*
X210382076Y-113056981D03*
%TD*%
D19*
%TO.C,J9*%
X112073618Y-74037026D03*
D32*
X113673618Y-72037026D03*
D21*
X116173618Y-72037026D03*
X118673618Y-72037026D03*
X121173618Y-72037026D03*
X123673618Y-72037026D03*
%TD*%
D36*
%TO.C,C1*%
X114000000Y-97500000D03*
D16*
X114000000Y-100000000D03*
%TD*%
D22*
%TO.C,R4*%
X118075000Y-95000000D03*
X121000000Y-95000000D03*
%TD*%
M02*
